SplineFontDB: 3.2
FontName: SoftCode-Bold
FullName: SoftCode Bold
FamilyName: SoftCode
Weight: Bold
Copyright: (c) 2013-2020 Fabio Y. Goto
UComments: "2013-6-22: Created."
Version: 0.0.1
ItalicAngle: 0
UnderlinePosition: -128
UnderlineWidth: 64
Ascent: 832
Descent: 192
InvalidEm: 0
LayerCount: 2
Layer: 0 0 "Back" 1
Layer: 1 0 "Fore" 0
XUID: [1021 435 22966 28455]
FSType: 0
OS2Version: 0
OS2_WeightWidthSlopeOnly: 0
OS2_UseTypoMetrics: 1
CreationTime: 1371875741
ModificationTime: 1583858643
PfmFamily: 17
TTFWeight: 400
TTFWidth: 5
LineGap: 92
VLineGap: 92
OS2TypoAscent: 0
OS2TypoAOffset: 1
OS2TypoDescent: 0
OS2TypoDOffset: 1
OS2TypoLinegap: 92
OS2WinAscent: 0
OS2WinAOffset: 1
OS2WinDescent: 0
OS2WinDOffset: 1
HheadAscent: 0
HheadAOffset: 1
HheadDescent: 0
HheadDOffset: 1
OS2Vendor: 'PfEd'
MarkAttachClasses: 1
DEI: 91125
LangName: 1033
GaspTable: 11 7 3 8 2 9 3 10 2 11 3 12 1 13 3 14 2 15 3 16 2 65535 3 0
Encoding: ISO8859-1
Compacted: 1
UnicodeInterp: none
NameList: Adobe Glyph List
DisplaySize: -24
AntiAlias: 1
FitToEm: 1
WinInfo: 0 30 20
BeginPrivate: 0
EndPrivate
TeXData: 1 0 0 393216 196608 131072 458752 1048576 131072 783286 444596 497025 792723 393216 433062 380633 303038 157286 324010 404750 52429 2506097 1059062 262144
BeginChars: 276 208

StartChar: A
Encoding: 65 65 0
Width: 384
VWidth: 0
Flags: W
HStem: -16 21G<-16 80 240 336> 112 96<101 219> 636 20G<114 206>
VStem: -16 96<0 99.6602> 240 96<0 99.6602>
LayerCount: 2
Fore
SplineSet
128 656 m 1
 192 656 l 1
 206 647 l 1
 240 579 336 260 336 0 c 1
 320 -16 l 1
 256 -16 l 1
 240 0 l 1
 240 32 237 71 233 112 c 1
 87 112 l 1
 82 69 80 32 80 0 c 1
 64 -16 l 1
 0 -16 l 1
 -16 0 l 1
 -16 260 80 579 114 647 c 1
 128 656 l 1
160 489 m 1
 136 401 115 299 101 208 c 1
 219 208 l 1
 205 301 184 402 160 489 c 1
EndSplineSet
Validated: 1
EndChar

StartChar: B
Encoding: 66 66 1
Width: 384
VWidth: 0
Flags: W
HStem: -16 96<80 223.696> 304 96<80 225.505> 560 96<80 223.696>
VStem: -16 96<80 304 400 560> 248 96<102.776 281.531 421.869 538.078>
LayerCount: 2
Fore
SplineSet
-0 656 m 1
 128 656 l 0
 252 656 344 603 344 480 c 0
 344 424 324 381 292 353 c 1
 327 319 344 268 344 192 c 0
 344 22 252 -16 128 -16 c 0
 0 -16 l 1
 -16 0 l 1
 -16 640 l 1
 -0 656 l 1
80 560 m 1
 80 400 l 1
 128 400 l 0
 193 400 248 407 248 480 c 0
 248 553 193 560 128 560 c 0
 80 560 l 1
80 304 m 1
 80 80 l 1
 128 80 l 0
 134 80 139 80 144 80 c 0
 206 80 248 84 248 192 c 0
 248 300 206 304 144 304 c 0
 139 304 134 304 128 304 c 0
 80 304 l 1
EndSplineSet
Validated: 1
EndChar

StartChar: C
Encoding: 67 67 2
Width: 384
VWidth: 0
Flags: W
HStem: -24 104<107.568 212.433> 560 104<107.568 212.433>
VStem: -24 104<112.146 527.854> 229 96<94.5 115 525 545.5>
LayerCount: 2
Fore
SplineSet
160 664 m 0
 254 664 303 617 325 544 c 1
 318 525 l 1
 253 488 l 1
 229 498 l 1
 219 542 202 560 160 560 c 0
 83 560 80 487 80 320 c 0
 80 153 83 80 160 80 c 0
 202 80 219 98 229 142 c 1
 253 152 l 1
 318 115 l 1
 325 96 l 1
 303 23 254 -24 160 -24 c 0
 -17 -24 -24 132 -24 320 c 0
 -24 508 -17 664 160 664 c 0
EndSplineSet
Validated: 1
EndChar

StartChar: I
Encoding: 73 73 3
Width: 384
VWidth: 0
Flags: W
HStem: -16 96<32 112 208 288> 560 96<32 112 208 288>
VStem: 112 96<80 560>
LayerCount: 2
Fore
SplineSet
32 656 m 1
 288 656 l 1
 304 640 l 1
 304 576 l 1
 288 560 l 1
 208 560 l 1
 208 80 l 1
 288 80 l 1
 304 64 l 1
 304 0 l 1
 288 -16 l 1
 32 -16 l 1
 16 0 l 1
 16 64 l 1
 32 80 l 1
 112 80 l 1
 112 560 l 1
 32 560 l 1
 16 576 l 1
 16 640 l 1
 32 656 l 1
EndSplineSet
Validated: 1
EndChar

StartChar: D
Encoding: 68 68 4
Width: 384
VWidth: 0
Flags: W
HStem: -16 21G<-16 124.5> 636 20G<-16 115>
VStem: -16 96<81 559> 240 104<193.398 449.25>
LayerCount: 2
Fore
SplineSet
-0 656 m 1
 64 656 l 0
 166 656 254 599 306 503 c 1
 306 502 l 1
 330 454 344 393 344 320 c 0
 344 88 185 -16 64 -16 c 0
 0 -16 l 1
 -16 0 l 1
 -16 640 l 1
 -0 656 l 1
80 559 m 1
 80 81 l 1
 185 90 240 186 240 320 c 0
 240 455 184 550 80 559 c 1
EndSplineSet
Validated: 1
EndChar

StartChar: E
Encoding: 69 69 5
Width: 384
VWidth: 0
Flags: W
HStem: -16 96<80 320> 304 96<80 256> 560 96<80 320>
VStem: -16 96<80 304 400 560>
LayerCount: 2
Fore
SplineSet
-0 656 m 1
 320 656 l 1
 336 640 l 1
 336 576 l 1
 320 560 l 1
 80 560 l 1
 80 400 l 1
 256 400 l 1
 272 384 l 1
 272 320 l 1
 256 304 l 1
 80 304 l 1
 80 80 l 1
 320 80 l 1
 336 64 l 1
 336 0 l 1
 320 -16 l 1
 0 -16 l 1
 -16 0 l 1
 -16 640 l 1
 -0 656 l 1
EndSplineSet
Validated: 1
EndChar

StartChar: F
Encoding: 70 70 6
Width: 384
VWidth: 0
Flags: W
HStem: -16 21G<-16 80> 304 96<80 256> 560 96<80 320>
VStem: -16 96<0 304 400 560>
LayerCount: 2
Fore
SplineSet
-0 656 m 1
 320 656 l 1
 336 640 l 1
 336 576 l 1
 320 560 l 1
 80 560 l 1
 80 400 l 1
 256 400 l 1
 272 384 l 1
 272 320 l 1
 256 304 l 1
 80 304 l 1
 80 0 l 1
 64 -16 l 1
 0 -16 l 1
 -16 0 l 1
 -16 640 l 1
 -0 656 l 1
EndSplineSet
Validated: 1
EndChar

StartChar: G
Encoding: 71 71 7
Width: 384
VWidth: 0
Flags: W
HStem: -24 104<107.568 213.403> -16 21G<247 336> 304 96<128 240> 560 104<107.81 210.25>
VStem: -24 104<112.146 527.854> 229 107<94.656 300.82> 240 96<109.169 304>
LayerCount: 2
Fore
SplineSet
247 -7 m 1x7a
 230 -14 211 -20 193 -22 c 0
 182 -23 172 -24 160 -24 c 0
 -17 -24 -24 132 -24 320 c 0
 -24 508 -17 664 160 664 c 0
 168 664 l 1
 257 661 304 615 325 544 c 1
 318 525 l 1
 253 488 l 1
 229 498 l 1
 219 542 202 560 160 560 c 0
 83 560 80 487 80 320 c 0
 80 153 83 80 160 80 c 0
 194 80 209 92 220 113 c 1
 224 121 227 130 229 141 c 1
 229 142 l 1xbc
 239 178 240 236 240 304 c 1
 128 304 l 1
 112 320 l 1
 112 384 l 1
 128 400 l 1
 320 400 l 1
 336 384 l 1
 336 0 l 1
 320 -16 l 1
 256 -16 l 1
 247 -7 l 1x7a
EndSplineSet
Validated: 1
EndChar

StartChar: H
Encoding: 72 72 8
Width: 384
VWidth: 0
Flags: W
HStem: -16 21G<-16 80 240 336> 304 96<80 240> 636 20G<-16 80 240 336>
VStem: -16 96<0 304 400 640> 240 96<0 304 400 640>
LayerCount: 2
Fore
SplineSet
-0 656 m 1
 64 656 l 1
 80 640 l 1
 80 400 l 1
 240 400 l 1
 240 640 l 1
 256 656 l 1
 320 656 l 1
 336 640 l 1
 336 0 l 1
 320 -16 l 1
 256 -16 l 1
 240 0 l 1
 240 304 l 1
 80 304 l 1
 80 0 l 1
 64 -16 l 1
 0 -16 l 1
 -16 0 l 1
 -16 640 l 1
 -0 656 l 1
EndSplineSet
Validated: 1
EndChar

StartChar: e
Encoding: 101 101 9
Width: 384
VWidth: 0
Flags: W
HStem: -24 104<100.536 218.123> 176 96<81 239> 368 104<101.12 219.464>
VStem: -24 105<103.652 176 272 344.348>
CounterMasks: 1 e0
LayerCount: 2
Fore
SplineSet
160 472 m 0
 301 472 344 354 344 224 c 0
 344 213 344 201 343 190 c 1
 327 176 l 1
 81 176 l 1
 85 116 96 80 160 80 c 0
 199 80 217 94 227 114 c 1
 245 122 l 1
 311 105 l 1
 322 84 l 1
 296 20 244 -24 160 -24 c 0
 19 -24 -24 94 -24 224 c 0
 -24 354 19 472 160 472 c 0
160 368 m 0
 96 368 85 331 81 272 c 1
 239 272 l 1
 235 332 224 368 160 368 c 0
EndSplineSet
Validated: 1
EndChar

StartChar: J
Encoding: 74 74 10
Width: 384
VWidth: 0
Flags: W
HStem: -24 104<108.352 212.995> 636 20G<240 336>
VStem: -14 99<104.457 156.752> 240 96<110.141 640>
LayerCount: 2
Fore
SplineSet
256 656 m 1
 320 656 l 1
 336 640 l 1
 336 320 l 0
 336 309 l 0
 336 141 334 -24 160 -24 c 0
 53 -24 5 42 -14 146 c 1
 -2 164 l 1
 65 182 l 1
 85 169 l 1
 94 105 112 80 160 80 c 0
 238 80 240 138 240 320 c 0
 240 640 l 1
 256 656 l 1
EndSplineSet
Validated: 1
EndChar

StartChar: K
Encoding: 75 75 11
Width: 384
VWidth: 0
Flags: W
HStem: -16 21G<-16 80 240 336> 636 20G<-16 80 240 336>
VStem: -16 96<0 267.219 363 640> 240 96<0 227.75 537.04 640>
LayerCount: 2
Fore
SplineSet
-0 656 m 1
 64 656 l 1
 80 640 l 1
 80 363 l 1
 152 410 240 545 240 608 c 0
 240 640 l 1
 256 656 l 1
 320 656 l 1
 336 640 l 1
 336 608 l 0
 336 543 292 466 244 401 c 1
 311 315 336 148 336 32 c 0
 336 0 l 1
 320 -16 l 1
 256 -16 l 1
 240 0 l 1
 240 32 l 0
 240 114 227 254 177 326 c 1
 142 292 108 266 80 258 c 1
 80 0 l 1
 64 -16 l 1
 0 -16 l 1
 -16 0 l 1
 -16 640 l 1
 -0 656 l 1
EndSplineSet
Validated: 1
EndChar

StartChar: L
Encoding: 76 76 12
Width: 384
VWidth: 0
Flags: W
HStem: -16 96<80 320> 636 20G<-16 80>
VStem: -16 96<80 640>
LayerCount: 2
Fore
SplineSet
-16 0 m 1
 -16 640 l 1
 0 656 l 1
 64 656 l 1
 80 640 l 1
 80 80 l 1
 320 80 l 1
 336 64 l 1
 336 0 l 1
 320 -16 l 1
 0 -16 l 1
 -16 0 l 1
EndSplineSet
Validated: 1
EndChar

StartChar: M
Encoding: 77 77 13
Width: 384
VWidth: 0
Flags: W
HStem: -16 21G<-16 80 240 336> 636 20G<-16 79 241 336>
VStem: -16 96<0 412> 240 96<0 412>
LayerCount: 2
Fore
SplineSet
-0 656 m 1
 64 656 l 1
 79 647 l 1
 160 470 l 1
 241 647 l 1
 256 656 l 1
 320 656 l 1
 336 640 l 1
 336 0 l 1
 320 -16 l 1
 256 -16 l 1
 240 0 l 1
 240 412 l 1
 174 281 l 1
 146 281 l 1
 80 412 l 1
 80 0 l 1
 64 -16 l 1
 0 -16 l 1
 -16 0 l 1
 -16 640 l 1
 -0 656 l 1
EndSplineSet
Validated: 1
EndChar

StartChar: N
Encoding: 78 78 14
Width: 384
VWidth: 0
Flags: W
HStem: -16 21G<-16 80 240 336> 636 20G<-16 78 240 336>
VStem: -16 96<0 454> 240 96<0 188 378 640>
LayerCount: 2
Fore
SplineSet
-0 656 m 1
 64 656 l 1
 78 648 l 1
 240 378 l 1
 240 640 l 1
 256 656 l 1
 320 656 l 1
 336 640 l 1
 336 0 l 1
 320 -16 l 1
 256 -16 l 1
 240 0 l 1
 240 188 l 1
 80 454 l 1
 80 0 l 1
 64 -16 l 1
 0 -16 l 1
 -16 0 l 1
 -16 640 l 1
 -0 656 l 1
EndSplineSet
Validated: 1
EndChar

StartChar: O
Encoding: 79 79 15
Width: 384
VWidth: 0
Flags: W
HStem: -24 104<107.568 212.432> 560 104<107.568 212.432>
VStem: -24 104<112.146 527.854> 240 104<112.146 527.854>
LayerCount: 2
Fore
SplineSet
160 664 m 0
 337 664 344 508 344 320 c 0
 344 132 337 -24 160 -24 c 0
 -17 -24 -24 132 -24 320 c 0
 -24 508 -17 664 160 664 c 0
160 560 m 0
 83 560 80 487 80 320 c 0
 80 153 83 80 160 80 c 0
 237 80 240 153 240 320 c 0
 240 487 237 560 160 560 c 0
EndSplineSet
Validated: 1
EndChar

StartChar: P
Encoding: 80 80 16
Width: 384
VWidth: 0
Flags: W
HStem: -16 21G<-16 80> 302 98<80 224.009> 560 96<80 223.496>
VStem: -16 96<0 303 400 560> 248 96<424.227 534.984>
LayerCount: 2
Fore
SplineSet
128 656 m 2
 200 656 344 639 344 480 c 0
 344 415 323 302 110 302 c 0
 100 302 89 302 80 303 c 1
 80 0 l 1
 64 -16 l 1
 0 -16 l 1
 -16 0 l 1
 -16 640 l 1
 0 656 l 1
 128 656 l 2
100 560 m 2
 80 560 l 1
 80 400 l 1
 103 400 l 0
 189 400 248 406 248 480 c 0
 248 555 187 560 100 560 c 2
EndSplineSet
Validated: 1
EndChar

StartChar: Q
Encoding: 81 81 17
Width: 384
VWidth: 0
Flags: W
HStem: -144 96<259.603 320> 560 104<107.568 212.432>
VStem: -24 104<111.322 527.854> 112 96<104.162 256> 240 104<110.43 527.854>
CounterMasks: 1 38
LayerCount: 2
Fore
SplineSet
160 664 m 0
 337 664 344 508 344 320 c 0
 344 167 341 38 244 -8 c 1
 260 -33 283 -48 320 -48 c 1
 336 -64 l 1
 336 -128 l 1
 320 -144 l 1
 256 -144 187 -127 148 -24 c 1
 -18 -16 -24 137 -24 320 c 0
 -24 508 -17 664 160 664 c 0
160 560 m 0
 83 560 80 487 80 320 c 0
 80 188 84 112 121 89 c 1
 115 136 112 190 112 256 c 1
 128 272 l 1
 192 272 l 1
 208 256 l 1
 208 202 208 148 213 102 c 1
 238 134 240 210 240 320 c 0
 240 487 237 560 160 560 c 0
EndSplineSet
Validated: 1
EndChar

StartChar: R
Encoding: 82 82 18
Width: 384
VWidth: 0
Flags: W
HStem: -16 21G<-16 80 239 335> 304 96<80 156> 560 96<80 223.496>
VStem: -16 96<0 304 400 560> 248 96<424.062 534.984>
LayerCount: 2
Fore
SplineSet
-0 656 m 1
 128 656 l 0
 200 656 344 639 344 480 c 0
 344 435 343 355 251 320 c 1
 335 4 l 1
 320 -16 l 1
 254 -16 l 1
 239 -4 l 1
 156 303 l 1
 150 303 146 302 140 302 c 0
 127 302 111 303 96 304 c 1
 80 304 l 1
 80 0 l 1
 64 -16 l 1
 0 -16 l 1
 -16 0 l 1
 -16 640 l 1
 -0 656 l 1
100 560 m 2
 80 560 l 1
 80 400 l 1
 103 400 l 0
 189 400 248 406 248 480 c 0
 248 555 187 560 100 560 c 2
EndSplineSet
Validated: 1
EndChar

StartChar: S
Encoding: 83 83 19
Width: 384
VWidth: 0
Flags: W
HStem: -24 104<105.222 213.027> 304 96<100.065 212.33> 560 104<98.1612 223.227>
VStem: -24 104<106.439 135.168 416.503 541.839> 240 104<106.059 275.058>
LayerCount: 2
Fore
SplineSet
160 664 m 0
 235 664 298 624 327 561 c 1
 316 539 l 1
 248 521 l 1
 230 528 l 1
 219 549 198 560 160 560 c 0
 104 560 80 536 80 480 c 0
 80 424 104 400 160 400 c 0
 282 400 344 310 344 192 c 0
 344 57 266 -24 160 -24 c 0
 72 -24 2 33 -18 128 c 1
 -6 146 l 1
 63 165 l 1
 83 153 l 1
 92 104 117 80 160 80 c 0
 212 80 240 116 240 192 c 0
 240 240 225 304 160 304 c 0
 56 304 -24 375 -24 480 c 0
 -24 585 55 664 160 664 c 0
EndSplineSet
Validated: 1
EndChar

StartChar: T
Encoding: 84 84 20
Width: 384
VWidth: 0
Flags: W
HStem: -16 21G<112 208> 560 96<0 112 208 320>
VStem: 112 96<0 560>
LayerCount: 2
Fore
SplineSet
-0 656 m 1
 320 656 l 1
 336 640 l 1
 336 576 l 1
 320 560 l 1
 208 560 l 1
 208 0 l 1
 192 -16 l 1
 128 -16 l 1
 112 0 l 1
 112 560 l 1
 0 560 l 1
 -16 576 l 1
 -16 640 l 1
 -0 656 l 1
EndSplineSet
Validated: 1
EndChar

StartChar: U
Encoding: 85 85 21
Width: 384
VWidth: 0
Flags: W
HStem: -24 104<107.687 212.313> 636 20G<-16 80 240 336>
VStem: -16 96<112.917 640> 240 96<112.917 640>
LayerCount: 2
Fore
SplineSet
-16 320 m 2
 -16 640 l 1
 0 656 l 1
 64 656 l 1
 80 640 l 1
 80 320 l 0
 80 295 79 269 79 243 c 0
 79 148 90 80 160 80 c 0
 230 80 241 148 241 243 c 0
 241 269 240 295 240 320 c 0
 240 640 l 1
 256 656 l 1
 320 656 l 1
 336 640 l 1
 336 320 l 0
 336 314 l 0
 336 130 335 -24 160 -24 c 0
 -15 -24 -16 130 -16 314 c 0
 -16 320 l 2
EndSplineSet
Validated: 1
EndChar

StartChar: V
Encoding: 86 86 22
Width: 384
VWidth: 0
Flags: W
HStem: -16 21G<116 204> 636 20G<-16 80 240 336>
VStem: -16 96<319.02 640> 240 96<319.357 640>
LayerCount: 2
Fore
SplineSet
-0 656 m 1
 64 656 l 1
 80 640 l 1
 80 576 l 0
 80 362 119 199 160 114 c 1
 201 200 240 362 240 576 c 0
 240 640 l 1
 256 656 l 1
 320 656 l 1
 336 640 l 1
 336 576 l 0
 336 334 273 76 204 -10 c 1
 192 -16 l 1
 128 -16 l 1
 116 -10 l 1
 47 76 -16 334 -16 576 c 0
 -16 640 l 1
 -0 656 l 1
EndSplineSet
Validated: 1
EndChar

StartChar: W
Encoding: 87 87 23
Width: 384
VWidth: 0
Flags: W
HStem: -16 21G<48 144 176 272> 636 20G<-16 80 240 336>
VStem: -16 96<210.026 640> 48 96<0 74.7721> 112 96<208.254 400> 176 96<0 74.7721> 240 96<210.026 640>
LayerCount: 2
Fore
SplineSet
-0 656 m 1xe0
 64 656 l 1
 80 640 l 1
 80 448 l 0
 80 334 88 258 97 206 c 1
 106 254 112 308 112 368 c 0
 112 400 l 1
 128 416 l 1
 192 416 l 1
 208 400 l 1
 208 368 l 0
 208 308 214 252 223 206 c 1
 233 260 240 334 240 448 c 0
 240 640 l 1
 256 656 l 1
 320 656 l 1
 336 640 l 1
 336 448 l 0xea
 336 159 272 55 272 0 c 1
 256 -16 l 1
 192 -16 l 1
 176 0 l 1
 176 30 169 52 160 79 c 1
 150 50 144 30 144 0 c 1
 128 -16 l 1
 64 -16 l 1
 48 0 l 1xd4
 48 55 -16 159 -16 448 c 0
 -16 640 l 1
 -0 656 l 1xe0
EndSplineSet
Validated: 1
EndChar

StartChar: X
Encoding: 88 88 24
Width: 384
VWidth: 0
Flags: W
HStem: -16 21G<-16 80 240 336> 636 20G<-16 80 240 336>
VStem: -16 96<0 131.755 508.617 640> 240 96<0 131.383 508.245 640>
LayerCount: 2
Fore
SplineSet
-0 656 m 1
 64 656 l 1
 80 640 l 1
 80 576 l 0
 80 541 114 477 160 405 c 1
 207 479 240 540 240 576 c 0
 240 640 l 1
 256 656 l 1
 320 656 l 1
 336 640 l 1
 336 576 l 0
 336 507 275 411 215 320 c 1
 276 227 336 133 336 64 c 0
 336 0 l 1
 320 -16 l 1
 256 -16 l 1
 240 0 l 1
 240 64 l 0
 240 99 206 163 160 235 c 1
 113 161 80 100 80 64 c 0
 80 0 l 1
 64 -16 l 1
 0 -16 l 1
 -16 0 l 1
 -16 64 l 0
 -16 133 45 229 105 320 c 1
 44 413 -16 507 -16 576 c 0
 -16 640 l 1
 -0 656 l 1
EndSplineSet
Validated: 1
EndChar

StartChar: Y
Encoding: 89 89 25
Width: 384
VWidth: 0
Flags: W
HStem: -16 21G<112 208> 636 20G<-16 80 240 336>
VStem: -16 96<486.977 640> 112 96<0 292.923> 240 96<486.907 640>
CounterMasks: 1 38
LayerCount: 2
Fore
SplineSet
-0 656 m 1
 64 656 l 1
 80 640 l 1
 80 576 l 0
 80 518 121 440 160 365 c 1
 199 441 240 517 240 576 c 0
 240 640 l 1
 256 656 l 1
 320 656 l 1
 336 640 l 1
 336 576 l 0
 336 474 241 317 208 252 c 1
 208 0 l 1
 192 -16 l 1
 128 -16 l 1
 112 0 l 1
 112 252 l 1
 78 318 -16 474 -16 576 c 0
 -16 640 l 1
 -0 656 l 1
EndSplineSet
Validated: 1
EndChar

StartChar: Z
Encoding: 90 90 26
Width: 384
VWidth: 0
Flags: W
HStem: -16 96<98 320> 560 96<0 222>
LayerCount: 2
Fore
SplineSet
-0 656 m 1
 320 656 l 1
 336 640 l 1
 336 576 l 1
 334 569 l 1
 98 80 l 1
 320 80 l 1
 336 64 l 1
 336 0 l 1
 320 -16 l 1
 0 -16 l 1
 -16 0 l 1
 -16 64 l 1
 -14 71 l 1
 222 560 l 1
 0 560 l 1
 -16 576 l 1
 -16 640 l 1
 -0 656 l 1
EndSplineSet
Validated: 1
EndChar

StartChar: a
Encoding: 97 97 27
Width: 384
VWidth: 0
Flags: W
HStem: -24 104<84.9918 239.491> -16 21G<245 336> 184 96<89.5772 240> 368 104<87.4187 223.497>
VStem: -24 104<86.7489 174.348> 240 96<87.1755 186 281.393 347.935>
LayerCount: 2
Fore
SplineSet
245 -5 m 1x7c
 214 -18 177 -24 152 -24 c 0xbc
 87 -24 -24 -6 -24 128 c 0
 -24 262 95 280 152 280 c 0
 209 280 235 282 240 284 c 1
 240 285 240 286 240 288 c 0
 240 344 216 368 160 368 c 0
 133 368 114 362 102 352 c 1
 84 350 l 1
 27 383 l 1
 22 407 l 1
 53 448 102 472 160 472 c 0
 265 472 336 392 336 288 c 0
 336 0 l 1
 320 -16 l 1
 256 -16 l 1
 245 -5 l 1x7c
240 186 m 1
 227 184 218 183 206 183 c 0
 187 183 167 184 152 184 c 0
 87 184 80 161 80 128 c 0
 80 91 91 80 152 80 c 0
 192 80 240 86 240 104 c 0
 240 186 l 1
EndSplineSet
Validated: 1
EndChar

StartChar: b
Encoding: 98 98 28
Width: 384
VWidth: 0
Flags: W
HStem: -24 104<102.441 219.046> -16 21G<-16 77> 368 104<102.553 219.046> 636 20G<-16 80>
VStem: -16 96<102.897 345.103 450 640> 240 104<102.614 345.386>
LayerCount: 2
Fore
SplineSet
-0 656 m 1x7c
 64 656 l 1
 80 640 l 1
 80 450 l 1
 105 465 130 472 160 472 c 0
 301 472 344 354 344 224 c 0
 344 94 301 -24 160 -24 c 0xbc
 130 -24 104 -18 77 -3 c 1
 64 -16 l 1
 0 -16 l 1
 -16 0 l 1
 -16 640 l 1
 -0 656 l 1x7c
160 368 m 0
 107 368 80 350 80 224 c 0
 80 98 107 80 160 80 c 0
 240 80 240 140 240 224 c 0
 240 308 240 368 160 368 c 0
EndSplineSet
Validated: 1
EndChar

StartChar: c
Encoding: 99 99 29
Width: 384
VWidth: 0
Flags: W
HStem: -24 104<100.954 218.006> 368 104<100.954 218.006>
VStem: -24 104<102.614 345.386>
LayerCount: 2
Fore
SplineSet
160 472 m 0
 257 472 310 414 331 335 c 1
 320 316 l 1
 254 298 l 1
 234 310 l 1
 226 346 210 368 160 368 c 0
 80 368 80 308 80 224 c 0
 80 140 80 80 160 80 c 0
 210 80 226 102 234 138 c 1
 254 150 l 1
 320 132 l 1
 331 113 l 1
 310 34 257 -24 160 -24 c 0
 19 -24 -24 94 -24 224 c 0
 -24 354 19 472 160 472 c 0
EndSplineSet
Validated: 1
EndChar

StartChar: d
Encoding: 100 100 30
Width: 384
VWidth: 0
Flags: W
HStem: -24 104<100.954 217.216> -16 21G<243 336> 368 104<100.954 217.667> 636 20G<240 336>
VStem: -24 104<102.614 345.386> 240 96<102.897 345.103 450 640>
LayerCount: 2
Fore
SplineSet
336 640 m 1xbc
 336 0 l 1
 320 -16 l 1
 256 -16 l 1x7c
 243 -3 l 1
 214 -19 191 -24 160 -24 c 0
 19 -24 -24 94 -24 224 c 0
 -24 354 19 472 160 472 c 0
 190 472 216 464 240 450 c 1
 240 640 l 1
 256 656 l 1
 320 656 l 1
 336 640 l 1xbc
160 368 m 0
 80 368 80 308 80 224 c 0
 80 140 80 80 160 80 c 0xbc
 213 80 240 98 240 224 c 0
 240 350 213 368 160 368 c 0
EndSplineSet
Validated: 1
EndChar

StartChar: f
Encoding: 102 102 31
Width: 384
VWidth: 0
Flags: W
HStem: -16 21G<48 144> 240 96<0 48 144 256> 560 104<163.755 285.04>
VStem: 48 96<0 240 336 538.281>
LayerCount: 2
Fore
SplineSet
224 664 m 0
 289 664 346 632 379 574 c 1
 373 552 l 1
 315 519 l 1
 293 526 l 1
 283 546 266 560 224 560 c 0
 170 560 144 540 144 448 c 0
 144 336 l 1
 256 336 l 1
 272 320 l 1
 272 256 l 1
 256 240 l 1
 144 240 l 1
 144 0 l 1
 128 -16 l 1
 64 -16 l 1
 48 0 l 1
 48 240 l 1
 0 240 l 1
 -16 256 l 1
 -16 320 l 1
 0 336 l 1
 48 336 l 1
 48 448 l 0
 48 582 117 664 224 664 c 0
EndSplineSet
Validated: 1
EndChar

StartChar: g
Encoding: 103 103 32
Width: 384
VWidth: 0
Flags: W
HStem: -216 104<101.138 218.904> -24 104<102.717 219.591> 368 104<102.717 221.775> 444 20G<242 336>
VStem: -24 104<101.647 346.353> 240 96<-89.0156 -2 99.5623 350.79>
LayerCount: 2
Fore
SplineSet
160 472 m 0xec
 186 472 212 468 242 450 c 1
 256 464 l 1
 320 464 l 1xdc
 336 448 l 1
 336 0 l 0
 336 -131 299 -216 160 -216 c 0
 53 -216 3 -165 -11 -78 c 1
 1 -60 l 1
 65 -42 l 1
 85 -53 l 1
 95 -98 116 -112 160 -112 c 0
 214 -112 239 -90 240 -2 c 1
 215 -19 191 -24 160 -24 c 0
 56 -24 -24 26 -24 224 c 0
 -24 422 56 472 160 472 c 0xec
160 368 m 0xec
 80 368 80 308 80 224 c 0
 80 140 80 80 160 80 c 0
 227 80 240 121 240 192 c 0
 240 256 l 0
 240 335 228 368 160 368 c 0xec
EndSplineSet
Validated: 1
EndChar

StartChar: u
Encoding: 117 117 33
Width: 384
VWidth: 0
Flags: W
HStem: -24 104<113.155 206.637> -16 21G<240 336> 444 20G<-16 80 240 336>
VStem: -16 96<120.842 448> 240 96<118.867 448>
LayerCount: 2
Fore
SplineSet
160 -24 m 0xb8
 71 -24 -16 26 -16 224 c 0
 -16 448 l 1
 0 464 l 1
 64 464 l 1
 80 448 l 1
 80 224 l 0
 80 129 111 80 160 80 c 0xb8
 222 80 240 163 240 224 c 0
 240 448 l 1
 256 464 l 1
 320 464 l 1
 336 448 l 1
 336 0 l 1
 320 -16 l 1
 256 -16 l 1x78
 240 0 l 1
 240 0 170 -24 160 -24 c 0xb8
EndSplineSet
Validated: 1
EndChar

StartChar: v
Encoding: 118 118 34
Width: 384
VWidth: 0
Flags: W
HStem: -16 21G<112 208> 444 20G<-16 80 240 336>
VStem: -16 96<294.293 448> 240 96<294.194 448>
LayerCount: 2
Fore
SplineSet
-0 464 m 1
 64 464 l 1
 80 448 l 1
 80 384 l 0
 80 334 124 232 160 146 c 1
 197 233 240 333 240 384 c 0
 240 448 l 1
 256 464 l 1
 320 464 l 1
 336 448 l 1
 336 384 l 0
 336 252 210 24 208 0 c 1
 192 -16 l 1
 128 -16 l 1
 112 0 l 1
 110 25 -16 252 -16 384 c 0
 -16 448 l 1
 -0 464 l 1
EndSplineSet
Validated: 1
EndChar

StartChar: w
Encoding: 119 119 35
Width: 384
VWidth: 0
Flags: W
HStem: -16 21G<48 144 176 272> 444 20G<-16 80 240 336>
VStem: -16 96<178.666 448> 48 96<0 45.7864> 112 96<177.02 320> 176 96<0 44.7984> 240 96<182.083 448>
LayerCount: 2
Fore
SplineSet
-0 464 m 1xe0
 64 464 l 1
 80 448 l 1
 80 416 l 0
 80 305 88 228 98 175 c 1
 106 218 112 267 112 320 c 1
 128 336 l 1
 192 336 l 1
 208 320 l 1
 208 267 214 216 222 175 c 1
 232 230 240 305 240 416 c 0
 240 448 l 1
 256 464 l 1
 320 464 l 1
 336 448 l 1
 336 416 l 0xea
 336 64 272 50 272 0 c 1
 256 -16 l 1
 192 -16 l 1
 176 0 l 1
 176 2 168 23 160 47 c 1
 151 21 144 2 144 0 c 1
 128 -16 l 1
 64 -16 l 1
 48 0 l 1xd4
 48 48 -12 64 -16 384 c 1
 -16 448 l 1
 -0 464 l 1xe0
EndSplineSet
Validated: 1
EndChar

StartChar: h
Encoding: 104 104 36
Width: 384
VWidth: 0
Flags: W
HStem: -16 21G<-16 80 240 336> 368 104<105.579 217.692> 636 20G<-16 80>
VStem: -16 96<0 340.919 452 640> 240 96<0 343.338>
LayerCount: 2
Fore
SplineSet
-0 656 m 1
 64 656 l 1
 80 640 l 1
 80 452 l 1
 109 468 136 472 160 472 c 0
 336 472 336 317 336 224 c 0
 336 0 l 1
 320 -16 l 1
 256 -16 l 1
 240 0 l 1
 240 224 l 0
 240 350 213 368 160 368 c 0
 115 368 80 349 80 224 c 0
 80 0 l 1
 64 -16 l 1
 0 -16 l 1
 -16 0 l 1
 -16 640 l 1
 -0 656 l 1
EndSplineSet
Validated: 1
EndChar

StartChar: i
Encoding: 105 105 37
Width: 384
VWidth: 0
Flags: W
HStem: -16 96<32 112 208 288> 368 96<64 112> 488 112<115.104 204.896>
VStem: 104 112<499.104 588.896> 112 96<80 368>
LayerCount: 2
Fore
SplineSet
160 600 m 0xf0
 191 600 216 575 216 544 c 0
 216 513 191 488 160 488 c 0
 129 488 104 513 104 544 c 0
 104 575 129 600 160 600 c 0xf0
64 464 m 1
 192 464 l 1
 208 448 l 1
 208 80 l 1
 288 80 l 1
 304 64 l 1
 304 0 l 1
 288 -16 l 1
 32 -16 l 1
 16 0 l 1
 16 64 l 1
 32 80 l 1
 112 80 l 1
 112 368 l 1xe8
 64 368 l 1
 48 384 l 1
 48 448 l 1
 64 464 l 1
EndSplineSet
Validated: 1
EndChar

StartChar: j
Encoding: 106 106 38
Width: 384
VWidth: 0
Flags: W
HStem: -216 104<72.3674 187.641> 368 96<96 208> 488 112<147.104 236.896>
VStem: 136 112<499.104 588.896> 208 96<-90.2812 368>
LayerCount: 2
Fore
SplineSet
192 600 m 0xf0
 223 600 248 575 248 544 c 0
 248 513 223 488 192 488 c 0
 161 488 136 513 136 544 c 0
 136 575 161 600 192 600 c 0xf0
96 464 m 1
 288 464 l 1
 304 448 l 1
 304 0 l 0
 304 -134 235 -216 128 -216 c 0
 46 -216 -22 -171 -46 -80 c 1
 -35 -61 l 1
 34 -42 l 1
 54 -53 l 1
 63 -88 81 -112 128 -112 c 0
 195 -112 208 -71 208 0 c 0
 208 368 l 1xe8
 96 368 l 1
 80 384 l 1
 80 448 l 1
 96 464 l 1
EndSplineSet
Validated: 1
EndChar

StartChar: k
Encoding: 107 107 39
Width: 384
VWidth: 0
Flags: W
HStem: -16 21G<-16 80 240 336> 444 20G<240 336> 636 20G<-16 80>
VStem: -16 96<0 130.323 219 640> 240 96<0 120.498 381.806 448>
LayerCount: 2
Fore
SplineSet
-0 656 m 1
 64 656 l 1
 80 640 l 1
 80 219 l 1
 134 261 240 381 240 448 c 1
 256 464 l 1
 320 464 l 1
 336 448 l 1
 336 388 293 321 246 265 c 1
 288 209 336 118 336 0 c 1
 320 -16 l 1
 256 -16 l 1
 240 0 l 1
 240 82 210 150 178 195 c 1
 135 154 100 127 80 117 c 1
 80 0 l 1
 64 -16 l 1
 0 -16 l 1
 -16 0 l 1
 -16 640 l 1
 -0 656 l 1
EndSplineSet
Validated: 1
EndChar

StartChar: l
Encoding: 108 108 40
Width: 384
VWidth: 0
Flags: W
HStem: -16 96<216.152 288> 560 96<32 112>
VStem: 112 96<85.9374 560>
LayerCount: 2
Fore
SplineSet
32 656 m 1
 192 656 l 1
 208 640 l 1
 208 160 l 0
 208 85 221 80 265 80 c 0
 272 80 279 80 288 80 c 1
 304 64 l 1
 304 0 l 1
 288 -16 l 1
 151 -16 112 59 112 160 c 0
 112 560 l 1
 32 560 l 1
 16 576 l 1
 16 640 l 1
 32 656 l 1
EndSplineSet
Validated: 1
EndChar

StartChar: m
Encoding: 109 109 41
Width: 384
VWidth: 0
Flags: W
HStem: -16 21G<-16 80 112 208 240 336> 452 12G<-16 73 105 129.5 227 287.5>
VStem: -16 96<0 363.656> 112 96<0 363.312> 240 96<0 366.18>
CounterMasks: 1 38
LayerCount: 2
Fore
SplineSet
73 455 m 1
 83 464 98 472 112 472 c 0
 147 472 172 459 187 437 c 1
 199 455 214 472 240 472 c 0
 335 472 336 384 336 324 c 0
 336 320 l 0
 336 0 l 1
 320 -16 l 1
 256 -16 l 1
 240 0 l 1
 240 320 l 0
 240 340 239 360 237 367 c 1
 229 364 218 355 208 342 c 1
 208 0 l 1
 192 -16 l 1
 128 -16 l 1
 112 0 l 1
 112 320 l 0
 112 340 111 360 109 367 c 1
 101 364 90 355 80 342 c 1
 80 0 l 1
 64 -16 l 1
 0 -16 l 1
 -16 0 l 1
 -16 448 l 1
 0 464 l 1
 64 464 l 1
 73 455 l 1
EndSplineSet
Validated: 1
EndChar

StartChar: n
Encoding: 110 110 42
Width: 384
VWidth: 0
Flags: W
HStem: -16 21G<-16 80 240 336> 368 104<113.363 206.845> 444 20G<-16 80>
VStem: -16 96<0 329.133> 240 96<0 327.158>
LayerCount: 2
Fore
SplineSet
160 472 m 0xd8
 249 472 336 422 336 224 c 0
 336 0 l 1
 320 -16 l 1
 256 -16 l 1
 240 0 l 1
 240 224 l 0
 240 319 209 368 160 368 c 0xd8
 98 368 80 285 80 224 c 0
 80 0 l 1
 64 -16 l 1
 0 -16 l 1
 -16 0 l 1
 -16 448 l 1
 0 464 l 1
 64 464 l 1xb8
 80 448 l 1
 80 448 150 472 160 472 c 0xd8
EndSplineSet
Validated: 1
EndChar

StartChar: o
Encoding: 111 111 43
Width: 384
VWidth: 0
Flags: W
HStem: -24 104<100.954 219.046> 368 104<100.954 219.046>
VStem: -24 104<102.614 345.386> 240 104<102.614 345.386>
LayerCount: 2
Fore
SplineSet
160 472 m 0
 301 472 344 354 344 224 c 0
 344 94 301 -24 160 -24 c 0
 19 -24 -24 94 -24 224 c 0
 -24 354 19 472 160 472 c 0
160 368 m 0
 80 368 80 308 80 224 c 0
 80 140 80 80 160 80 c 0
 240 80 240 140 240 224 c 0
 240 308 240 368 160 368 c 0
EndSplineSet
Validated: 1
EndChar

StartChar: p
Encoding: 112 112 44
Width: 384
VWidth: 0
Flags: W
HStem: -24 104<100.778 217.283> 368 104<97.7594 217.283> 444 20G<-16 78>
VStem: -16 96<-192 -2 99.5623 350.79> 240 104<101.647 346.353>
LayerCount: 2
Fore
SplineSet
160 472 m 0xd8
 264 472 344 422 344 224 c 0
 344 26 264 -24 160 -24 c 0
 129 -24 104 -18 80 -2 c 1
 80 -192 l 1
 64 -208 l 1
 0 -208 l 1
 -16 -192 l 1
 -16 448 l 1
 0 464 l 1
 64 464 l 1xb8
 78 450 l 1
 109 469 134 472 160 472 c 0xd8
160 368 m 0xd8
 92 368 80 335 80 256 c 0
 80 192 l 0
 80 121 93 80 160 80 c 0
 240 80 240 140 240 224 c 0
 240 308 240 368 160 368 c 0xd8
EndSplineSet
Validated: 1
EndChar

StartChar: q
Encoding: 113 113 45
Width: 384
VWidth: 0
Flags: W
HStem: -24 104<102.717 219.591> 368 104<102.717 221.775> 444 20G<242 336>
VStem: -24 104<101.647 346.353> 240 96<-192 -2 99.5623 350.79>
LayerCount: 2
Fore
SplineSet
160 472 m 0xd8
 186 472 212 468 242 450 c 1
 256 464 l 1
 320 464 l 1xb8
 336 448 l 1
 336 -192 l 1
 320 -208 l 1
 256 -208 l 1
 240 -192 l 1
 240 -2 l 1
 215 -19 191 -24 160 -24 c 0
 56 -24 -24 26 -24 224 c 0
 -24 422 56 472 160 472 c 0xd8
160 368 m 0xd8
 80 368 80 308 80 224 c 0
 80 140 80 80 160 80 c 0
 227 80 240 121 240 192 c 0
 240 256 l 0
 240 335 228 368 160 368 c 0xd8
EndSplineSet
Validated: 1
EndChar

StartChar: r
Encoding: 114 114 46
Width: 384
VWidth: 0
Flags: W
HStem: -16 21G<-16 80> 368 104<97.7594 217.562> 444 20G<-16 78>
VStem: -16 96<0 350.79>
LayerCount: 2
Fore
SplineSet
160 472 m 0xd0
 238 472 309 444 334 335 c 1
 322 316 l 1
 254 298 l 1
 234 310 l 1
 226 346 210 368 160 368 c 0xd0
 92 368 80 335 80 256 c 0
 80 0 l 1
 64 -16 l 1
 0 -16 l 1
 -16 0 l 1
 -16 448 l 1
 0 464 l 1
 64 464 l 1xb0
 78 450 l 1
 109 469 134 472 160 472 c 0xd0
EndSplineSet
Validated: 1
EndChar

StartChar: s
Encoding: 115 115 47
Width: 384
VWidth: 0
Flags: W
HStem: -24 104<96.7303 230.32> 176 96<89.9182 230.082> 368 104<89.6797 222.764>
VStem: -24 104<280.097 356.529> 240 104<91.4713 167.903>
CounterMasks: 1 e0
LayerCount: 2
Fore
SplineSet
160 472 m 0
 237 472 305 445 332 368 c 1
 321 348 l 1
 248 329 l 1
 230 336 l 1
 219 357 198 368 160 368 c 0
 93 368 80 341 80 320 c 0
 80 285 97 272 160 272 c 0
 303 272 344 200 344 128 c 0
 344 38 278 -24 160 -24 c 0
 83 -24 15 3 -12 80 c 1
 -1 100 l 1
 72 119 l 1
 90 111 l 1
 100 91 122 80 160 80 c 0
 227 80 240 107 240 128 c 0
 240 163 223 176 160 176 c 0
 17 176 -24 248 -24 320 c 0
 -24 410 42 472 160 472 c 0
EndSplineSet
Validated: 1
EndChar

StartChar: t
Encoding: 116 116 48
Width: 384
VWidth: 0
Flags: W
HStem: -24 104<163.755 295.522> 368 96<0 48 144 320> 636 20G<48 144>
VStem: 48 96<101.719 368 464 640>
LayerCount: 2
Fore
SplineSet
64 656 m 1
 128 656 l 1
 144 640 l 1
 144 464 l 1
 320 464 l 1
 336 448 l 1
 336 384 l 1
 320 368 l 1
 144 368 l 1
 144 192 l 0
 144 100 170 80 224 80 c 0
 251 80 268 86 278 95 c 1
 299 94 l 1
 347 46 l 1
 347 23 l 1
 314 -8 272 -24 224 -24 c 0
 117 -24 48 58 48 192 c 0
 48 368 l 1
 0 368 l 1
 -16 384 l 1
 -16 448 l 1
 0 464 l 1
 48 464 l 1
 48 640 l 1
 64 656 l 1
EndSplineSet
Validated: 1
EndChar

StartChar: x
Encoding: 120 120 49
Width: 384
VWidth: 0
Flags: W
HStem: -16 21G<-16 80 240 336> 444 20G<-16 80 240 336>
VStem: -16 96<0 98.1234 342.354 448> 240 96<0 97.5382 342.152 448>
LayerCount: 2
Fore
SplineSet
-0 464 m 1
 64 464 l 1
 80 448 l 1
 80 416 l 0
 80 357 113 320 160 282 c 1
 208 321 240 357 240 416 c 0
 240 448 l 1
 256 464 l 1
 320 464 l 1
 336 448 l 1
 336 416 l 0
 336 329 286 270 234 223 c 1
 286 179 332 123 336 32 c 1
 336 0 l 1
 320 -16 l 1
 256 -16 l 1
 240 0 l 1
 240 32 l 0
 240 83 207 121 160 161 c 1
 112 120 80 83 80 32 c 0
 80 0 l 1
 64 -16 l 1
 0 -16 l 1
 -16 0 l 1
 -16 32 l 1
 -12 124 35 180 86 223 c 1
 32 271 -16 329 -16 416 c 0
 -16 448 l 1
 -0 464 l 1
EndSplineSet
Validated: 1
EndChar

StartChar: y
Encoding: 121 121 50
Width: 384
VWidth: 0
Flags: W
HStem: -216 104<101.138 218.904> -24 104<102.529 219.591> 444 20G<-16 80 240 336>
VStem: -16 96<-89.9955 -70.4104 101.576 448> 240 96<-89.0156 -2 99.5623 448>
LayerCount: 2
Fore
SplineSet
-16 224 m 2
 -16 448 l 1
 0 464 l 1
 64 464 l 1
 80 448 l 1
 80 224 l 0
 80 140 80 80 160 80 c 0
 227 80 240 121 240 192 c 0
 240 448 l 1
 256 464 l 1
 320 464 l 1
 336 448 l 1
 336 0 l 0
 336 -131 299 -216 160 -216 c 0
 53 -216 3 -165 -11 -78 c 1
 1 -60 l 1
 65 -42 l 1
 85 -53 l 1
 95 -98 116 -112 160 -112 c 0
 214 -112 239 -90 240 -2 c 1
 215 -19 191 -24 160 -24 c 0
 53 -24 -16 52 -16 224 c 2
EndSplineSet
Validated: 1
EndChar

StartChar: z
Encoding: 122 122 51
Width: 384
VWidth: 0
Flags: W
HStem: -16 96<112 320> 368 96<0 208>
LayerCount: 2
Fore
SplineSet
-0 464 m 1
 320 464 l 1
 336 448 l 1
 336 384 l 1
 333 374 l 1
 112 80 l 1
 320 80 l 1
 336 64 l 1
 336 0 l 1
 320 -16 l 1
 0 -16 l 1
 -16 0 l 1
 -16 64 l 1
 -13 74 l 1
 208 368 l 1
 0 368 l 1
 -16 384 l 1
 -16 448 l 1
 -0 464 l 1
EndSplineSet
Validated: 1
EndChar

StartChar: zero
Encoding: 48 48 52
Width: 384
VWidth: 0
Flags: W
HStem: -24 21G<103.5 216.5> 644 20G<103.5 216.5>
VStem: -24 104<170.567 401.432> 240 104<238.568 469.433>
LayerCount: 2
Fore
SplineSet
160 664 m 0
 273 664 344 512 344 320 c 0
 344 128 273 -24 160 -24 c 0
 47 -24 -24 128 -24 320 c 0
 -24 512 47 664 160 664 c 0
160 560 m 0
 155 560 151 559 146 556 c 1
 233 234 l 1
 238 265 240 295 240 320 c 0
 240 421 202 560 160 560 c 0
87 406 m 1
 82 375 80 345 80 320 c 0
 80 219 118 80 160 80 c 0
 165 80 169 81 174 84 c 1
 87 406 l 1
EndSplineSet
Validated: 1
EndChar

StartChar: one
Encoding: 49 49 53
Width: 384
VWidth: 0
Flags: W
HStem: -16 96<0 112 208 320> 636 20G<115 208>
VStem: 112 96<80 472>
LayerCount: 2
Fore
SplineSet
128 656 m 1
 192 656 l 1
 208 640 l 1
 208 80 l 1
 320 80 l 1
 336 64 l 1
 336 0 l 1
 320 -16 l 1
 0 -16 l 1
 -16 0 l 1
 -16 64 l 1
 0 80 l 1
 112 80 l 1
 112 472 l 1
 66 403 l 1
 44 399 l 1
 -9 435 l 1
 -13 457 l 1
 115 649 l 1
 128 656 l 1
EndSplineSet
Validated: 1
EndChar

StartChar: two
Encoding: 50 50 54
Width: 384
VWidth: 0
Flags: W
HStem: -16 96<81 320> 560 104<103.47 216.791>
VStem: 240 104<390.604 535.07>
LayerCount: 2
Fore
SplineSet
160 664 m 0
 266 664 344 583 344 448 c 0
 344 262 96 238 81 80 c 1
 320 80 l 1
 336 64 l 1
 336 0 l 1
 320 -16 l 1
 0 -16 l 1
 -16 0 l 1
 -16 64 l 0
 -16 333 240 310 240 448 c 0
 240 511 226 560 160 560 c 0
 113 560 95 536 86 501 c 1
 63 491 l 1
 44 500 18 503 -2 509 c 1
 -13 528 l 1
 12 614 73 664 160 664 c 0
EndSplineSet
Validated: 1
EndChar

StartChar: three
Encoding: 51 51 55
Width: 384
VWidth: 0
Flags: W
HStem: -24 104<108.379 210.282> 296 104<160 217.686> 560 104<101.826 216.829>
VStem: -17 102<102.307 138.252 518.346 539.954> 240 104<109.912 276.502 422.062 537.037>
LayerCount: 2
Fore
SplineSet
160 664 m 0
 265 664 344 585 344 480 c 0
 344 428 324 382 292 349 c 1
 326 315 344 267 344 208 c 0
 344 110 302 -24 160 -24 c 0
 53 -24 1 46 -17 129 c 1
 -5 147 l 1
 65 166 l 1
 85 154 l 1
 94 110 113 80 160 80 c 0
 224 80 240 143 240 208 c 0
 240 266 215 296 160 296 c 1
 144 312 l 1
 144 384 l 1
 160 400 l 1
 214 400 240 439 240 480 c 0
 240 521 214 560 160 560 c 0
 116 560 90 534 82 502 c 1
 63 491 l 1
 -6 510 l 1
 -18 529 l 1
 2 608 73 664 160 664 c 0
EndSplineSet
Validated: 1
EndChar

StartChar: four
Encoding: 52 52 56
Width: 384
VWidth: 0
Flags: W
HStem: -16 21G<176 272> 176 96<98 176 272 320> 636 20G<178 272>
VStem: 176 96<0 176 272 429>
LayerCount: 2
Fore
SplineSet
192 656 m 1
 256 656 l 1
 272 640 l 1
 272 272 l 1
 320 272 l 1
 336 256 l 1
 336 192 l 1
 320 176 l 1
 272 176 l 1
 272 0 l 1
 256 -16 l 1
 192 -16 l 1
 176 0 l 1
 176 176 l 1
 0 176 l 1
 -16 192 l 1
 -16 256 l 1
 -14 263 l 1
 178 647 l 1
 192 656 l 1
176 429 m 1
 98 272 l 1
 176 272 l 1
 176 429 l 1
EndSplineSet
Validated: 1
EndChar

StartChar: five
Encoding: 53 53 57
Width: 384
VWidth: 0
Flags: W
HStem: -24 104<103.645 217.589> 368 104<112.843 214.518> 560 96<112 288>
VStem: 16 96<457 560> 240 104<192 341.977>
LayerCount: 2
Fore
SplineSet
343 191 m 1
 329 42 243 -24 160 -24 c 0
 98 -24 30 12 -3 96 c 1
 4 116 l 1
 64 150 l 1
 88 140 l 1
 99 90 119 80 160 80 c 0
 213 80 240 98 240 224 c 0
 240 350 213 368 160 368 c 0
 156 368 152 368 148 368 c 0
 126 368 121 367 110 345 c 1
 96 336 l 1
 32 336 l 1
 16 352 l 1
 16 640 l 1
 32 656 l 1
 288 656 l 1
 304 640 l 1
 304 576 l 1
 288 560 l 1
 112 560 l 1
 112 457 l 1
 130 468 147 472 160 472 c 0
 250 472 344 398 344 224 c 0
 344 192 l 1
 343 191 l 1
EndSplineSet
Validated: 1
EndChar

StartChar: six
Encoding: 54 54 58
Width: 384
VWidth: 0
Flags: W
HStem: -24 104<109.144 210.856> 368 104<109.218 210.856> 560 104<109.913 224.301>
VStem: -24 104<113.451 333.156> 240 104<113.451 334.549>
LayerCount: 2
Fore
SplineSet
160 664 m 0
 208 664 254 646 287 590 c 1
 281 568 l 1
 231 539 l 1
 210 543 l 1
 199 556 187 560 160 560 c 0
 117 560 99 551 88 454 c 1
 112 466 136 472 160 472 c 0
 251 472 344 390 344 224 c 0
 344 58 251 -24 160 -24 c 0
 69 -24 -24 58 -24 224 c 0
 -24 575 49 664 160 664 c 0
160 368 m 0
 123 368 80 348 80 224 c 0
 80 100 123 80 160 80 c 0
 197 80 240 100 240 224 c 0
 240 348 197 368 160 368 c 0
EndSplineSet
Validated: 1
EndChar

StartChar: seven
Encoding: 55 55 59
Width: 384
VWidth: 0
Flags: W
HStem: -16 21G<48 144> 560 96<0 239>
VStem: 48 96<0 148.25>
LayerCount: 2
Fore
SplineSet
-0 656 m 1
 320 656 l 1
 336 640 l 1
 336 576 l 0
 336 438 144 182 144 64 c 0
 144 0 l 1
 128 -16 l 1
 64 -16 l 1
 48 0 l 1
 48 64 l 0
 48 196 224 437 239 560 c 1
 0 560 l 1
 -16 576 l 1
 -16 640 l 1
 -0 656 l 1
EndSplineSet
Validated: 1
EndChar

StartChar: eight
Encoding: 56 56 60
Width: 384
VWidth: 0
Flags: W
HStem: -24 104<109.862 210.282> 296 104<102.314 217.686> 560 104<103.171 216.829>
VStem: -24 104<111.318 276.656 422.201 537.037> 240 104<109.912 276.502 422.062 537.037>
LayerCount: 2
Fore
SplineSet
160 664 m 0
 265 664 344 585 344 480 c 0
 344 428 324 382 292 349 c 1
 326 315 344 267 344 208 c 0
 344 110 302 -24 160 -24 c 0
 19 -24 -24 94 -24 208 c 0
 -24 267 -4 316 28 349 c 1
 -5 383 -24 428 -24 480 c 0
 -24 585 55 664 160 664 c 0
160 560 m 0
 106 560 80 521 80 480 c 0
 80 439 106 400 160 400 c 0
 214 400 240 439 240 480 c 0
 240 521 214 560 160 560 c 0
160 296 m 0
 105 296 80 266 80 208 c 0
 80 143 96 80 160 80 c 0
 224 80 240 143 240 208 c 0
 240 266 215 296 160 296 c 0
EndSplineSet
Validated: 1
EndChar

StartChar: nine
Encoding: 57 57 61
Width: 384
VWidth: 0
Flags: W
HStem: -24 104<95.6986 210.087> 168 104<109.144 210.782> 560 104<109.144 210.856>
VStem: -24 104<305.451 526.549> 240 104<306.844 526.549>
LayerCount: 2
Fore
SplineSet
160 -24 m 0
 112 -24 66 -6 33 50 c 1
 39 72 l 1
 89 101 l 1
 110 97 l 1
 121 84 133 80 160 80 c 0
 203 80 221 89 232 186 c 1
 208 174 184 168 160 168 c 0
 69 168 -24 250 -24 416 c 0
 -24 582 69 664 160 664 c 0
 251 664 344 582 344 416 c 0
 344 65 271 -24 160 -24 c 0
160 272 m 0
 197 272 240 292 240 416 c 0
 240 540 197 560 160 560 c 0
 123 560 80 540 80 416 c 0
 80 292 123 272 160 272 c 0
EndSplineSet
Validated: 1
EndChar

StartChar: dollar
Encoding: 36 36 62
Width: 384
VWidth: 0
Flags: W
VStem: -24 104<106.987 135.168 417.711 542.589> 112 96<-64 -12.0796 96 287 410 550 651.233 704> 240 104<108.072 275.26>
CounterMasks: 1 e0
LayerCount: 2
Fore
SplineSet
128 720 m 1
 192 720 l 1
 208 704 l 1
 208 658 l 1
 262 645 305 610 327 561 c 1
 316 539 l 1
 248 521 l 1
 230 529 l 1
 225 538 217 545 208 550 c 1
 208 395 l 1
 300 374 344 292 344 192 c 0
 344 79 290 3 208 -18 c 1
 208 -64 l 1
 192 -80 l 1
 128 -80 l 1
 112 -64 l 1
 112 -18 l 1
 47 -2 -1 51 -18 128 c 1
 -6 146 l 1
 63 165 l 1
 83 153 l 1
 88 126 99 106 112 95 c 1
 112 309 l 1
 31 328 -24 392 -24 480 c 0
 -24 568 32 638 112 658 c 1
 112 704 l 1
 128 720 l 1
112 550 m 1
 91 538 80 518 80 480 c 0
 80 442 92 421 112 410 c 1
 112 550 l 1
208 287 m 1
 208 96 l 1
 228 113 240 144 240 192 c 0
 240 223 231 265 208 287 c 1
EndSplineSet
Validated: 1
EndChar

StartChar: ampersand
Encoding: 38 38 63
Width: 384
VWidth: 0
Flags: W
HStem: -24 104<104.46 187.592> -16 21G<240 336> 644 20G<121 199>
VStem: -16 96<103.53 227.619> 48 96<447.996 551.099> 176 96<447.656 551.1> 240 96<0 11 289.307 352>
LayerCount: 2
Fore
SplineSet
160 664 m 0xa8
 238 664 272 585 272 528 c 0xac
 272 449 240 390 204 343 c 1
 216 323 227 305 238 288 c 1
 240 316 240 336 240 352 c 1
 256 368 l 1
 320 368 l 1
 336 352 l 1
 336 286 330 211 314 148 c 1
 328 111 336 74 336 32 c 0
 336 0 l 1
 320 -16 l 1
 256 -16 l 1x62
 240 0 l 1
 240 11 l 1
 214 -11 182 -24 144 -24 c 0xaa
 37 -24 -16 60 -16 176 c 0xb0
 -16 248 37 300 83 349 c 1
 62 400 48 457 48 528 c 0
 48 585 82 664 160 664 c 0xa8
160 552 m 0
 158 552 144 538 144 528 c 0
 144 499 150 471 157 447 c 1
 169 472 176 497 176 528 c 0
 176 540 163 552 160 552 c 0
130 261 m 1
 98 227 80 202 80 176 c 0xb0
 80 103 122 80 144 80 c 0
 172 80 193 101 209 139 c 1
 187 178 158 216 130 261 c 1
EndSplineSet
Validated: 1
EndChar

StartChar: at
Encoding: 64 64 64
Width: 384
VWidth: 0
Flags: W
HStem: -24 123<100.54 231> 560 104<109.501 222.409>
VStem: -24 104<110.91 529.525> 96 104<240.622 399.378> 240 96<239.007 400.993 502 539.519>
LayerCount: 2
Fore
SplineSet
251 141 m 1
 240 138 226 136 216 136 c 0
 129 136 96 223 96 320 c 0
 96 417 129 504 216 504 c 0
 224 504 234 503 239 502 c 1
 233 540 205 560 161 560 c 1
 87 554 80 499 80 378 c 0
 80 262 l 0
 80 141 87 87 160 80 c 1
 185 82 198 89 209 99 c 1
 231 98 l 1
 284 45 l 1
 285 24 l 1
 255 -11 212 -24 160 -24 c 0
 18 -24 -24 73 -24 320 c 0
 -24 567 18 664 160 664 c 0
 273 664 336 583 336 488 c 0
 336 152 l 1
 320 136 l 1
 256 136 l 1
 251 141 l 1
216 400 m 1
 215 400 200 398 200 320 c 0
 200 242 215 240 216 240 c 0
 217 240 219 239 222 239 c 0
 229 239 240 248 240 320 c 0
 240 392 229 401 222 401 c 0
 219 401 217 400 216 400 c 1
EndSplineSet
Validated: 1
EndChar

StartChar: cent
Encoding: 162 162 65
Width: 384
VWidth: 0
Flags: W
HStem: -16 21G<112 208>
VStem: -24 104<166.591 409.597> 112 96<0 50.7722 156 420 525.404 576>
LayerCount: 2
Fore
SplineSet
128 592 m 1
 192 592 l 1
 208 576 l 1
 208 531 l 1
 277 514 313 463 331 399 c 1
 320 380 l 1
 254 362 l 1
 234 374 l 1
 229 396 221 411 208 420 c 1
 208 156 l 1
 222 166 229 180 234 202 c 1
 254 214 l 1
 320 196 l 1
 331 177 l 1
 313 112 276 61 208 45 c 1
 208 0 l 1
 192 -16 l 1
 128 -16 l 1
 112 0 l 1
 112 45 l 1
 7 71 -24 175 -24 288 c 0
 -24 402 8 506 112 531 c 1
 112 576 l 1
 128 592 l 1
112 420 m 1
 82 399 80 349 80 288 c 0
 80 226 83 176 112 156 c 1
 112 420 l 1
EndSplineSet
Validated: 1
EndChar

StartChar: sterling
Encoding: 163 163 66
Width: 384
VWidth: 0
Flags: W
HStem: -16 96<109 320> 272 96<0 25 135 224> 560 104<114.651 223.78>
VStem: 8 104<370.738 555.966> 37 99<117.241 272>
LayerCount: 2
Fore
SplineSet
160 664 m 0xf0
 225 664 269 633 292 591 c 1
 286 569 l 1
 226 534 l 1
 204 541 l 1
 199 551 190 560 160 560 c 0
 115 560 112 541 112 512 c 0xf0
 112 486 120 430 127 368 c 1
 224 368 l 1
 240 352 l 1
 240 288 l 1
 224 272 l 1
 135 272 l 1
 136 258 136 244 136 230 c 0
 136 174 129 121 109 80 c 1
 320 80 l 1
 336 64 l 1
 336 0 l 1
 320 -16 l 1
 0 -16 l 1
 -16 0 l 1
 -16 64 l 1
 -12 75 l 1
 25 118 37 175 37 238 c 0xe8
 37 248 37 262 36 272 c 1
 0 272 l 1
 -16 288 l 1
 -16 352 l 1
 0 368 l 1
 25 368 l 1
 16 423 8 472 8 512 c 0
 8 582 54 664 160 664 c 0xf0
EndSplineSet
Validated: 1
EndChar

StartChar: yen
Encoding: 165 165 67
Width: 384
VWidth: 0
Flags: W
HStem: -16 21G<112 208> 112 96<32 112 208 288> 240 96<32 68 252 288> 636 20G<-16 80 240 336>
VStem: -16 96<486.977 640> 112 96<0 112 208 240> 240 96<486.907 640>
CounterMasks: 1 0e
LayerCount: 2
Fore
SplineSet
-0 656 m 1
 64 656 l 1
 80 640 l 1
 80 576 l 0
 80 518 121 440 160 365 c 1
 199 441 240 517 240 576 c 0
 240 640 l 1
 256 656 l 1
 320 656 l 1
 336 640 l 1
 336 576 l 0
 336 505 290 409 252 336 c 1
 288 336 l 1
 304 320 l 1
 304 256 l 1
 288 240 l 1
 208 240 l 1
 208 208 l 1
 288 208 l 1
 304 192 l 1
 304 128 l 1
 288 112 l 1
 208 112 l 1
 208 0 l 1
 192 -16 l 1
 128 -16 l 1
 112 0 l 1
 112 112 l 1
 32 112 l 1
 16 128 l 1
 16 192 l 1
 32 208 l 1
 112 208 l 1
 112 240 l 1
 32 240 l 1
 16 256 l 1
 16 320 l 1
 32 336 l 1
 68 336 l 1
 29 411 -16 505 -16 576 c 0
 -16 640 l 1
 -0 656 l 1
EndSplineSet
Validated: 1
EndChar

StartChar: section
Encoding: 167 167 68
Width: 384
VWidth: 0
Flags: W
HStem: -24 104<86.468 233.532> 176 96<92.8889 230.912> 368 96<89.0881 227.111> 560 104<86.468 233.532>
VStem: -24 104<90.6128 128 284.908 355.83 475.624 550.584> 240 104<89.4157 164.376 284.17 355.092 512 549.387>
LayerCount: 2
Fore
SplineSet
160 664 m 0
 296 664 344 584 344 512 c 1
 328 496 l 1
 256 496 l 1
 240 512 l 1
 240 547 223 560 160 560 c 0
 97 560 80 547 80 512 c 0
 80 479 113 464 160 464 c 0
 295 464 344 393 344 320 c 0
 344 286 334 250 307 224 c 1
 335 196 344 162 344 128 c 0
 344 56 296 -24 160 -24 c 0
 24 -24 -24 56 -24 128 c 1
 -8 144 l 1
 64 144 l 1
 80 128 l 1
 80 93 97 80 160 80 c 0
 223 80 240 93 240 128 c 0
 240 161 207 176 160 176 c 0
 25 176 -24 247 -24 320 c 0
 -24 354 -14 390 13 416 c 1
 -15 444 -24 478 -24 512 c 0
 -24 584 24 664 160 664 c 0
160 368 m 0
 113 368 80 353 80 320 c 0
 80 287 113 272 160 272 c 0
 207 272 240 287 240 320 c 0
 240 353 207 368 160 368 c 0
EndSplineSet
Validated: 1
EndChar

StartChar: degree
Encoding: 176 176 69
Width: 384
VWidth: 0
Flags: W
HStem: 424 88<65.7561 126.244> 576 88<65.7561 126.244>
VStem: -24 88<513.756 574.244> 128 88<513.756 574.244>
LayerCount: 2
Fore
SplineSet
96 664 m 0
 162 664 216 610 216 544 c 0
 216 478 162 424 96 424 c 0
 30 424 -24 478 -24 544 c 0
 -24 610 30 664 96 664 c 0
96 576 m 0
 78 576 64 562 64 544 c 0
 64 526 78 512 96 512 c 0
 114 512 128 526 128 544 c 0
 128 562 114 576 96 576 c 0
EndSplineSet
Validated: 1
EndChar

StartChar: ordfeminine
Encoding: 170 170 70
Width: 384
VWidth: 0
Flags: W
HStem: 176 96<0 192> 560 104<54.9335 110.503>
VStem: 112 96<400.001 432 528 558.935>
LayerCount: 2
Fore
SplineSet
121 303 m 1
 114 299 103 296 96 296 c 0
 24 296 -24 344 -24 416 c 0
 -24 489 26 528 96 528 c 0
 112 528 l 1
 111 555 107 560 96 560 c 0
 87 560 85 559 82 549 c 1
 63 538 l 1
 1 555 l 1
 -11 573 l 1
 1 633 40 664 96 664 c 0
 171 664 208 611 208 512 c 0
 208 312 l 1
 192 296 l 1
 128 296 l 1
 121 303 l 1
96 432 m 2
 78 432 80 424 80 416 c 0
 80 401 75 400 96 400 c 0
 117 400 112 401 112 413 c 0
 112 432 l 1
 96 432 l 2
-0 272 m 1
 192 272 l 1
 208 256 l 1
 208 192 l 1
 192 176 l 1
 0 176 l 1
 -16 192 l 1
 -16 256 l 1
 -0 272 l 1
EndSplineSet
Validated: 1
EndChar

StartChar: ordmasculine
Encoding: 186 186 71
Width: 384
VWidth: 0
Flags: W
HStem: 176 96<0 192> 644 20G<39 153>
VStem: -24 104<401.226 558.774> 112 104<401.226 558.774>
LayerCount: 2
Fore
SplineSet
96 664 m 0
 210 664 216 524 216 480 c 0
 216 436 210 296 96 296 c 0
 -18 296 -24 436 -24 480 c 0
 -24 524 -18 664 96 664 c 0
96 560 m 0
 83 560 80 551 80 480 c 0
 80 409 83 400 96 400 c 0
 109 400 112 409 112 480 c 0
 112 551 109 560 96 560 c 0
-0 272 m 1
 192 272 l 1
 208 256 l 1
 208 192 l 1
 192 176 l 1
 0 176 l 1
 -16 192 l 1
 -16 256 l 1
 -0 272 l 1
EndSplineSet
Validated: 1
EndChar

StartChar: Aring
Encoding: 197 197 72
Width: 384
VWidth: 0
Flags: W
HStem: -16 21G<-16 80 240 336> 112 96<101 219> 720 80<130.686 189.314>
VStem: -16 96<0 105.484> 48 80<657.756 717.314> 192 80<657.453 717.314> 240 96<0 105.027>
LayerCount: 2
Fore
SplineSet
160 800 m 0xe8
 222 800 272 750 272 688 c 0xec
 272 650 253 618 226 598 c 1
 268 480 336 219 336 0 c 1
 320 -16 l 1
 256 -16 l 1
 240 0 l 1
 240 32 238 71 233 112 c 1
 87 112 l 1
 82 69 80 32 80 0 c 1
 64 -16 l 1
 0 -16 l 1
 -16 0 l 1xf2
 -16 220 53 482 94 598 c 1
 66 619 48 651 48 688 c 0
 48 750 98 800 160 800 c 0xe8
160 720 m 0
 142 720 128 706 128 688 c 0
 128 670 142 656 160 656 c 0
 178 656 192 670 192 688 c 0
 192 706 178 720 160 720 c 0
160 489 m 1
 136 401 115 299 101 208 c 1
 219 208 l 1
 205 301 184 402 160 489 c 1
EndSplineSet
Validated: 1
EndChar

StartChar: aring
Encoding: 229 229 73
Width: 384
VWidth: 0
Flags: W
HStem: -24 104<84.9918 239.491> -16 21G<245 336> 184 96<89.5772 240> 368 104<130.025 190.231> 536 80<130.686 189.314>
VStem: -24 104<86.7489 174.348> 48 80<473.393 533.314> 192 80<473.493 533.314> 240 96<87.1755 186 281.393 350.229>
LayerCount: 2
Fore
SplineSet
245 -5 m 1x7880
 214 -18 177 -24 152 -24 c 0
 87 -24 -24 -6 -24 128 c 0
 -24 262 95 280 152 280 c 0
 209 280 235 282 240 284 c 1
 240 285 240 286 240 288 c 0xbc80
 240 344 216 368 160 368 c 0
 133 368 114 362 102 352 c 1
 84 350 l 1
 27 383 l 1
 22 407 l 1
 34 422 48 435 64 445 c 1
 53 463 48 483 48 504 c 0
 48 566 98 616 160 616 c 0
 222 616 272 566 272 504 c 0xbb
 272 483 266 461 256 445 c 1
 308 412 336 355 336 288 c 0
 336 0 l 1
 320 -16 l 1
 256 -16 l 1
 245 -5 l 1x7880
160 536 m 0
 142 536 128 522 128 504 c 0
 128 486 142 472 160 472 c 0
 178 472 192 486 192 504 c 0x3b
 192 522 178 536 160 536 c 0
240 186 m 1xbc80
 227 184 218 183 206 183 c 0
 187 183 167 184 152 184 c 0
 87 184 80 161 80 128 c 0
 80 91 91 80 152 80 c 0
 192 80 240 86 240 104 c 0
 240 186 l 1xbc80
EndSplineSet
Validated: 1
EndChar

StartChar: oslash
Encoding: 248 248 74
Width: 384
VWidth: 0
Flags: W
HStem: -24 104<134.344 219.046> 368 104<100.954 185.656>
VStem: -24 104<184.216 344.348> 240 104<103.652 263.784>
LayerCount: 2
Fore
SplineSet
284 503 m 1
 340 471 l 1
 346 449 l 1
 311 388 l 1
 336 342 344 286 344 224 c 0
 344 94 301 -24 160 -24 c 0
 130 -24 104 -18 81 -8 c 1
 58 -49 l 1
 36 -55 l 1
 -20 -23 l 1
 -26 -1 l 1
 9 60 l 1
 -16 106 -24 162 -24 224 c 0
 -24 354 19 472 160 472 c 0
 190 472 216 466 239 456 c 1
 262 497 l 1
 284 503 l 1
160 368 m 0
 80 368 80 308 80 224 c 0
 80 210 80 196 80 183 c 1
 186 365 l 1
 178 367 170 368 160 368 c 0
240 265 m 1
 134 83 l 1
 142 81 150 80 160 80 c 0
 240 80 240 140 240 224 c 0
 240 238 240 252 240 265 c 1
EndSplineSet
Validated: 1
EndChar

StartChar: Oslash
Encoding: 216 216 75
Width: 384
VWidth: 0
Flags: W
HStem: -24 104<119.01 209.826> 560 104<111.449 200.99>
VStem: -25 104<249.943 519.387> 241 104<120.613 390.057>
LayerCount: 2
Fore
SplineSet
280 703 m 1
 340 679 l 1
 349 658 l 1
 316 577 l 1
 340 526 345 456 345 375 c 0
 345 355 344 337 344 317 c 1
 341 131 331 -24 159 -24 c 0
 154 -24 l 1
 124 -23 100 -18 79 -10 c 1
 61 -54 l 1
 40 -63 l 1
 -20 -39 l 1
 -29 -18 l 1
 4 63 l 1
 -20 114 -25 184 -25 265 c 0
 -25 285 -24 303 -24 323 c 1
 -21 509 -11 664 161 664 c 0
 166 664 l 1
 196 663 220 658 241 650 c 1
 259 694 l 1
 280 703 l 1
160 560 m 2
 87 559 83 486 80 322 c 1
 80 296 79 270 79 248 c 0
 79 248 192 527 202 551 c 1
 193 557 181 560 164 560 c 0
 160 560 l 2
241 392 m 1
 118 89 l 1
 127 83 139 80 156 80 c 0
 159 80 l 0
 233 80 237 153 240 318 c 1
 240 344 241 370 241 392 c 1
EndSplineSet
Validated: 1
EndChar

StartChar: grave
Encoding: 96 96 76
Width: 384
VWidth: 0
Flags: W
HStem: 499 170
VStem: 75 170
LayerCount: 2
Fore
SplineSet
143 669 m 1
 245 567 l 1
 245 545 l 1
 199 499 l 1
 177 499 l 1
 75 601 l 1
 75 623 l 1
 121 669 l 1
 143 669 l 1
EndSplineSet
Validated: 1
EndChar

StartChar: asciicircum
Encoding: 94 94 77
Width: 384
VWidth: 0
Flags: W
HStem: 504 163
VStem: 53 214<549 571>
LayerCount: 2
Fore
SplineSet
171 667 m 1
 267 571 l 1
 267 549 l 1
 222 504 l 1
 200 504 l 1
 160 543 l 1
 120 504 l 1
 98 504 l 1
 53 549 l 1
 53 571 l 1
 149 667 l 1
 171 667 l 1
EndSplineSet
Validated: 1
EndChar

StartChar: acute
Encoding: 180 180 78
Width: 384
VWidth: 0
Flags: W
HStem: 499 170
VStem: 75 170
LayerCount: 2
Fore
SplineSet
199 669 m 1
 245 623 l 1
 245 601 l 1
 143 499 l 1
 121 499 l 1
 75 545 l 1
 75 567 l 1
 177 669 l 1
 199 669 l 1
EndSplineSet
Validated: 1
EndChar

StartChar: cedilla
Encoding: 184 184 79
Width: 384
VWidth: 0
Flags: W
HStem: -176 104<74.9017 158.971>
VStem: 160 96<-69.897 -2.72075>
LayerCount: 2
Fore
SplineSet
152 80 m 1
 204 80 256 23 256 -48 c 0
 256 -113 200 -176 112 -176 c 0
 87 -176 64 -170 45 -160 c 1
 38 -138 l 1
 73 -79 l 1
 89 -71 l 1
 94 -72 102 -72 112 -72 c 0
 152 -72 160 -66 160 -48 c 0
 160 -36 153 -19 148 -14 c 1
 142 -8 141 -5 136 0 c 1
 136 64 l 1
 152 80 l 1
EndSplineSet
Validated: 1
EndChar

StartChar: asciitilde
Encoding: 126 126 80
Width: 384
VWidth: 0
Flags: W
HStem: 491 96<196.536 234.678> 565 96<86 123.247>
LayerCount: 2
Fore
SplineSet
104 661 m 2x40
 106 661 l 0x40
 150 661 185 632 203 597 c 1
 207 590 211 587 216 587 c 0
 219 587 221 587 225 589 c 1
 234 594 234 598 234 602 c 0
 234 606 l 1
 242 625 l 1
 307 656 l 1
 329 648 l 1
 334 636 336 623 336 609 c 0
 336 568 313 527 267 504 c 1
 249 495 231 491 215 491 c 0x80
 170 491 134 520 117 555 c 1
 114 562 109 565 104 565 c 0
 101 565 99 565 95 563 c 1
 86 558 86 554 86 550 c 0
 86 546 l 1
 78 527 l 1
 13 496 l 1
 -9 504 l 1
 -14 516 -16 529 -16 543 c 0
 -16 584 8 625 53 648 c 1
 64 654 74 658 83 659 c 1
 93 662 98 661 104 661 c 2x40
EndSplineSet
Validated: 1
EndChar

StartChar: dieresis
Encoding: 168 168 81
Width: 384
VWidth: 0
Flags: W
HStem: 480 128<31.3863 128.614 191.386 288.614>
VStem: 16 128<495.386 592.614> 176 128<495.386 592.614>
LayerCount: 2
Fore
SplineSet
80 608 m 0
 116 608 144 580 144 544 c 0
 144 508 116 480 80 480 c 0
 44 480 16 508 16 544 c 0
 16 580 44 608 80 608 c 0
240 608 m 0
 276 608 304 580 304 544 c 0
 304 508 276 480 240 480 c 0
 204 480 176 508 176 544 c 0
 176 580 204 608 240 608 c 0
EndSplineSet
Validated: 1
EndChar

StartChar: Agrave
Encoding: 192 192 82
Width: 384
VWidth: 0
Flags: W
HStem: -16 21G<-16 80 240 336> 112 96<101 219> 636 20G<114 206>
VStem: -16 96<0 99.6602> 240 96<0 99.6602>
LayerCount: 2
Fore
SplineSet
143 861 m 1
 245 759 l 1
 245 737 l 1
 199 691 l 1
 177 691 l 1
 75 793 l 1
 75 815 l 1
 121 861 l 1
 143 861 l 1
128 656 m 1
 192 656 l 1
 206 647 l 1
 240 579 336 260 336 0 c 1
 320 -16 l 1
 256 -16 l 1
 240 0 l 1
 240 32 238 71 233 112 c 1
 87 112 l 1
 82 69 80 32 80 0 c 1
 64 -16 l 1
 0 -16 l 1
 -16 0 l 1
 -16 260 80 579 114 647 c 1
 128 656 l 1
160 489 m 1
 136 401 115 299 101 208 c 1
 219 208 l 1
 205 301 184 402 160 489 c 1
EndSplineSet
Validated: 1
EndChar

StartChar: Aacute
Encoding: 193 193 83
Width: 384
VWidth: 0
Flags: W
HStem: -16 21G<-16 80 240 336> 112 96<101 219> 636 20G<114 206>
VStem: -16 96<0 99.6602> 240 96<0 99.6602>
LayerCount: 2
Fore
SplineSet
199 861 m 1
 245 815 l 1
 245 793 l 1
 143 691 l 1
 121 691 l 1
 75 737 l 1
 75 759 l 1
 177 861 l 1
 199 861 l 1
128 656 m 1
 192 656 l 1
 206 647 l 1
 240 579 336 260 336 0 c 1
 320 -16 l 1
 256 -16 l 1
 240 0 l 1
 240 32 238 71 233 112 c 1
 87 112 l 1
 82 69 80 32 80 0 c 1
 64 -16 l 1
 0 -16 l 1
 -16 0 l 1
 -16 260 80 579 114 647 c 1
 128 656 l 1
160 489 m 1
 136 401 115 299 101 208 c 1
 219 208 l 1
 205 301 184 402 160 489 c 1
EndSplineSet
Validated: 1
EndChar

StartChar: Acircumflex
Encoding: 194 194 84
Width: 384
VWidth: 0
Flags: W
HStem: -16 21G<-16 80 240 336> 112 96<101 219> 636 20G<114 206>
VStem: -16 96<0 99.6602> 240 96<0 99.6602>
LayerCount: 2
Fore
SplineSet
171 859 m 1
 267 763 l 1
 267 741 l 1
 222 696 l 1
 200 696 l 1
 160 735 l 1
 120 696 l 1
 98 696 l 1
 53 741 l 1
 53 763 l 1
 149 859 l 1
 171 859 l 1
128 656 m 1
 192 656 l 1
 206 647 l 1
 240 579 336 260 336 0 c 1
 320 -16 l 1
 256 -16 l 1
 240 0 l 1
 240 32 238 71 233 112 c 1
 87 112 l 1
 82 69 80 32 80 0 c 1
 64 -16 l 1
 0 -16 l 1
 -16 0 l 1
 -16 260 80 579 114 647 c 1
 128 656 l 1
160 489 m 1
 136 401 115 299 101 208 c 1
 219 208 l 1
 205 301 184 402 160 489 c 1
EndSplineSet
Validated: 1
EndChar

StartChar: Atilde
Encoding: 195 195 85
Width: 384
VWidth: 0
Flags: W
HStem: -16 21G<-16 80 240 336> 112 96<101 219> 636 20G<114 206> 683 96<196.536 234.678> 757 96<86 123.247>
VStem: -16 102<0 99.6602 738 756.049> 234 102<0 99.6602 779.951 798>
LayerCount: 2
Fore
SplineSet
104 853 m 2xee
 106 853 l 0xee
 150 853 185 824 203 789 c 1
 207 782 211 779 216 779 c 0
 219 779 221 779 225 781 c 1
 234 786 234 790 234 794 c 0
 234 798 l 1
 242 817 l 1
 307 848 l 1
 329 840 l 1
 334 828 336 815 336 801 c 0
 336 760 313 719 267 696 c 1
 249 687 231 683 215 683 c 0xf6
 170 683 134 712 117 747 c 1
 114 754 109 757 104 757 c 0
 101 757 99 757 95 755 c 1
 86 750 86 746 86 742 c 0
 86 738 l 1
 78 719 l 1
 13 688 l 1
 -9 696 l 1
 -14 708 -16 721 -16 735 c 0
 -16 776 8 817 53 840 c 1
 64 846 74 850 83 851 c 1
 93 854 98 853 104 853 c 2xee
128 656 m 1
 192 656 l 1
 206 647 l 1
 240 579 336 260 336 0 c 1
 320 -16 l 1
 256 -16 l 1
 240 0 l 1
 240 32 238 71 233 112 c 1
 87 112 l 1
 82 69 80 32 80 0 c 1
 64 -16 l 1
 0 -16 l 1
 -16 0 l 1
 -16 260 80 579 114 647 c 1
 128 656 l 1
160 489 m 1
 136 401 115 299 101 208 c 1
 219 208 l 1
 205 301 184 402 160 489 c 1
EndSplineSet
Validated: 1
EndChar

StartChar: Adieresis
Encoding: 196 196 86
Width: 384
VWidth: 0
Flags: W
HStem: -16 21G<-16 80 240 336> 112 96<101 219> 636 20G<114 206> 672 128<31.3863 128.614 191.386 288.614>
VStem: -16 96<0 99.6602> 16 128<687.386 784.614> 176 128<687.386 784.614> 240 96<0 99.6602>
LayerCount: 2
Fore
SplineSet
80 800 m 0xf8
 116 800 144 772 144 736 c 0xf4
 144 700 116 672 80 672 c 0xf8
 44 672 16 700 16 736 c 0xf4
 16 772 44 800 80 800 c 0xf8
240 800 m 0xf1
 276 800 304 772 304 736 c 0xf2
 304 700 276 672 240 672 c 0xf1
 204 672 176 700 176 736 c 0xf2
 176 772 204 800 240 800 c 0xf1
128 656 m 1
 192 656 l 1
 206 647 l 1
 240 579 336 260 336 0 c 1
 320 -16 l 1
 256 -16 l 1
 240 0 l 1
 240 32 238 71 233 112 c 1
 87 112 l 1
 82 69 80 32 80 0 c 1
 64 -16 l 1
 0 -16 l 1
 -16 0 l 1xf9
 -16 260 80 579 114 647 c 1
 128 656 l 1
160 489 m 1
 136 401 115 299 101 208 c 1
 219 208 l 1
 205 301 184 402 160 489 c 1
EndSplineSet
Validated: 1
EndChar

StartChar: Ccedilla
Encoding: 199 199 87
Width: 384
VWidth: 0
Flags: W
HStem: -176 104<74.9017 158.971> -24 104<107.325 159.955> 560 104<107.568 212.384>
VStem: -24 104<110.785 527.854> 160 96<-69.897 -23.6579> 229 96<94.8965 115 525 545.5>
LayerCount: 2
Fore
SplineSet
160 664 m 0xf8
 254 664 302 617 325 544 c 1
 318 525 l 1
 253 488 l 1
 229 498 l 1xf4
 219 542 202 560 160 560 c 0
 83 560 80 487 80 320 c 0
 80 153 83 80 160 80 c 0xf8
 202 80 219 98 229 142 c 1
 253 152 l 1
 318 115 l 1
 325 97 l 1xf4
 312 52 288 15 249 -5 c 1
 254 -20 256 -33 256 -48 c 0
 256 -113 200 -176 112 -176 c 0
 87 -176 64 -170 45 -160 c 1
 38 -138 l 1
 73 -79 l 1
 89 -71 l 1
 94 -72 102 -72 112 -72 c 0
 152 -72 160 -66 160 -48 c 0
 160 -35 153 -26 150 -24 c 1
 -17 -17 -24 136 -24 320 c 0
 -24 508 -17 664 160 664 c 0xf8
EndSplineSet
Validated: 1
EndChar

StartChar: Egrave
Encoding: 200 200 88
Width: 384
VWidth: 0
Flags: W
HStem: -16 96<80 320> 304 96<80 256> 560 96<80 320>
VStem: -16 96<80 304 400 560>
LayerCount: 2
Fore
SplineSet
143 861 m 1
 245 759 l 1
 245 737 l 1
 199 691 l 1
 177 691 l 1
 75 793 l 1
 75 815 l 1
 121 861 l 1
 143 861 l 1
-0 656 m 1
 320 656 l 1
 336 640 l 1
 336 576 l 1
 320 560 l 1
 80 560 l 1
 80 400 l 1
 256 400 l 1
 272 384 l 1
 272 320 l 1
 256 304 l 1
 80 304 l 1
 80 80 l 1
 320 80 l 1
 336 64 l 1
 336 0 l 1
 320 -16 l 1
 0 -16 l 1
 -16 0 l 1
 -16 640 l 1
 -0 656 l 1
EndSplineSet
Validated: 1
EndChar

StartChar: Eacute
Encoding: 201 201 89
Width: 384
VWidth: 0
Flags: W
HStem: -16 96<80 320> 304 96<80 256> 560 96<80 320>
VStem: -16 96<80 304 400 560>
LayerCount: 2
Fore
SplineSet
199 861 m 1
 245 815 l 1
 245 793 l 1
 143 691 l 1
 121 691 l 1
 75 737 l 1
 75 759 l 1
 177 861 l 1
 199 861 l 1
-0 656 m 1
 320 656 l 1
 336 640 l 1
 336 576 l 1
 320 560 l 1
 80 560 l 1
 80 400 l 1
 256 400 l 1
 272 384 l 1
 272 320 l 1
 256 304 l 1
 80 304 l 1
 80 80 l 1
 320 80 l 1
 336 64 l 1
 336 0 l 1
 320 -16 l 1
 0 -16 l 1
 -16 0 l 1
 -16 640 l 1
 -0 656 l 1
EndSplineSet
Validated: 1
EndChar

StartChar: Ecircumflex
Encoding: 202 202 90
Width: 384
VWidth: 0
Flags: W
HStem: -16 96<80 320> 304 96<80 256> 560 96<80 320>
VStem: -16 96<80 304 400 560>
LayerCount: 2
Fore
SplineSet
171 859 m 1
 267 763 l 1
 267 741 l 1
 222 696 l 1
 200 696 l 1
 160 735 l 1
 120 696 l 1
 98 696 l 1
 53 741 l 1
 53 763 l 1
 149 859 l 1
 171 859 l 1
-0 656 m 1
 320 656 l 1
 336 640 l 1
 336 576 l 1
 320 560 l 1
 80 560 l 1
 80 400 l 1
 256 400 l 1
 272 384 l 1
 272 320 l 1
 256 304 l 1
 80 304 l 1
 80 80 l 1
 320 80 l 1
 336 64 l 1
 336 0 l 1
 320 -16 l 1
 0 -16 l 1
 -16 0 l 1
 -16 640 l 1
 -0 656 l 1
EndSplineSet
Validated: 1
EndChar

StartChar: Edieresis
Encoding: 203 203 91
Width: 384
VWidth: 0
Flags: W
HStem: -16 96<80 320> 304 96<80 256> 560 96<80 320> 672 128<31.3863 128.614 191.386 288.614>
VStem: -16 96<80 304 400 560> 16 128<687.386 784.614> 176 128<687.386 784.614>
LayerCount: 2
Fore
SplineSet
80 800 m 0xfa
 116 800 144 772 144 736 c 0xf6
 144 700 116 672 80 672 c 0xfa
 44 672 16 700 16 736 c 0xf6
 16 772 44 800 80 800 c 0xfa
240 800 m 0
 276 800 304 772 304 736 c 0
 304 700 276 672 240 672 c 0
 204 672 176 700 176 736 c 0
 176 772 204 800 240 800 c 0
-0 656 m 1
 320 656 l 1
 336 640 l 1
 336 576 l 1
 320 560 l 1
 80 560 l 1
 80 400 l 1
 256 400 l 1
 272 384 l 1
 272 320 l 1
 256 304 l 1
 80 304 l 1
 80 80 l 1
 320 80 l 1
 336 64 l 1
 336 0 l 1
 320 -16 l 1
 0 -16 l 1
 -16 0 l 1
 -16 640 l 1xfa
 -0 656 l 1
EndSplineSet
Validated: 1
EndChar

StartChar: Igrave
Encoding: 204 204 92
Width: 384
VWidth: 0
Flags: W
HStem: -16 96<32 112 208 288> 560 96<32 112 208 288>
VStem: 112 96<80 560>
LayerCount: 2
Fore
SplineSet
143 861 m 1
 245 759 l 1
 245 737 l 1
 199 691 l 1
 177 691 l 1
 75 793 l 1
 75 815 l 1
 121 861 l 1
 143 861 l 1
32 656 m 1
 288 656 l 1
 304 640 l 1
 304 576 l 1
 288 560 l 1
 208 560 l 1
 208 80 l 1
 288 80 l 1
 304 64 l 1
 304 0 l 1
 288 -16 l 1
 32 -16 l 1
 16 0 l 1
 16 64 l 1
 32 80 l 1
 112 80 l 1
 112 560 l 1
 32 560 l 1
 16 576 l 1
 16 640 l 1
 32 656 l 1
EndSplineSet
Validated: 1
EndChar

StartChar: Iacute
Encoding: 205 205 93
Width: 384
VWidth: 0
Flags: W
HStem: -16 96<32 112 208 288> 560 96<32 112 208 288>
VStem: 112 96<80 560>
LayerCount: 2
Fore
SplineSet
199 861 m 1
 245 815 l 1
 245 793 l 1
 143 691 l 1
 121 691 l 1
 75 737 l 1
 75 759 l 1
 177 861 l 1
 199 861 l 1
32 656 m 1
 288 656 l 1
 304 640 l 1
 304 576 l 1
 288 560 l 1
 208 560 l 1
 208 80 l 1
 288 80 l 1
 304 64 l 1
 304 0 l 1
 288 -16 l 1
 32 -16 l 1
 16 0 l 1
 16 64 l 1
 32 80 l 1
 112 80 l 1
 112 560 l 1
 32 560 l 1
 16 576 l 1
 16 640 l 1
 32 656 l 1
EndSplineSet
Validated: 1
EndChar

StartChar: Icircumflex
Encoding: 206 206 94
Width: 384
VWidth: 0
Flags: W
HStem: -16 96<32 112 208 288> 560 96<32 112 208 288>
VStem: 112 96<80 560>
LayerCount: 2
Fore
SplineSet
171 859 m 1
 267 763 l 1
 267 741 l 1
 222 696 l 1
 200 696 l 1
 160 735 l 1
 120 696 l 1
 98 696 l 1
 53 741 l 1
 53 763 l 1
 149 859 l 1
 171 859 l 1
32 656 m 1
 288 656 l 1
 304 640 l 1
 304 576 l 1
 288 560 l 1
 208 560 l 1
 208 80 l 1
 288 80 l 1
 304 64 l 1
 304 0 l 1
 288 -16 l 1
 32 -16 l 1
 16 0 l 1
 16 64 l 1
 32 80 l 1
 112 80 l 1
 112 560 l 1
 32 560 l 1
 16 576 l 1
 16 640 l 1
 32 656 l 1
EndSplineSet
Validated: 1
EndChar

StartChar: Idieresis
Encoding: 207 207 95
Width: 384
VWidth: 0
Flags: W
HStem: -16 96<32 112 208 288> 560 96<32 112 208 288> 672 128<31.3863 128.614 191.386 288.614>
VStem: 16 128<687.386 784.614> 176 128<687.386 784.614>
LayerCount: 2
Fore
SplineSet
80 800 m 0
 116 800 144 772 144 736 c 0
 144 700 116 672 80 672 c 0
 44 672 16 700 16 736 c 0
 16 772 44 800 80 800 c 0
240 800 m 0
 276 800 304 772 304 736 c 0
 304 700 276 672 240 672 c 0
 204 672 176 700 176 736 c 0
 176 772 204 800 240 800 c 0
32 656 m 1
 288 656 l 1
 304 640 l 1
 304 576 l 1
 288 560 l 1
 208 560 l 1
 208 80 l 1
 288 80 l 1
 304 64 l 1
 304 0 l 1
 288 -16 l 1
 32 -16 l 1
 16 0 l 1
 16 64 l 1
 32 80 l 1
 112 80 l 1
 112 560 l 1
 32 560 l 1
 16 576 l 1
 16 640 l 1
 32 656 l 1
EndSplineSet
Validated: 1
EndChar

StartChar: Ntilde
Encoding: 209 209 96
Width: 384
VWidth: 0
Flags: W
HStem: -16 21G<-16 80 240 336> 636 20G<-16 78 240 336> 683 96<196.536 234.678> 757 96<86 123.247>
VStem: -16 96<0 454 738 756.049> 240 96<0 188 378 640 779.951 798>
LayerCount: 2
Fore
SplineSet
104 853 m 2xdc
 106 853 l 0xdc
 150 853 185 824 203 789 c 1
 207 782 211 779 216 779 c 0
 219 779 221 779 225 781 c 1
 234 786 234 790 234 794 c 0
 234 798 l 1
 242 817 l 1
 307 848 l 1
 329 840 l 1
 334 828 336 815 336 801 c 0
 336 760 313 719 267 696 c 1
 249 687 231 683 215 683 c 0xec
 170 683 134 712 117 747 c 1
 114 754 109 757 104 757 c 0
 101 757 99 757 95 755 c 1
 86 750 86 746 86 742 c 0
 86 738 l 1
 78 719 l 1
 13 688 l 1
 -9 696 l 1
 -14 708 -16 721 -16 735 c 0
 -16 776 8 817 53 840 c 1
 64 846 74 850 83 851 c 1
 93 854 98 853 104 853 c 2xdc
-0 656 m 1
 64 656 l 1
 78 648 l 1
 240 378 l 1
 240 640 l 1
 256 656 l 1
 320 656 l 1
 336 640 l 1
 336 0 l 1
 320 -16 l 1
 256 -16 l 1
 240 0 l 1
 240 188 l 1
 80 454 l 1
 80 0 l 1
 64 -16 l 1
 0 -16 l 1
 -16 0 l 1
 -16 640 l 1
 -0 656 l 1
EndSplineSet
Validated: 1
EndChar

StartChar: Ograve
Encoding: 210 210 97
Width: 384
VWidth: 0
Flags: W
HStem: -24 104<107.568 212.432> 560 104<107.568 212.432>
VStem: -24 104<112.146 527.854> 240 104<112.146 527.854>
LayerCount: 2
Fore
SplineSet
143 861 m 1
 245 759 l 1
 245 737 l 1
 199 691 l 1
 177 691 l 1
 75 793 l 1
 75 815 l 1
 121 861 l 1
 143 861 l 1
160 664 m 0
 337 664 344 508 344 320 c 0
 344 132 337 -24 160 -24 c 0
 -17 -24 -24 132 -24 320 c 0
 -24 508 -17 664 160 664 c 0
160 560 m 0
 83 560 80 487 80 320 c 0
 80 153 83 80 160 80 c 0
 237 80 240 153 240 320 c 0
 240 487 237 560 160 560 c 0
EndSplineSet
Validated: 1
EndChar

StartChar: Oacute
Encoding: 211 211 98
Width: 384
VWidth: 0
Flags: W
HStem: -24 104<107.568 212.432> 560 104<107.568 212.432>
VStem: -24 104<112.146 527.854> 240 104<112.146 527.854>
LayerCount: 2
Fore
SplineSet
199 861 m 1
 245 815 l 1
 245 793 l 1
 143 691 l 1
 121 691 l 1
 75 737 l 1
 75 759 l 1
 177 861 l 1
 199 861 l 1
160 664 m 0
 337 664 344 508 344 320 c 0
 344 132 337 -24 160 -24 c 0
 -17 -24 -24 132 -24 320 c 0
 -24 508 -17 664 160 664 c 0
160 560 m 0
 83 560 80 487 80 320 c 0
 80 153 83 80 160 80 c 0
 237 80 240 153 240 320 c 0
 240 487 237 560 160 560 c 0
EndSplineSet
Validated: 1
EndChar

StartChar: Ocircumflex
Encoding: 212 212 99
Width: 384
VWidth: 0
Flags: W
HStem: -24 104<107.568 212.432> 560 104<107.568 212.432>
VStem: -24 104<112.146 527.854> 240 104<112.146 527.854>
LayerCount: 2
Fore
SplineSet
171 859 m 1
 267 763 l 1
 267 741 l 1
 222 696 l 1
 200 696 l 1
 160 735 l 1
 120 696 l 1
 98 696 l 1
 53 741 l 1
 53 763 l 1
 149 859 l 1
 171 859 l 1
160 664 m 0
 337 664 344 508 344 320 c 0
 344 132 337 -24 160 -24 c 0
 -17 -24 -24 132 -24 320 c 0
 -24 508 -17 664 160 664 c 0
160 560 m 0
 83 560 80 487 80 320 c 0
 80 153 83 80 160 80 c 0
 237 80 240 153 240 320 c 0
 240 487 237 560 160 560 c 0
EndSplineSet
Validated: 1
EndChar

StartChar: Odieresis
Encoding: 214 214 100
Width: 384
VWidth: 0
Flags: W
HStem: -24 104<107.568 212.432> 560 104<107.568 212.432> 672 128<31.3863 128.614 191.386 288.614>
VStem: -24 104<112.146 527.854> 16 128<687.386 784.614> 176 128<687.386 784.614> 240 104<112.146 527.854>
LayerCount: 2
Fore
SplineSet
80 800 m 0xf0
 116 800 144 772 144 736 c 0xe8
 144 700 116 672 80 672 c 0xf0
 44 672 16 700 16 736 c 0xe8
 16 772 44 800 80 800 c 0xf0
240 800 m 0xe2
 276 800 304 772 304 736 c 0xe4
 304 700 276 672 240 672 c 0xe2
 204 672 176 700 176 736 c 0xe4
 176 772 204 800 240 800 c 0xe2
160 664 m 0
 337 664 344 508 344 320 c 0
 344 132 337 -24 160 -24 c 0
 -17 -24 -24 132 -24 320 c 0xf2
 -24 508 -17 664 160 664 c 0
160 560 m 0
 83 560 80 487 80 320 c 0
 80 153 83 80 160 80 c 0
 237 80 240 153 240 320 c 0
 240 487 237 560 160 560 c 0
EndSplineSet
Validated: 1
EndChar

StartChar: Otilde
Encoding: 213 213 101
Width: 384
VWidth: 0
Flags: W
HStem: -24 104<107.568 212.432> 560 104<107.568 212.432> 683 96<196.536 234.678> 757 96<86 123.247>
VStem: -24 104<112.146 527.854> 240 104<112.146 527.854>
LayerCount: 2
Fore
SplineSet
104 853 m 2xdc
 106 853 l 0xdc
 150 853 185 824 203 789 c 1
 207 782 211 779 216 779 c 0
 219 779 221 779 225 781 c 1
 234 786 234 790 234 794 c 0
 234 798 l 1
 242 817 l 1
 307 848 l 1
 329 840 l 1
 334 828 336 815 336 801 c 0
 336 760 313 719 267 696 c 1
 249 687 231 683 215 683 c 0xec
 170 683 134 712 117 747 c 1
 114 754 109 757 104 757 c 0
 101 757 99 757 95 755 c 1
 86 750 86 746 86 742 c 0
 86 738 l 1
 78 719 l 1
 13 688 l 1
 -9 696 l 1
 -14 708 -16 721 -16 735 c 0
 -16 776 8 817 53 840 c 1
 64 846 74 850 83 851 c 1
 93 854 98 853 104 853 c 2xdc
160 664 m 0
 337 664 344 508 344 320 c 0
 344 132 337 -24 160 -24 c 0
 -17 -24 -24 132 -24 320 c 0
 -24 508 -17 664 160 664 c 0
160 560 m 0
 83 560 80 487 80 320 c 0
 80 153 83 80 160 80 c 0
 237 80 240 153 240 320 c 0
 240 487 237 560 160 560 c 0
EndSplineSet
Validated: 1
EndChar

StartChar: Ugrave
Encoding: 217 217 102
Width: 384
VWidth: 0
Flags: W
HStem: -24 104<107.687 212.313> 636 20G<-16 80 240 336>
VStem: -16 96<112.917 640> 240 96<112.917 640>
LayerCount: 2
Fore
SplineSet
143 861 m 1
 245 759 l 1
 245 737 l 1
 199 691 l 1
 177 691 l 1
 75 793 l 1
 75 815 l 1
 121 861 l 1
 143 861 l 1
-0 656 m 1
 64 656 l 1
 80 640 l 1
 80 320 l 0
 80 295 79 269 79 243 c 0
 79 148 90 80 160 80 c 0
 230 80 241 148 241 243 c 0
 241 269 240 295 240 320 c 0
 240 640 l 1
 256 656 l 1
 320 656 l 1
 336 640 l 1
 336 320 l 0
 336 314 l 0
 336 130 335 -24 160 -24 c 0
 -15 -24 -16 130 -16 314 c 0
 -16 320 l 0
 -16 640 l 1
 -0 656 l 1
EndSplineSet
Validated: 1
EndChar

StartChar: Uacute
Encoding: 218 218 103
Width: 384
VWidth: 0
Flags: W
HStem: -24 104<107.687 212.313> 636 20G<-16 80 240 336>
VStem: -16 96<112.917 640> 240 96<112.917 640>
LayerCount: 2
Fore
SplineSet
199 861 m 1
 245 815 l 1
 245 793 l 1
 143 691 l 1
 121 691 l 1
 75 737 l 1
 75 759 l 1
 177 861 l 1
 199 861 l 1
-0 656 m 1
 64 656 l 1
 80 640 l 1
 80 320 l 0
 80 295 79 269 79 243 c 0
 79 148 90 80 160 80 c 0
 230 80 241 148 241 243 c 0
 241 269 240 295 240 320 c 0
 240 640 l 1
 256 656 l 1
 320 656 l 1
 336 640 l 1
 336 320 l 0
 336 314 l 0
 336 130 335 -24 160 -24 c 0
 -15 -24 -16 130 -16 314 c 0
 -16 320 l 0
 -16 640 l 1
 -0 656 l 1
EndSplineSet
Validated: 1
EndChar

StartChar: Ucircumflex
Encoding: 219 219 104
Width: 384
VWidth: 0
Flags: W
HStem: -24 104<107.687 212.313> 636 20G<-16 80 240 336>
VStem: -16 96<112.917 640> 240 96<112.917 640>
LayerCount: 2
Fore
SplineSet
171 859 m 1
 267 763 l 1
 267 741 l 1
 222 696 l 1
 200 696 l 1
 160 735 l 1
 120 696 l 1
 98 696 l 1
 53 741 l 1
 53 763 l 1
 149 859 l 1
 171 859 l 1
-0 656 m 1
 64 656 l 1
 80 640 l 1
 80 320 l 0
 80 295 79 269 79 243 c 0
 79 148 90 80 160 80 c 0
 230 80 241 148 241 243 c 0
 241 269 240 295 240 320 c 0
 240 640 l 1
 256 656 l 1
 320 656 l 1
 336 640 l 1
 336 320 l 0
 336 314 l 0
 336 130 335 -24 160 -24 c 0
 -15 -24 -16 130 -16 314 c 0
 -16 320 l 0
 -16 640 l 1
 -0 656 l 1
EndSplineSet
Validated: 1
EndChar

StartChar: Udieresis
Encoding: 220 220 105
Width: 384
VWidth: 0
Flags: W
HStem: -24 104<107.687 212.313> 636 20G<-16 80 240 336> 672 128<31.3863 128.614 191.386 288.614>
VStem: -16 96<112.917 640> 16 128<687.386 784.614> 176 128<687.386 784.614> 240 96<112.917 640>
LayerCount: 2
Fore
SplineSet
-16 320 m 2xf2
 -16 640 l 1
 0 656 l 1
 64 656 l 1
 80 640 l 1
 80 320 l 0
 80 295 79 269 79 243 c 0
 79 148 90 80 160 80 c 0
 230 80 241 148 241 243 c 0
 241 269 240 295 240 320 c 0
 240 640 l 1
 256 656 l 1
 320 656 l 1
 336 640 l 1
 336 320 l 0
 336 314 l 0
 336 130 335 -24 160 -24 c 0
 -15 -24 -16 130 -16 314 c 0
 -16 320 l 2xf2
80 800 m 0
 116 800 144 772 144 736 c 0xe8
 144 700 116 672 80 672 c 0xf0
 44 672 16 700 16 736 c 0xe8
 16 772 44 800 80 800 c 0
240 800 m 0xe2
 276 800 304 772 304 736 c 0xe4
 304 700 276 672 240 672 c 0xe2
 204 672 176 700 176 736 c 0xe4
 176 772 204 800 240 800 c 0xe2
EndSplineSet
Validated: 1
EndChar

StartChar: Yacute
Encoding: 221 221 106
Width: 384
VWidth: 0
Flags: W
HStem: -16 21G<112 208> 636 20G<-16 80 240 336>
VStem: -16 96<486.977 640> 112 96<0 292.923> 240 96<486.907 640>
CounterMasks: 1 38
LayerCount: 2
Fore
SplineSet
199 861 m 1
 245 815 l 1
 245 793 l 1
 143 691 l 1
 121 691 l 1
 75 737 l 1
 75 759 l 1
 177 861 l 1
 199 861 l 1
-0 656 m 1
 64 656 l 1
 80 640 l 1
 80 576 l 0
 80 518 121 440 160 365 c 1
 199 441 240 517 240 576 c 0
 240 640 l 1
 256 656 l 1
 320 656 l 1
 336 640 l 1
 336 576 l 0
 336 474 241 317 208 252 c 1
 208 0 l 1
 192 -16 l 1
 128 -16 l 1
 112 0 l 1
 112 252 l 1
 78 318 -16 474 -16 576 c 0
 -16 640 l 1
 -0 656 l 1
EndSplineSet
Validated: 1
EndChar

StartChar: agrave
Encoding: 224 224 107
Width: 384
VWidth: 0
Flags: W
HStem: -24 104<84.9918 239.491> -16 21G<245 336> 184 96<89.5772 240> 368 104<87.4187 223.497>
VStem: -24 104<86.7489 174.348> 240 96<87.1755 186 281.393 347.935>
LayerCount: 2
Fore
SplineSet
143 669 m 1x3c
 245 567 l 1
 245 545 l 1
 199 499 l 1
 177 499 l 1
 75 601 l 1
 75 623 l 1
 121 669 l 1
 143 669 l 1x3c
245 -5 m 1
 214 -18 177 -24 152 -24 c 0xbc
 87 -24 -24 -6 -24 128 c 0
 -24 262 95 280 152 280 c 0
 209 280 235 282 240 284 c 1
 240 285 240 286 240 288 c 0
 240 344 216 368 160 368 c 0
 133 368 114 362 102 352 c 1
 84 350 l 1
 27 383 l 1
 22 407 l 1
 53 448 102 472 160 472 c 0
 265 472 336 392 336 288 c 0
 336 0 l 1
 320 -16 l 1
 256 -16 l 1x7c
 245 -5 l 1
240 186 m 1
 227 184 218 183 206 183 c 0
 187 183 167 184 152 184 c 0
 87 184 80 161 80 128 c 0
 80 91 91 80 152 80 c 0
 192 80 240 86 240 104 c 0
 240 186 l 1
EndSplineSet
Validated: 1
EndChar

StartChar: aacute
Encoding: 225 225 108
Width: 384
VWidth: 0
Flags: W
HStem: -24 104<84.9918 239.491> -16 21G<245 336> 184 96<89.5772 240> 368 104<87.4187 223.497>
VStem: -24 104<86.7489 174.348> 240 96<87.1755 186 281.393 347.935>
LayerCount: 2
Fore
SplineSet
199 669 m 1x3c
 245 623 l 1
 245 601 l 1
 143 499 l 1
 121 499 l 1
 75 545 l 1
 75 567 l 1
 177 669 l 1
 199 669 l 1x3c
245 -5 m 1
 214 -18 177 -24 152 -24 c 0xbc
 87 -24 -24 -6 -24 128 c 0
 -24 262 95 280 152 280 c 0
 209 280 235 282 240 284 c 1
 240 285 240 286 240 288 c 0
 240 344 216 368 160 368 c 0
 133 368 114 362 102 352 c 1
 84 350 l 1
 27 383 l 1
 22 407 l 1
 53 448 102 472 160 472 c 0
 265 472 336 392 336 288 c 0
 336 0 l 1
 320 -16 l 1
 256 -16 l 1x7c
 245 -5 l 1
240 186 m 1
 227 184 218 183 206 183 c 0
 187 183 167 184 152 184 c 0
 87 184 80 161 80 128 c 0
 80 91 91 80 152 80 c 0
 192 80 240 86 240 104 c 0
 240 186 l 1
EndSplineSet
Validated: 1
EndChar

StartChar: acircumflex
Encoding: 226 226 109
Width: 384
VWidth: 0
Flags: W
HStem: -24 104<84.9918 239.491> -16 21G<245 336> 184 96<89.5772 240> 368 104<87.4187 223.497>
VStem: -24 104<86.7489 174.348> 240 96<87.1755 186 281.393 347.935>
LayerCount: 2
Fore
SplineSet
171 667 m 1x3c
 267 571 l 1
 267 549 l 1
 222 504 l 1
 200 504 l 1
 160 543 l 1
 120 504 l 1
 98 504 l 1
 53 549 l 1
 53 571 l 1
 149 667 l 1
 171 667 l 1x3c
245 -5 m 1
 214 -18 177 -24 152 -24 c 0xbc
 87 -24 -24 -6 -24 128 c 0
 -24 262 95 280 152 280 c 0
 209 280 235 282 240 284 c 1
 240 285 240 286 240 288 c 0
 240 344 216 368 160 368 c 0
 133 368 114 362 102 352 c 1
 84 350 l 1
 27 383 l 1
 22 407 l 1
 53 448 102 472 160 472 c 0
 265 472 336 392 336 288 c 0
 336 0 l 1
 320 -16 l 1
 256 -16 l 1x7c
 245 -5 l 1
240 186 m 1
 227 184 218 183 206 183 c 0
 187 183 167 184 152 184 c 0
 87 184 80 161 80 128 c 0
 80 91 91 80 152 80 c 0
 192 80 240 86 240 104 c 0
 240 186 l 1
EndSplineSet
Validated: 1
EndChar

StartChar: atilde
Encoding: 227 227 110
Width: 384
VWidth: 0
Flags: W
HStem: -24 104<84.9918 239.491> -16 21G<245 336> 184 96<89.5772 240> 368 104<87.4187 223.497> 491 96<196.536 234.678> 565 96<86 123.247>
VStem: -24 104<86.7489 174.348> 240 96<87.1755 186 281.393 347.935 587.951 606>
LayerCount: 2
Fore
SplineSet
104 661 m 2x37
 106 661 l 0x37
 150 661 185 632 203 597 c 1
 207 590 211 587 216 587 c 0
 219 587 221 587 225 589 c 1
 234 594 234 598 234 602 c 0
 234 606 l 1
 242 625 l 1
 307 656 l 1
 329 648 l 1
 334 636 336 623 336 609 c 0
 336 568 313 527 267 504 c 1
 249 495 231 491 215 491 c 0x3b
 170 491 134 520 117 555 c 1
 114 562 109 565 104 565 c 0
 101 565 99 565 95 563 c 1
 86 558 86 554 86 550 c 0
 86 546 l 1
 78 527 l 1
 13 496 l 1
 -9 504 l 1
 -14 516 -16 529 -16 543 c 0
 -16 584 8 625 53 648 c 1
 64 654 74 658 83 659 c 1
 93 662 98 661 104 661 c 2x37
245 -5 m 1
 214 -18 177 -24 152 -24 c 0xb3
 87 -24 -24 -6 -24 128 c 0
 -24 262 95 280 152 280 c 0
 209 280 235 282 240 284 c 1
 240 285 240 286 240 288 c 0
 240 344 216 368 160 368 c 0
 133 368 114 362 102 352 c 1
 84 350 l 1
 27 383 l 1
 22 407 l 1
 53 448 102 472 160 472 c 0
 265 472 336 392 336 288 c 0
 336 0 l 1
 320 -16 l 1
 256 -16 l 1x73
 245 -5 l 1
240 186 m 1
 227 184 218 183 206 183 c 0
 187 183 167 184 152 184 c 0
 87 184 80 161 80 128 c 0
 80 91 91 80 152 80 c 0
 192 80 240 86 240 104 c 0
 240 186 l 1
EndSplineSet
Validated: 1
EndChar

StartChar: adieresis
Encoding: 228 228 111
Width: 384
VWidth: 0
Flags: W
HStem: -24 104<84.9918 239.491> -16 21G<245 336> 184 96<89.5772 240> 368 104<87.4187 223.497> 480 128<31.3863 128.614 191.386 288.614>
VStem: -24 104<86.7489 174.348> 16 128<495.386 592.614> 176 128<495.386 592.614> 240 96<87.1755 186 281.393 347.935>
LayerCount: 2
Fore
SplineSet
80 608 m 0x3c
 116 608 144 580 144 544 c 0x3a
 144 508 116 480 80 480 c 0x3c
 44 480 16 508 16 544 c 0x3a
 16 580 44 608 80 608 c 0x3c
240 608 m 0x3880
 276 608 304 580 304 544 c 0x39
 304 508 276 480 240 480 c 0x3880
 204 480 176 508 176 544 c 0x39
 176 580 204 608 240 608 c 0x3880
245 -5 m 1
 214 -18 177 -24 152 -24 c 0xbc80
 87 -24 -24 -6 -24 128 c 0
 -24 262 95 280 152 280 c 0
 209 280 235 282 240 284 c 1
 240 285 240 286 240 288 c 0
 240 344 216 368 160 368 c 0
 133 368 114 362 102 352 c 1
 84 350 l 1
 27 383 l 1
 22 407 l 1
 53 448 102 472 160 472 c 0
 265 472 336 392 336 288 c 0
 336 0 l 1
 320 -16 l 1
 256 -16 l 1x7c80
 245 -5 l 1
240 186 m 1
 227 184 218 183 206 183 c 0
 187 183 167 184 152 184 c 0
 87 184 80 161 80 128 c 0
 80 91 91 80 152 80 c 0
 192 80 240 86 240 104 c 0
 240 186 l 1
EndSplineSet
Validated: 1
EndChar

StartChar: ccedilla
Encoding: 231 231 112
Width: 384
VWidth: 0
Flags: W
HStem: -176 104<74.9017 158.971> -24 104<103.764 159.955> 368 104<100.954 218.006>
VStem: -24 104<101.623 345.386> 160 96<-69.897 -23.8614>
LayerCount: 2
Fore
SplineSet
160 472 m 0
 257 472 310 414 331 335 c 1
 320 316 l 1
 254 298 l 1
 234 310 l 1
 226 346 210 368 160 368 c 0
 80 368 80 308 80 224 c 0
 80 140 80 80 160 80 c 0
 210 80 226 102 234 138 c 1
 254 150 l 1
 320 132 l 1
 331 113 l 1
 318 62 292 20 249 -4 c 1
 254 -19 256 -32 256 -48 c 0
 256 -113 200 -176 112 -176 c 0
 87 -176 64 -170 45 -160 c 1
 38 -138 l 1
 73 -79 l 1
 89 -71 l 1
 94 -72 102 -72 112 -72 c 0
 152 -72 160 -66 160 -48 c 0
 160 -35 153 -26 150 -24 c 1
 15 -18 -24 98 -24 224 c 0
 -24 354 19 472 160 472 c 0
EndSplineSet
Validated: 1
EndChar

StartChar: egrave
Encoding: 232 232 113
Width: 384
VWidth: 0
Flags: W
HStem: -24 104<100.536 218.123> 176 96<81 239> 368 104<101.12 219.464>
VStem: -24 105<103.652 176 272 344.348>
CounterMasks: 1 e0
LayerCount: 2
Fore
SplineSet
143 669 m 1
 245 567 l 1
 245 545 l 1
 199 499 l 1
 177 499 l 1
 75 601 l 1
 75 623 l 1
 121 669 l 1
 143 669 l 1
160 472 m 0
 301 472 344 354 344 224 c 0
 344 213 344 201 343 190 c 1
 327 176 l 1
 81 176 l 1
 85 116 96 80 160 80 c 0
 199 80 217 94 227 114 c 1
 245 122 l 1
 311 105 l 1
 322 84 l 1
 296 20 244 -24 160 -24 c 0
 19 -24 -24 94 -24 224 c 0
 -24 354 19 472 160 472 c 0
160 368 m 0
 96 368 85 331 81 272 c 1
 239 272 l 1
 235 332 224 368 160 368 c 0
EndSplineSet
Validated: 1
EndChar

StartChar: eacute
Encoding: 233 233 114
Width: 384
VWidth: 0
Flags: W
HStem: -24 104<100.536 218.123> 176 96<81 239> 368 104<101.12 219.464>
VStem: -24 105<103.652 176 272 344.348>
CounterMasks: 1 e0
LayerCount: 2
Fore
SplineSet
199 669 m 1
 245 623 l 1
 245 601 l 1
 143 499 l 1
 121 499 l 1
 75 545 l 1
 75 567 l 1
 177 669 l 1
 199 669 l 1
160 472 m 0
 301 472 344 354 344 224 c 0
 344 213 344 201 343 190 c 1
 327 176 l 1
 81 176 l 1
 85 116 96 80 160 80 c 0
 199 80 217 94 227 114 c 1
 245 122 l 1
 311 105 l 1
 322 84 l 1
 296 20 244 -24 160 -24 c 0
 19 -24 -24 94 -24 224 c 0
 -24 354 19 472 160 472 c 0
160 368 m 0
 96 368 85 331 81 272 c 1
 239 272 l 1
 235 332 224 368 160 368 c 0
EndSplineSet
Validated: 1
EndChar

StartChar: ecircumflex
Encoding: 234 234 115
Width: 384
VWidth: 0
Flags: W
HStem: -24 104<100.536 218.123> 176 96<81 239> 368 104<101.12 219.464>
VStem: -24 105<103.652 176 272 344.348>
CounterMasks: 1 e0
LayerCount: 2
Fore
SplineSet
171 667 m 1
 267 571 l 1
 267 549 l 1
 222 504 l 1
 200 504 l 1
 160 543 l 1
 120 504 l 1
 98 504 l 1
 53 549 l 1
 53 571 l 1
 149 667 l 1
 171 667 l 1
160 472 m 0
 301 472 344 354 344 224 c 0
 344 213 344 201 343 190 c 1
 327 176 l 1
 81 176 l 1
 85 116 96 80 160 80 c 0
 199 80 217 94 227 114 c 1
 245 122 l 1
 311 105 l 1
 322 84 l 1
 296 20 244 -24 160 -24 c 0
 19 -24 -24 94 -24 224 c 0
 -24 354 19 472 160 472 c 0
160 368 m 0
 96 368 85 331 81 272 c 1
 239 272 l 1
 235 332 224 368 160 368 c 0
EndSplineSet
Validated: 1
EndChar

StartChar: edieresis
Encoding: 235 235 116
Width: 384
VWidth: 0
Flags: W
HStem: -24 104<100.536 218.123> 176 96<81 239> 368 104<101.12 219.464> 480 128<31.3863 128.614 191.386 288.614>
VStem: -24 105<103.652 176 272 344.348> 16 128<495.386 592.614> 176 128<495.386 592.614>
LayerCount: 2
Fore
SplineSet
80 608 m 0xf6
 116 608 144 580 144 544 c 0
 144 508 116 480 80 480 c 0
 44 480 16 508 16 544 c 0
 16 580 44 608 80 608 c 0xf6
240 608 m 0
 276 608 304 580 304 544 c 0
 304 508 276 480 240 480 c 0
 204 480 176 508 176 544 c 0
 176 580 204 608 240 608 c 0
160 472 m 0
 301 472 344 354 344 224 c 0
 344 213 344 201 343 190 c 1
 327 176 l 1
 81 176 l 1
 85 116 96 80 160 80 c 0
 199 80 217 94 227 114 c 1
 245 122 l 1
 311 105 l 1
 322 84 l 1
 296 20 244 -24 160 -24 c 0
 19 -24 -24 94 -24 224 c 0xfa
 -24 354 19 472 160 472 c 0
160 368 m 0
 96 368 85 331 81 272 c 1
 239 272 l 1
 235 332 224 368 160 368 c 0
EndSplineSet
Validated: 1
EndChar

StartChar: igrave
Encoding: 236 236 117
Width: 384
VWidth: 0
Flags: W
HStem: -16 96<32 112 208 288> 368 96<64 112>
VStem: 112 96<80 368>
LayerCount: 2
Fore
SplineSet
143 669 m 1
 245 567 l 1
 245 545 l 1
 199 499 l 1
 177 499 l 1
 75 601 l 1
 75 623 l 1
 121 669 l 1
 143 669 l 1
64 464 m 1
 192 464 l 1
 208 448 l 1
 208 80 l 1
 288 80 l 1
 304 64 l 1
 304 0 l 1
 288 -16 l 1
 32 -16 l 1
 16 0 l 1
 16 64 l 1
 32 80 l 1
 112 80 l 1
 112 368 l 1
 64 368 l 1
 48 384 l 1
 48 448 l 1
 64 464 l 1
EndSplineSet
Validated: 1
EndChar

StartChar: iacute
Encoding: 237 237 118
Width: 384
VWidth: 0
Flags: W
HStem: -16 96<32 112 208 288> 368 96<64 112>
VStem: 112 96<80 368>
LayerCount: 2
Fore
SplineSet
199 669 m 1
 245 623 l 1
 245 601 l 1
 143 499 l 1
 121 499 l 1
 75 545 l 1
 75 567 l 1
 177 669 l 1
 199 669 l 1
64 464 m 1
 192 464 l 1
 208 448 l 1
 208 80 l 1
 288 80 l 1
 304 64 l 1
 304 0 l 1
 288 -16 l 1
 32 -16 l 1
 16 0 l 1
 16 64 l 1
 32 80 l 1
 112 80 l 1
 112 368 l 1
 64 368 l 1
 48 384 l 1
 48 448 l 1
 64 464 l 1
EndSplineSet
Validated: 1
EndChar

StartChar: icircumflex
Encoding: 238 238 119
Width: 384
VWidth: 0
Flags: W
HStem: -16 96<32 112 208 288> 368 96<64 112>
VStem: 112 96<80 368>
LayerCount: 2
Fore
SplineSet
171 667 m 1
 267 571 l 1
 267 549 l 1
 222 504 l 1
 200 504 l 1
 160 543 l 1
 120 504 l 1
 98 504 l 1
 53 549 l 1
 53 571 l 1
 149 667 l 1
 171 667 l 1
64 464 m 1
 192 464 l 1
 208 448 l 1
 208 80 l 1
 288 80 l 1
 304 64 l 1
 304 0 l 1
 288 -16 l 1
 32 -16 l 1
 16 0 l 1
 16 64 l 1
 32 80 l 1
 112 80 l 1
 112 368 l 1
 64 368 l 1
 48 384 l 1
 48 448 l 1
 64 464 l 1
EndSplineSet
Validated: 1
EndChar

StartChar: idieresis
Encoding: 239 239 120
Width: 384
VWidth: 0
Flags: W
HStem: -16 96<32 112 208 288> 368 96<64 112> 480 128<31.3863 128.614 191.386 288.614>
VStem: 16 128<495.386 592.614> 112 96<80 368> 176 128<495.386 592.614>
LayerCount: 2
Fore
SplineSet
80 608 m 0xf0
 116 608 144 580 144 544 c 0
 144 508 116 480 80 480 c 0
 44 480 16 508 16 544 c 0
 16 580 44 608 80 608 c 0xf0
240 608 m 0
 276 608 304 580 304 544 c 0
 304 508 276 480 240 480 c 0
 204 480 176 508 176 544 c 0xe4
 176 580 204 608 240 608 c 0
64 464 m 1
 192 464 l 1
 208 448 l 1
 208 80 l 1xe8
 288 80 l 1
 304 64 l 1
 304 0 l 1
 288 -16 l 1
 32 -16 l 1
 16 0 l 1
 16 64 l 1xf4
 32 80 l 1
 112 80 l 1
 112 368 l 1xe8
 64 368 l 1
 48 384 l 1
 48 448 l 1
 64 464 l 1
EndSplineSet
Validated: 1
EndChar

StartChar: ntilde
Encoding: 241 241 121
Width: 384
VWidth: 0
Flags: W
HStem: -16 21G<-16 80 240 336> 368 104<113.363 206.845> 444 20G<-16 80> 491 96<196.536 234.678> 565 96<86 123.247>
VStem: -16 96<0 329.133 546 564.049> 240 96<0 327.158 587.951 606>
LayerCount: 2
Fore
SplineSet
104 661 m 2x8e
 106 661 l 0x8e
 150 661 185 632 203 597 c 1
 207 590 211 587 216 587 c 0
 219 587 221 587 225 589 c 1
 234 594 234 598 234 602 c 0
 234 606 l 1
 242 625 l 1
 307 656 l 1
 329 648 l 1
 334 636 336 623 336 609 c 0
 336 568 313 527 267 504 c 1
 249 495 231 491 215 491 c 0x96
 170 491 134 520 117 555 c 1
 114 562 109 565 104 565 c 0
 101 565 99 565 95 563 c 1
 86 558 86 554 86 550 c 0
 86 546 l 1
 78 527 l 1
 13 496 l 1
 -9 504 l 1
 -14 516 -16 529 -16 543 c 0
 -16 584 8 625 53 648 c 1
 64 654 74 658 83 659 c 1
 93 662 98 661 104 661 c 2x8e
160 472 m 0xc6
 249 472 336 422 336 224 c 0
 336 0 l 1
 320 -16 l 1
 256 -16 l 1
 240 0 l 1
 240 224 l 0
 240 319 209 368 160 368 c 0xc6
 98 368 80 285 80 224 c 0
 80 0 l 1
 64 -16 l 1
 0 -16 l 1
 -16 0 l 1
 -16 448 l 1
 0 464 l 1
 64 464 l 1xa6
 80 448 l 1
 80 448 150 472 160 472 c 0xc6
EndSplineSet
Validated: 1
EndChar

StartChar: ograve
Encoding: 242 242 122
Width: 384
VWidth: 0
Flags: W
HStem: -24 104<100.954 219.046> 368 104<100.954 219.046>
VStem: -24 104<102.614 345.386> 240 104<102.614 345.386>
LayerCount: 2
Fore
SplineSet
143 669 m 1
 245 567 l 1
 245 545 l 1
 199 499 l 1
 177 499 l 1
 75 601 l 1
 75 623 l 1
 121 669 l 1
 143 669 l 1
160 472 m 0
 301 472 344 354 344 224 c 0
 344 94 301 -24 160 -24 c 0
 19 -24 -24 94 -24 224 c 0
 -24 354 19 472 160 472 c 0
160 368 m 0
 80 368 80 308 80 224 c 0
 80 140 80 80 160 80 c 0
 240 80 240 140 240 224 c 0
 240 308 240 368 160 368 c 0
EndSplineSet
Validated: 1
EndChar

StartChar: oacute
Encoding: 243 243 123
Width: 384
VWidth: 0
Flags: W
HStem: -24 104<100.954 219.046> 368 104<100.954 219.046>
VStem: -24 104<102.614 345.386> 240 104<102.614 345.386>
LayerCount: 2
Fore
SplineSet
199 669 m 1
 245 623 l 1
 245 601 l 1
 143 499 l 1
 121 499 l 1
 75 545 l 1
 75 567 l 1
 177 669 l 1
 199 669 l 1
160 472 m 0
 301 472 344 354 344 224 c 0
 344 94 301 -24 160 -24 c 0
 19 -24 -24 94 -24 224 c 0
 -24 354 19 472 160 472 c 0
160 368 m 0
 80 368 80 308 80 224 c 0
 80 140 80 80 160 80 c 0
 240 80 240 140 240 224 c 0
 240 308 240 368 160 368 c 0
EndSplineSet
Validated: 1
EndChar

StartChar: ocircumflex
Encoding: 244 244 124
Width: 384
VWidth: 0
Flags: W
HStem: -24 104<100.954 219.046> 368 104<100.954 219.046>
VStem: -24 104<102.614 345.386> 240 104<102.614 345.386>
LayerCount: 2
Fore
SplineSet
171 667 m 1
 267 571 l 1
 267 549 l 1
 222 504 l 1
 200 504 l 1
 160 543 l 1
 120 504 l 1
 98 504 l 1
 53 549 l 1
 53 571 l 1
 149 667 l 1
 171 667 l 1
160 472 m 0
 301 472 344 354 344 224 c 0
 344 94 301 -24 160 -24 c 0
 19 -24 -24 94 -24 224 c 0
 -24 354 19 472 160 472 c 0
160 368 m 0
 80 368 80 308 80 224 c 0
 80 140 80 80 160 80 c 0
 240 80 240 140 240 224 c 0
 240 308 240 368 160 368 c 0
EndSplineSet
Validated: 1
EndChar

StartChar: otilde
Encoding: 245 245 125
Width: 384
VWidth: 0
Flags: W
HStem: -24 104<100.954 219.046> 368 104<100.954 219.046> 491 96<196.536 234.678> 565 96<86 123.247>
VStem: -24 104<102.614 345.386> 240 104<102.614 345.386>
LayerCount: 2
Fore
SplineSet
104 661 m 2xdc
 106 661 l 0xdc
 150 661 185 632 203 597 c 1
 207 590 211 587 216 587 c 0
 219 587 221 587 225 589 c 1
 234 594 234 598 234 602 c 0
 234 606 l 1
 242 625 l 1
 307 656 l 1
 329 648 l 1
 334 636 336 623 336 609 c 0
 336 568 313 527 267 504 c 1
 249 495 231 491 215 491 c 0xec
 170 491 134 520 117 555 c 1
 114 562 109 565 104 565 c 0
 101 565 99 565 95 563 c 1
 86 558 86 554 86 550 c 0
 86 546 l 1
 78 527 l 1
 13 496 l 1
 -9 504 l 1
 -14 516 -16 529 -16 543 c 0
 -16 584 8 625 53 648 c 1
 64 654 74 658 83 659 c 1
 93 662 98 661 104 661 c 2xdc
160 472 m 0
 301 472 344 354 344 224 c 0
 344 94 301 -24 160 -24 c 0
 19 -24 -24 94 -24 224 c 0
 -24 354 19 472 160 472 c 0
160 368 m 0
 80 368 80 308 80 224 c 0
 80 140 80 80 160 80 c 0
 240 80 240 140 240 224 c 0
 240 308 240 368 160 368 c 0
EndSplineSet
Validated: 1
EndChar

StartChar: odieresis
Encoding: 246 246 126
Width: 384
VWidth: 0
Flags: W
HStem: -24 104<100.954 219.046> 368 104<100.954 219.046> 480 128<31.3863 128.614 191.386 288.614>
VStem: -24 104<102.614 345.386> 16 128<495.386 592.614> 176 128<495.386 592.614> 240 104<102.614 345.386>
LayerCount: 2
Fore
SplineSet
80 608 m 0xf0
 116 608 144 580 144 544 c 0xe8
 144 508 116 480 80 480 c 0xf0
 44 480 16 508 16 544 c 0xe8
 16 580 44 608 80 608 c 0xf0
240 608 m 0xe2
 276 608 304 580 304 544 c 0xe4
 304 508 276 480 240 480 c 0xe2
 204 480 176 508 176 544 c 0xe4
 176 580 204 608 240 608 c 0xe2
160 472 m 0
 301 472 344 354 344 224 c 0
 344 94 301 -24 160 -24 c 0
 19 -24 -24 94 -24 224 c 0xf2
 -24 354 19 472 160 472 c 0
160 368 m 0
 80 368 80 308 80 224 c 0
 80 140 80 80 160 80 c 0
 240 80 240 140 240 224 c 0
 240 308 240 368 160 368 c 0
EndSplineSet
Validated: 1
EndChar

StartChar: ugrave
Encoding: 249 249 127
Width: 384
VWidth: 0
Flags: W
HStem: -24 104<113.155 206.637> -16 21G<240 336> 444 20G<-16 80 240 336>
VStem: -16 96<120.842 448> 240 96<118.867 448>
LayerCount: 2
Fore
SplineSet
143 669 m 1x38
 245 567 l 1
 245 545 l 1
 199 499 l 1
 177 499 l 1
 75 601 l 1
 75 623 l 1
 121 669 l 1
 143 669 l 1x38
-0 464 m 1
 64 464 l 1
 80 448 l 1
 80 224 l 0
 80 129 111 80 160 80 c 0xb8
 222 80 240 163 240 224 c 0
 240 448 l 1
 256 464 l 1
 320 464 l 1
 336 448 l 1
 336 0 l 1
 320 -16 l 1
 256 -16 l 1x78
 240 0 l 1
 240 0 170 -24 160 -24 c 0xb8
 71 -24 -16 26 -16 224 c 0
 -16 448 l 1
 -0 464 l 1
EndSplineSet
Validated: 1
EndChar

StartChar: uacute
Encoding: 250 250 128
Width: 384
VWidth: 0
Flags: W
HStem: -24 104<113.155 206.637> -16 21G<240 336> 444 20G<-16 80 240 336>
VStem: -16 96<120.842 448> 240 96<118.867 448>
LayerCount: 2
Fore
SplineSet
199 669 m 1x38
 245 623 l 1
 245 601 l 1
 143 499 l 1
 121 499 l 1
 75 545 l 1
 75 567 l 1
 177 669 l 1
 199 669 l 1x38
-0 464 m 1
 64 464 l 1
 80 448 l 1
 80 224 l 0
 80 129 111 80 160 80 c 0xb8
 222 80 240 163 240 224 c 0
 240 448 l 1
 256 464 l 1
 320 464 l 1
 336 448 l 1
 336 0 l 1
 320 -16 l 1
 256 -16 l 1x78
 240 0 l 1
 240 0 170 -24 160 -24 c 0xb8
 71 -24 -16 26 -16 224 c 0
 -16 448 l 1
 -0 464 l 1
EndSplineSet
Validated: 1
EndChar

StartChar: ucircumflex
Encoding: 251 251 129
Width: 384
VWidth: 0
Flags: W
HStem: -24 104<113.155 206.637> -16 21G<240 336> 444 20G<-16 80 240 336>
VStem: -16 96<120.842 448> 240 96<118.867 448>
LayerCount: 2
Fore
SplineSet
171 667 m 1x38
 267 571 l 1
 267 549 l 1
 222 504 l 1
 200 504 l 1
 160 543 l 1
 120 504 l 1
 98 504 l 1
 53 549 l 1
 53 571 l 1
 149 667 l 1
 171 667 l 1x38
-0 464 m 1
 64 464 l 1
 80 448 l 1
 80 224 l 0
 80 129 111 80 160 80 c 0xb8
 222 80 240 163 240 224 c 0
 240 448 l 1
 256 464 l 1
 320 464 l 1
 336 448 l 1
 336 0 l 1
 320 -16 l 1
 256 -16 l 1x78
 240 0 l 1
 240 0 170 -24 160 -24 c 0xb8
 71 -24 -16 26 -16 224 c 0
 -16 448 l 1
 -0 464 l 1
EndSplineSet
Validated: 1
EndChar

StartChar: udieresis
Encoding: 252 252 130
Width: 384
VWidth: 0
Flags: W
HStem: -24 104<113.155 206.637> -16 21G<240 336> 444 20G<-16 80 240 336> 480 128<31.3863 128.614 191.386 288.614>
VStem: -16 96<120.842 448> 16 128<495.386 592.614> 176 128<495.386 592.614> 240 96<118.867 448>
LayerCount: 2
Fore
SplineSet
80 608 m 0x38
 116 608 144 580 144 544 c 0x34
 144 508 116 480 80 480 c 0x38
 44 480 16 508 16 544 c 0x34
 16 580 44 608 80 608 c 0x38
240 608 m 0x31
 276 608 304 580 304 544 c 0x32
 304 508 276 480 240 480 c 0x31
 204 480 176 508 176 544 c 0x32
 176 580 204 608 240 608 c 0x31
-0 464 m 1
 64 464 l 1
 80 448 l 1
 80 224 l 0
 80 129 111 80 160 80 c 0xb9
 222 80 240 163 240 224 c 0
 240 448 l 1
 256 464 l 1
 320 464 l 1
 336 448 l 1
 336 0 l 1
 320 -16 l 1
 256 -16 l 1x79
 240 0 l 1
 240 0 170 -24 160 -24 c 0
 71 -24 -16 26 -16 224 c 0
 -16 448 l 1xb9
 -0 464 l 1
EndSplineSet
Validated: 1
EndChar

StartChar: yacute
Encoding: 253 253 131
Width: 384
VWidth: 0
Flags: W
HStem: -216 104<101.138 218.904> -24 104<102.529 219.591> 444 20G<-16 80 240 336>
VStem: -16 96<-89.9955 -70.4104 101.576 448> 240 96<-89.0156 -2 99.5623 448>
LayerCount: 2
Fore
SplineSet
199 669 m 1
 245 623 l 1
 245 601 l 1
 143 499 l 1
 121 499 l 1
 75 545 l 1
 75 567 l 1
 177 669 l 1
 199 669 l 1
-0 464 m 1
 64 464 l 1
 80 448 l 1
 80 224 l 0
 80 140 80 80 160 80 c 0
 227 80 240 121 240 192 c 0
 240 448 l 1
 256 464 l 1
 320 464 l 1
 336 448 l 1
 336 0 l 0
 336 -131 299 -216 160 -216 c 0
 53 -216 3 -165 -11 -78 c 1
 1 -60 l 1
 65 -42 l 1
 85 -53 l 1
 95 -98 116 -112 160 -112 c 0
 214 -112 239 -90 240 -2 c 1
 215 -19 191 -24 160 -24 c 0
 53 -24 -16 52 -16 224 c 0
 -16 448 l 1
 -0 464 l 1
EndSplineSet
Validated: 1
EndChar

StartChar: ydieresis
Encoding: 255 255 132
Width: 384
VWidth: 0
Flags: W
HStem: -216 104<101.138 218.904> -24 104<102.529 219.591> 444 20G<-16 80 240 336> 480 128<31.3863 128.614 191.386 288.614>
VStem: -16 96<-89.9955 -70.4104 101.576 448> 16 128<495.386 592.614> 176 128<495.386 592.614> 240 96<-89.0156 -2 99.5623 448>
LayerCount: 2
Fore
SplineSet
80 608 m 0xf8
 116 608 144 580 144 544 c 0xf4
 144 508 116 480 80 480 c 0xf8
 44 480 16 508 16 544 c 0xf4
 16 580 44 608 80 608 c 0xf8
240 608 m 0xf1
 276 608 304 580 304 544 c 0xf2
 304 508 276 480 240 480 c 0xf1
 204 480 176 508 176 544 c 0xf2
 176 580 204 608 240 608 c 0xf1
-0 464 m 1
 64 464 l 1
 80 448 l 1
 80 224 l 0
 80 140 80 80 160 80 c 0
 227 80 240 121 240 192 c 0
 240 448 l 1
 256 464 l 1
 320 464 l 1
 336 448 l 1
 336 0 l 0
 336 -131 299 -216 160 -216 c 0
 53 -216 3 -165 -11 -78 c 1
 1 -60 l 1
 65 -42 l 1
 85 -53 l 1
 95 -98 116 -112 160 -112 c 0
 214 -112 239 -90 240 -2 c 1
 215 -19 191 -24 160 -24 c 0
 53 -24 -16 52 -16 224 c 0
 -16 448 l 1xf9
 -0 464 l 1
EndSplineSet
Validated: 1
EndChar

StartChar: question
Encoding: 63 63 134
Width: 384
VWidth: 0
Flags: W
HStem: -24 144<107.796 212.204> 464 21G<-24 80> 560 104<92.0565 228.614>
VStem: -24 104<480 547.625> 88 144<-4.20401 100.204> 112 96<184 329.21> 240 104<437.541 548.743>
LayerCount: 2
Fore
SplineSet
160 664 m 0xf6
 297 664 344 582 344 480 c 0
 344 336 208 363 208 288 c 0
 208 184 l 1
 192 168 l 1
 128 168 l 1
 112 184 l 1
 112 288 l 0
 112 431 240 405 240 480 c 0
 240 552 219 560 160 560 c 0
 101 560 80 552 80 480 c 1
 64 464 l 1
 -8 464 l 1
 -24 480 l 1
 -24 582 39 664 160 664 c 0xf6
160 120 m 0
 200 120 232 88 232 48 c 0
 232 8 200 -24 160 -24 c 0
 120 -24 88 8 88 48 c 0xfa
 88 88 120 120 160 120 c 0
EndSplineSet
Validated: 1
EndChar

StartChar: exclam
Encoding: 33 33 135
Width: 384
VWidth: 0
Flags: W
HStem: -24 144<107.796 212.204> 636 20G<96 224>
VStem: 88 144<-4.20401 100.204> 96 128<342.687 640>
LayerCount: 2
Fore
SplineSet
112 656 m 1xd0
 208 656 l 1
 224 640 l 1
 224 512 224 312 208 182 c 1
 192 168 l 1
 128 168 l 1
 112 182 l 1
 96 312 96 512 96 640 c 1
 112 656 l 1xd0
160 120 m 0
 200 120 232 88 232 48 c 0
 232 8 200 -24 160 -24 c 0
 120 -24 88 8 88 48 c 0xe0
 88 88 120 120 160 120 c 0
EndSplineSet
Validated: 1
EndChar

StartChar: numbersign
Encoding: 35 35 136
Width: 384
VWidth: 0
Flags: W
HStem: -16 21G<0 104 144 248> 144 96<-16 16 131 160 275 336> 392 96<-16 44 159 188 303 336> 636 20G<72 176 216 320>
LayerCount: 2
Fore
SplineSet
88 656 m 1
 160 656 l 1
 176 638 l 1
 159 488 l 1
 199 488 l 1
 216 642 l 1
 232 656 l 1
 304 656 l 1
 320 638 l 1
 303 488 l 1
 336 488 l 1
 352 472 l 1
 352 408 l 1
 336 392 l 1
 292 392 l 1
 275 240 l 1
 336 240 l 1
 352 224 l 1
 352 160 l 1
 336 144 l 1
 264 144 l 1
 248 -2 l 1
 232 -16 l 1
 160 -16 l 1
 144 2 l 1
 160 144 l 1
 120 144 l 1
 104 -2 l 1
 88 -16 l 1
 16 -16 l 1
 0 2 l 1
 16 144 l 1
 -16 144 l 1
 -32 160 l 1
 -32 224 l 1
 -16 240 l 1
 27 240 l 1
 44 392 l 1
 -16 392 l 1
 -32 408 l 1
 -32 472 l 1
 -16 488 l 1
 55 488 l 1
 72 642 l 1
 88 656 l 1
148 392 m 1
 131 240 l 1
 171 240 l 1
 188 392 l 1
 148 392 l 1
EndSplineSet
Validated: 1
EndChar

StartChar: period
Encoding: 46 46 137
Width: 384
VWidth: 0
Flags: W
HStem: -24 144<99.796 204.204>
VStem: 80 144<-4.20401 100.204>
LayerCount: 2
Fore
SplineSet
152 120 m 0
 192 120 224 88 224 48 c 0
 224 8 192 -24 152 -24 c 0
 112 -24 80 8 80 48 c 0
 80 88 112 120 152 120 c 0
EndSplineSet
Validated: 1
EndChar

StartChar: comma
Encoding: 44 44 138
Width: 384
VWidth: 0
Flags: W
HStem: -128 248<119.118 144 156 168.334>
VStem: 80 144<-1.90625 100.204>
LayerCount: 2
Fore
SplineSet
152 120 m 0
 192 120 224 88 224 48 c 0
 224 -21 189 -81 156 -122 c 1
 144 -128 l 1
 96 -128 l 1
 85 -101 l 1
 108 -78 115 -41 118 -15 c 1
 95 -2 80 21 80 48 c 0
 80 88 112 120 152 120 c 0
EndSplineSet
Validated: 1
EndChar

StartChar: colon
Encoding: 58 58 139
Width: 384
VWidth: 0
Flags: W
HStem: -24 144<99.796 204.204> 224 144<99.796 204.204>
VStem: 80 144<-4.20401 100.204 243.796 348.204>
LayerCount: 2
Fore
SplineSet
152 368 m 0
 192 368 224 336 224 296 c 0
 224 256 192 224 152 224 c 0
 112 224 80 256 80 296 c 0
 80 336 112 368 152 368 c 0
152 120 m 0
 192 120 224 88 224 48 c 0
 224 8 192 -24 152 -24 c 0
 112 -24 80 8 80 48 c 0
 80 88 112 120 152 120 c 0
EndSplineSet
Validated: 1
EndChar

StartChar: semicolon
Encoding: 59 59 140
Width: 384
VWidth: 0
Flags: W
HStem: 224 144<99.796 204.204>
VStem: 80 144<-1.90625 100.204 243.796 348.204>
LayerCount: 2
Fore
SplineSet
152 368 m 0
 192 368 224 336 224 296 c 0
 224 256 192 224 152 224 c 0
 112 224 80 256 80 296 c 0
 80 336 112 368 152 368 c 0
152 120 m 0
 192 120 224 88 224 48 c 0
 224 -21 189 -81 156 -122 c 1
 144 -128 l 1
 96 -128 l 1
 85 -101 l 1
 108 -78 115 -41 118 -15 c 1
 95 -2 80 21 80 48 c 0
 80 88 112 120 152 120 c 0
EndSplineSet
Validated: 1
EndChar

StartChar: quotesingle
Encoding: 39 39 141
Width: 384
VWidth: 0
Flags: W
HStem: 424 240<96 160>
VStem: 72 112<443.612 648> 80 96<440 642.773>
LayerCount: 2
Fore
SplineSet
88 664 m 1xc0
 168 664 l 1
 184 648 l 1xc0
 184 535 176 518 176 440 c 1
 160 424 l 1
 96 424 l 1
 80 440 l 1xa0
 80 518 72 535 72 648 c 1
 88 664 l 1xc0
EndSplineSet
Validated: 1
EndChar

StartChar: quotedbl
Encoding: 34 34 142
Width: 384
VWidth: 0
Flags: W
HStem: 424 240<48 112 208 272>
VStem: 24 112<443.612 648> 32 96<440 642.773> 184 112<443.612 648> 192 96<440 642.773>
LayerCount: 2
Fore
SplineSet
40 664 m 1xc0
 120 664 l 1
 136 648 l 1xc0
 136 535 128 518 128 440 c 1
 112 424 l 1
 48 424 l 1
 32 440 l 1xa0
 32 518 24 535 24 648 c 1
 40 664 l 1xc0
200 664 m 1
 280 664 l 1
 296 648 l 1x90
 296 535 288 518 288 440 c 1
 272 424 l 1
 208 424 l 1
 192 440 l 1x88
 192 518 184 535 184 648 c 1x90
 200 664 l 1
EndSplineSet
Validated: 1
EndChar

StartChar: underscore
Encoding: 95 95 143
Width: 384
VWidth: 0
Flags: W
HStem: -24 104<-8 328>
LayerCount: 2
Fore
SplineSet
-24 -8 m 1
 -24 64 l 1
 -8 80 l 1
 328 80 l 1
 344 64 l 1
 344 -8 l 1
 328 -24 l 1
 -8 -24 l 1
 -24 -8 l 1
EndSplineSet
Validated: 1
EndChar

StartChar: parenleft
Encoding: 40 40 144
Width: 384
VWidth: 0
Flags: W
HStem: -15 21G<171 248> 635 20G<171 248>
VStem: 24 120<175.297 464.703>
LayerCount: 2
Fore
SplineSet
248 644 m 1
 267 574 l 1
 256 555 l 1
 203 541 144 490 144 320 c 0
 144 150 203 99 256 85 c 1
 267 66 l 1
 248 -4 l 1
 229 -15 l 1
 113 15 24 126 24 320 c 0
 24 514 113 625 229 655 c 1
 248 644 l 1
EndSplineSet
Validated: 1
EndChar

StartChar: parenright
Encoding: 41 41 145
Width: 384
VWidth: 0
Flags: W
HStem: -15 21G<72 149> 635 20G<72 149>
VStem: 176 120<175.297 464.703>
LayerCount: 2
Fore
SplineSet
91 655 m 1
 207 625 296 514 296 320 c 0
 296 126 207 15 91 -15 c 1
 72 -4 l 1
 53 66 l 1
 64 85 l 1
 117 99 176 150 176 320 c 0
 176 490 117 541 64 555 c 1
 53 574 l 1
 72 644 l 1
 91 655 l 1
EndSplineSet
Validated: 1
EndChar

StartChar: bracketleft
Encoding: 91 91 146
Width: 384
VWidth: 0
Flags: W
HStem: -24 104<144 264> 560 104<144 264>
VStem: 40 240<-8 64 576 648> 40 104<80 560>
LayerCount: 2
Fore
SplineSet
56 664 m 1xe0
 264 664 l 1
 280 648 l 1
 280 576 l 1xe0
 264 560 l 1
 144 560 l 1
 144 80 l 1xd0
 264 80 l 1
 280 64 l 1
 280 -8 l 1
 264 -24 l 1
 56 -24 l 1
 40 -8 l 1
 40 648 l 1
 56 664 l 1xe0
EndSplineSet
Validated: 1
EndChar

StartChar: bracketright
Encoding: 93 93 147
Width: 384
VWidth: 0
Flags: W
HStem: -24 104<56 176> 560 104<56 176>
VStem: 40 240<-8 64 576 648> 176 104<80 560>
LayerCount: 2
Fore
SplineSet
280 648 m 1xe0
 280 -8 l 1
 264 -24 l 1
 56 -24 l 1
 40 -8 l 1
 40 64 l 1xe0
 56 80 l 1
 176 80 l 1
 176 560 l 1xd0
 56 560 l 1
 40 576 l 1
 40 648 l 1
 56 664 l 1
 264 664 l 1
 280 648 l 1xe0
EndSplineSet
Validated: 1
EndChar

StartChar: braceleft
Encoding: 123 123 148
Width: 384
VWidth: 0
Flags: W
HStem: -24 104<152.752 264> 264 112<0 62.4375> 560 104<152.752 264>
VStem: 48 96<90.2909 236.376 403.624 549.709> 64 96<129.508 259.311 380.82 510.492>
CounterMasks: 1 e0
LayerCount: 2
Fore
SplineSet
128 320 m 1xe8
 155 302 160 275 160 248 c 0xe8
 160 204 144 155 144 128 c 0
 144 82 186 80 264 80 c 1
 280 64 l 1
 280 -8 l 1
 264 -24 l 1
 126 -24 48 20 48 128 c 0xf0
 48 165 64 203 64 228 c 0
 64 248 60 264 0 264 c 1
 -16 280 l 1
 -16 360 l 1
 0 376 l 1
 60 376 64 392 64 412 c 0xe8
 64 437 48 475 48 512 c 0
 48 620 126 664 264 664 c 1
 280 648 l 1
 280 576 l 1
 264 560 l 1
 186 560 144 558 144 512 c 0xf0
 144 485 160 436 160 392 c 0
 160 366 153 337 128 320 c 1xe8
EndSplineSet
Validated: 1
EndChar

StartChar: braceright
Encoding: 125 125 149
Width: 384
VWidth: 0
Flags: W
HStem: -24 104<48 159.248> 264 112<249.562 312> 560 104<48 159.248>
VStem: 152 96<129.508 259.18 380.689 510.492> 168 96<90.2909 236.376 403.624 549.709>
CounterMasks: 1 e0
LayerCount: 2
Fore
SplineSet
184 320 m 1xf0
 157 338 152 365 152 392 c 0xf0
 152 436 168 485 168 512 c 0
 168 558 126 560 48 560 c 1
 32 576 l 1
 32 648 l 1
 48 664 l 1
 186 664 264 620 264 512 c 0xe8
 264 475 248 437 248 412 c 0
 248 392 252 376 312 376 c 1
 328 360 l 1
 328 280 l 1
 312 264 l 1
 252 264 248 248 248 228 c 0xf0
 248 203 264 165 264 128 c 0
 264 20 186 -24 48 -24 c 1
 32 -8 l 1
 32 64 l 1
 48 80 l 1
 126 80 168 82 168 128 c 0xe8
 168 155 152 204 152 248 c 0
 152 274 159 303 184 320 c 1xf0
EndSplineSet
Validated: 1
EndChar

StartChar: bar
Encoding: 124 124 150
Width: 384
VWidth: 0
Flags: W
HStem: -24 21G<112 208> 644 20G<112 208>
VStem: 112 96<-8 648>
LayerCount: 2
Fore
SplineSet
112 -8 m 1
 112 648 l 1
 128 664 l 1
 192 664 l 1
 208 648 l 1
 208 -8 l 1
 192 -24 l 1
 128 -24 l 1
 112 -8 l 1
EndSplineSet
Validated: 1
EndChar

StartChar: slash
Encoding: 47 47 151
Width: 384
VWidth: 0
Flags: W
HStem: -24 21G<-24 80> 644 20G<248 344>
VStem: 248 96<595.948 648>
LayerCount: 2
Fore
SplineSet
344 648 m 1
 344 567 85 34 80 -8 c 1
 64 -24 l 1
 -8 -24 l 1
 -24 -8 l 1
 -24 73 243 606 248 648 c 1
 264 664 l 1
 328 664 l 1
 344 648 l 1
EndSplineSet
Validated: 1
EndChar

StartChar: backslash
Encoding: 92 92 152
Width: 384
VWidth: 0
Flags: W
HStem: -24 21G<240 344> 644 20G<-24 72>
VStem: -24 96<595.28 648>
LayerCount: 2
Fore
SplineSet
-8 664 m 1
 56 664 l 1
 72 648 l 1
 78 604 344 73 344 -8 c 1
 328 -24 l 1
 256 -24 l 1
 240 -8 l 1
 234 36 -24 567 -24 648 c 1
 -8 664 l 1
EndSplineSet
Validated: 1
EndChar

StartChar: brokenbar
Encoding: 166 166 153
Width: 384
VWidth: 0
Flags: W
HStem: -24 21G<112 208> 644 20G<112 208>
VStem: 112 96<-8 256 384 648>
LayerCount: 2
Fore
SplineSet
128 664 m 1
 192 664 l 1
 208 648 l 1
 208 384 l 1
 192 368 l 1
 128 368 l 1
 112 384 l 1
 112 648 l 1
 128 664 l 1
128 272 m 1
 192 272 l 1
 208 256 l 1
 208 -8 l 1
 192 -24 l 1
 128 -24 l 1
 112 -8 l 1
 112 256 l 1
 128 272 l 1
EndSplineSet
Validated: 1
EndChar

StartChar: plus
Encoding: 43 43 154
Width: 384
VWidth: 0
Flags: W
HStem: 264 112<24 104 216 296> 452 20G<104 216>
VStem: 104 112<184 264 376 456>
LayerCount: 2
Fore
SplineSet
120 472 m 1
 200 472 l 1
 216 456 l 1
 216 376 l 1
 296 376 l 1
 312 360 l 1
 312 280 l 1
 296 264 l 1
 216 264 l 1
 216 184 l 1
 200 168 l 1
 120 168 l 1
 104 184 l 1
 104 264 l 1
 24 264 l 1
 8 280 l 1
 8 360 l 1
 24 376 l 1
 104 376 l 1
 104 456 l 1
 120 472 l 1
EndSplineSet
Validated: 1
EndChar

StartChar: hyphen
Encoding: 45 45 155
Width: 384
VWidth: 0
Flags: W
HStem: 264 112<24 296>
VStem: 8 304<280 360>
LayerCount: 2
Fore
SplineSet
8 280 m 1
 8 360 l 1
 24 376 l 1
 296 376 l 1
 312 360 l 1
 312 280 l 1
 296 264 l 1
 24 264 l 1
 8 280 l 1
EndSplineSet
Validated: 1
EndChar

StartChar: equal
Encoding: 61 61 156
Width: 384
VWidth: 0
Flags: W
HStem: 168 112<24 296> 360 112<24 296>
VStem: 8 304<184 264 376 456>
LayerCount: 2
Fore
SplineSet
24 472 m 1
 296 472 l 1
 312 456 l 1
 312 376 l 1
 296 360 l 1
 24 360 l 1
 8 376 l 1
 8 456 l 1
 24 472 l 1
24 280 m 1
 296 280 l 1
 312 264 l 1
 312 184 l 1
 296 168 l 1
 24 168 l 1
 8 184 l 1
 8 264 l 1
 24 280 l 1
EndSplineSet
Validated: 1
EndChar

StartChar: less
Encoding: 60 60 157
Width: 384
VWidth: 0
Flags: W
HStem: 168 96<235.135 328> 272 96<-8 62.435> 376 96<235 328>
CounterMasks: 1 e0
LayerCount: 2
Fore
SplineSet
344 456 m 1
 344 392 l 1
 328 376 l 1
 289 376 212 346 143 320 c 1
 214 293 289 264 328 264 c 1
 344 248 l 1
 344 184 l 1
 328 168 l 1
 217 168 37 272 -8 272 c 1
 -24 288 l 1
 -24 352 l 1
 -8 368 l 1
 37 368 217 472 328 472 c 1
 344 456 l 1
EndSplineSet
Validated: 1
EndChar

StartChar: greater
Encoding: 62 62 158
Width: 384
VWidth: 0
Flags: W
HStem: 168 96<-8 85> 272 96<257.565 328> 376 96<-8 84.8652>
CounterMasks: 1 e0
LayerCount: 2
Fore
SplineSet
-24 392 m 1
 -24 456 l 1
 -8 472 l 1
 103 472 283 368 328 368 c 1
 344 352 l 1
 344 288 l 1
 328 272 l 1
 283 272 103 168 -8 168 c 1
 -24 184 l 1
 -24 248 l 1
 -8 264 l 1
 31 264 108 294 177 320 c 1
 106 347 31 376 -8 376 c 1
 -24 392 l 1
EndSplineSet
Validated: 1
EndChar

StartChar: percent
Encoding: 37 37 159
Width: 384
VWidth: 0
Flags: W
HStem: -24 88<221.687 258.313> 192 88<220.367 258.313> 360 88<61.6873 99.6333> 576 88<61.6873 98.3127>
VStem: -32 88<448.617 575.383> 104 88<458.487 575.383> 128 88<64.6167 181.513> 264 88<64.6167 191.383>
LayerCount: 2
Fore
SplineSet
240 192 m 0xfb
 231 192 216 184 216 128 c 0
 216 72 231 64 240 64 c 0
 249 64 264 72 264 128 c 0
 264 184 249 192 240 192 c 0xfb
240 280 m 0
 302 280 352 205 352 128 c 0
 352 51 302 -24 240 -24 c 0
 178 -24 128 51 128 128 c 0xfb
 128 146 131 165 136 182 c 1
 42 19 l 1
 20 13 l 1
 -36 45 l 1
 -42 67 l 1
 144 389 l 1
 126 371 104 360 80 360 c 0
 18 360 -32 435 -32 512 c 0
 -32 589 18 664 80 664 c 0
 142 664 192 589 192 512 c 0xfd
 192 494 189 475 184 458 c 1
 278 621 l 1
 300 627 l 1
 356 595 l 1
 362 573 l 1
 176 251 l 1
 194 269 216 280 240 280 c 0
80 576 m 0
 71 576 56 568 56 512 c 0
 56 456 71 448 80 448 c 0
 89 448 104 456 104 512 c 0xfd
 104 568 89 576 80 576 c 0
EndSplineSet
Validated: 1
EndChar

StartChar: asterisk
Encoding: 42 42 160
Width: 384
VWidth: 0
Flags: W
HStem: 636 20G<112 208>
VStem: 112 96<320 397 563 640>
LayerCount: 2
Fore
SplineSet
128 656 m 1
 192 656 l 1
 208 640 l 1
 208 563 l 1
 275 602 l 1
 297 596 l 1
 329 540 l 1
 323 518 l 1
 256 480 l 1
 323 442 l 1
 329 420 l 1
 297 364 l 1
 275 358 l 1
 208 397 l 1
 208 320 l 1
 192 304 l 1
 128 304 l 1
 112 320 l 1
 112 397 l 1
 45 358 l 1
 23 364 l 1
 -9 420 l 1
 -3 442 l 1
 64 480 l 1
 -3 518 l 1
 -9 540 l 1
 23 596 l 1
 45 602 l 1
 112 563 l 1
 112 640 l 1
 128 656 l 1
EndSplineSet
Validated: 1
EndChar

StartChar: currency
Encoding: 164 164 161
Width: 384
VWidth: 0
Flags: W
HStem: 184 96<124.368 195.415> 360 96<124.585 195.632>
VStem: 24 96<284.585 355.632> 200 96<284.368 355.415>
LayerCount: 2
Fore
SplineSet
64 484 m 1
 104 444 l 1
 121 452 140 456 160 456 c 0
 180 456 200 451 216 444 c 1
 256 484 l 1
 278 484 l 1
 324 438 l 1
 324 416 l 1
 284 376 l 1
 292 359 296 340 296 320 c 0
 296 300 291 280 284 264 c 1
 324 224 l 1
 324 202 l 1
 278 156 l 1
 256 156 l 1
 216 196 l 1
 199 188 180 184 160 184 c 0
 140 184 120 189 104 196 c 1
 64 156 l 1
 42 156 l 1
 -4 202 l 1
 -4 224 l 1
 36 264 l 1
 28 281 24 300 24 320 c 0
 24 340 29 360 36 376 c 1
 -4 416 l 1
 -4 438 l 1
 42 484 l 1
 64 484 l 1
160 360 m 0
 138 360 120 342 120 320 c 0
 120 298 138 280 160 280 c 0
 182 280 200 298 200 320 c 0
 200 342 182 360 160 360 c 0
EndSplineSet
Validated: 1
EndChar

StartChar: exclamdown
Encoding: 161 161 162
Width: 384
VWidth: 0
Flags: W
HStem: 456 144<107.796 212.204>
VStem: 88 144<475.796 580.204> 96 128<-64 233.313>
LayerCount: 2
Fore
SplineSet
96 -64 m 1xa0
 96 64 96 264 112 394 c 1
 128 408 l 1
 192 408 l 1
 208 394 l 1
 224 264 224 64 224 -64 c 1
 208 -80 l 1
 112 -80 l 1
 96 -64 l 1xa0
160 456 m 0
 120 456 88 488 88 528 c 0
 88 568 120 600 160 600 c 0
 200 600 232 568 232 528 c 0xc0
 232 488 200 456 160 456 c 0
EndSplineSet
Validated: 1
EndChar

StartChar: questiondown
Encoding: 191 191 163
Width: 384
VWidth: 0
Flags: W
HStem: -88 104<91.3863 227.943> 456 144<107.796 212.204>
VStem: -24 104<27.2566 138.459> 88 144<475.796 580.204> 112 96<246.79 392> 240 104<28.3754 96>
LayerCount: 2
Fore
SplineSet
160 -88 m 0xec
 23 -88 -24 -6 -24 96 c 0
 -24 240 112 213 112 288 c 0
 112 392 l 1
 128 408 l 1
 192 408 l 1
 208 392 l 1
 208 288 l 0
 208 145 80 171 80 96 c 0
 80 24 101 16 160 16 c 0
 219 16 240 24 240 96 c 1
 256 112 l 1
 328 112 l 1
 344 96 l 1
 344 -6 281 -88 160 -88 c 0xec
160 456 m 0
 120 456 88 488 88 528 c 0
 88 568 120 600 160 600 c 0
 200 600 232 568 232 528 c 0xf4
 232 488 200 456 160 456 c 0
EndSplineSet
Validated: 1
EndChar

StartChar: logicalnot
Encoding: 172 172 164
Width: 384
VWidth: 0
Flags: W
HStem: 272 96<-8 240>
VStem: 240 104<192 272>
LayerCount: 2
Fore
SplineSet
-8 368 m 1
 328 368 l 1
 344 352 l 1
 344 192 l 1
 328 176 l 1
 256 176 l 1
 240 192 l 1
 240 272 l 1
 -8 272 l 1
 -24 288 l 1
 -24 352 l 1
 -8 368 l 1
EndSplineSet
Validated: 1
EndChar

StartChar: uni00AD
Encoding: 173 173 165
Width: 384
VWidth: 0
Flags: W
HStem: 264 112<24 296>
VStem: 8 304<280 360>
LayerCount: 2
Fore
SplineSet
8 280 m 1
 8 360 l 1
 24 376 l 1
 296 376 l 1
 312 360 l 1
 312 280 l 1
 296 264 l 1
 24 264 l 1
 8 280 l 1
EndSplineSet
Validated: 1
EndChar

StartChar: macron
Encoding: 175 175 166
Width: 384
VWidth: 0
Flags: W
HStem: 560 104<-8 328>
LayerCount: 2
Fore
SplineSet
-24 576 m 1
 -24 648 l 1
 -8 664 l 1
 328 664 l 1
 344 648 l 1
 344 576 l 1
 328 560 l 1
 -8 560 l 1
 -24 576 l 1
EndSplineSet
Validated: 1
EndChar

StartChar: plusminus
Encoding: 177 177 167
Width: 384
VWidth: 0
Flags: W
HStem: -24 112<24 296> 264 112<24 104 216 296> 452 20G<104 216>
VStem: 104 112<184 264 376 456>
LayerCount: 2
Fore
SplineSet
120 472 m 1
 200 472 l 1
 216 456 l 1
 216 376 l 1
 296 376 l 1
 312 360 l 1
 312 280 l 1
 296 264 l 1
 216 264 l 1
 216 184 l 1
 200 168 l 1
 120 168 l 1
 104 184 l 1
 104 264 l 1
 24 264 l 1
 8 280 l 1
 8 360 l 1
 24 376 l 1
 104 376 l 1
 104 456 l 1
 120 472 l 1
24 88 m 1
 296 88 l 1
 312 72 l 1
 312 -8 l 1
 296 -24 l 1
 24 -24 l 1
 8 -8 l 1
 8 72 l 1
 24 88 l 1
EndSplineSet
Validated: 1
EndChar

StartChar: ellipsis
Encoding: 256 8230 168
Width: 384
VWidth: 0
Flags: W
HStem: -16 128<-16.6137 81.5967 110.403 209.597 238.403 336.614>
VStem: -32 128<-0.613663 47 49 97.1838> 96 128<-1.04356 47 49 97.0436> 224 128<-0.613663 47 49 96.6137>
LayerCount: 2
Fore
SplineSet
288 112 m 0xa0
 324 112 352 84 352 48 c 0x90
 352 12 324 -16 288 -16 c 0
 252 -16 224 11 224 47 c 1xa0
 224 11 196 -16 160 -16 c 0
 124 -16 96 11 96 47 c 1
 96 11 68 -16 32 -16 c 0
 -4 -16 -32 12 -32 48 c 0
 -32 84 -4 113 32 113 c 0
 68 113 96 85 96 49 c 1xc0
 96 85 124 112 160 112 c 0
 196 112 224 85 224 49 c 1
 224 85 252 112 288 112 c 0xa0
EndSplineSet
Validated: 1
EndChar

StartChar: Ydieresis
Encoding: 257 376 169
Width: 384
VWidth: 0
Flags: W
HStem: -16 21G<112 208> 636 20G<-16 80 240 336> 672 128<31.3863 128.614 191.386 288.614>
VStem: -16 96<486.977 640> 16 128<687.386 784.614> 112 96<0 292.923> 176 128<687.386 784.614> 240 96<486.907 640>
LayerCount: 2
Fore
SplineSet
80 800 m 0xf0
 116 800 144 772 144 736 c 0xe8
 144 700 116 672 80 672 c 0xf0
 44 672 16 700 16 736 c 0xe8
 16 772 44 800 80 800 c 0xf0
240 800 m 0xe1
 276 800 304 772 304 736 c 0xe2
 304 700 276 672 240 672 c 0xe1
 204 672 176 700 176 736 c 0xe2
 176 772 204 800 240 800 c 0xe1
-0 656 m 1
 64 656 l 1
 80 640 l 1
 80 576 l 0
 80 518 121 440 160 365 c 1
 199 441 240 517 240 576 c 0
 240 640 l 1
 256 656 l 1
 320 656 l 1
 336 640 l 1
 336 576 l 0
 336 474 241 317 208 252 c 1
 208 0 l 1
 192 -16 l 1
 128 -16 l 1
 112 0 l 1
 112 252 l 1
 78 318 -16 474 -16 576 c 0
 -16 640 l 1xf5
 -0 656 l 1
EndSplineSet
Validated: 1
EndChar

StartChar: Euro
Encoding: 258 8364 171
Width: 384
VWidth: 0
Flags: W
HStem: -24 104<149.241 209.267> 200 96<-24 8 119 200> 344 96<-24 8 119 200> 560 104<149.595 209.267>
VStem: 8 104<135.804 200 296 344 440 505.94> 229 99<98.7242 134.752 505.248 541.276>
LayerCount: 2
Fore
SplineSet
176 664 m 0
 233 664 303 630 328 516 c 1
 316 498 l 1
 249 480 l 1
 229 492 l 1
 220 540 191 560 176 560 c 0
 159 560 131 526 119 440 c 1
 200 440 l 1
 216 424 l 1
 216 360 l 1
 200 344 l 1
 112 344 l 1
 112 336 112 328 112 320 c 0
 112 312 112 302 112 296 c 1
 200 296 l 1
 216 280 l 1
 216 216 l 1
 200 200 l 1
 119 200 l 1
 132 112 159 80 176 80 c 0
 191 80 220 100 229 148 c 1
 249 160 l 1
 316 142 l 1
 328 124 l 1
 303 10 233 -24 176 -24 c 0
 105 -24 35 27 15 200 c 1
 -24 200 l 1
 -40 216 l 1
 -40 280 l 1
 -24 296 l 1
 8 296 l 1
 8 304 8 312 8 320 c 0
 8 328 8 338 8 344 c 1
 -24 344 l 1
 -40 360 l 1
 -40 424 l 1
 -24 440 l 1
 15 440 l 1
 36 615 105 664 176 664 c 0
EndSplineSet
Validated: 1
EndChar

StartChar: thorn
Encoding: 254 254 172
Width: 384
VWidth: 0
Flags: W
HStem: -24 104<100.778 217.283> 368 104<97.7475 217.283> 636 20G<-16 80>
VStem: -16 96<-192 -2 99.5623 350.79 452 640> 240 104<101.647 346.353>
LayerCount: 2
Fore
SplineSet
160 472 m 0
 264 472 344 422 344 224 c 0
 344 26 264 -24 160 -24 c 0
 129 -24 104 -18 80 -2 c 1
 80 -192 l 1
 64 -208 l 1
 0 -208 l 1
 -16 -192 l 1
 -16 640 l 1
 0 656 l 1
 64 656 l 1
 80 640 l 1
 80 452 l 1
 106 468 136 472 160 472 c 0
160 368 m 0
 92 368 80 335 80 256 c 0
 80 192 l 0
 80 121 93 80 160 80 c 0
 240 80 240 140 240 224 c 0
 240 308 240 368 160 368 c 0
EndSplineSet
Validated: 1
EndChar

StartChar: divide
Encoding: 247 247 173
Width: 384
VWidth: 0
Flags: W
HStem: 104 144<107.796 212.204> 264 112<24 296> 392 144<107.796 212.204>
VStem: 88 144<123.796 228.204 411.796 516.204>
CounterMasks: 1 e0
LayerCount: 2
Fore
SplineSet
160 536 m 0
 200 536 232 504 232 464 c 0
 232 424 200 392 160 392 c 0
 120 392 88 424 88 464 c 0
 88 504 120 536 160 536 c 0
24 376 m 1
 296 376 l 1
 312 360 l 1
 312 280 l 1
 296 264 l 1
 24 264 l 1
 8 280 l 1
 8 360 l 1
 24 376 l 1
160 248 m 0
 200 248 232 216 232 176 c 0
 232 136 200 104 160 104 c 0
 120 104 88 136 88 176 c 0
 88 216 120 248 160 248 c 0
EndSplineSet
Validated: 1
EndChar

StartChar: eth
Encoding: 240 240 174
Width: 384
VWidth: 0
Flags: W
HStem: -24 104<109.862 212.337> 336 104<109.862 197.581> 447 94<50.8453 132.343> 644 20G<57.7931 161>
VStem: -24 104<111.318 304.682> 240 104<112.849 305.641>
LayerCount: 2
Fore
SplineSet
160 336 m 0
 96 336 80 273 80 208 c 0
 80 143 96 80 160 80 c 0
 224 80 240 142 240 205 c 0
 240 214 240 223 239 233 c 1
 235 289 217 336 160 336 c 0
64 664 m 1
 152 664 l 1
 161 661 l 1
 190 641 219 618 244 588 c 1
 280 599 312 611 347 623 c 1
 367 612 l 1
 384 550 l 1
 376 532 l 1
 350 519 323 509 297 499 c 1
 325 432 342 343 344 219 c 1
 344 200 l 1
 342 88 298 -24 160 -24 c 0
 19 -24 -24 94 -24 208 c 0
 -24 322 19 440 160 440 c 0
 173 440 188 439 198 437 c 1
 194 449 190 457 186 467 c 1
 145 458 105 452 61 447 c 1
 44 459 l 1
 28 521 l 1
 41 541 l 1
 76 546 108 551 134 557 c 1
 111 589 86 614 55 635 c 1
 64 664 l 1
EndSplineSet
Validated: 1
EndChar

StartChar: multiply
Encoding: 215 215 175
Width: 384
VWidth: 0
Flags: W
HStem: 185 270<81 103 217 239>
VStem: 25 270<241 263 377 399>
LayerCount: 2
Fore
SplineSet
239 455 m 1
 295 399 l 1
 295 377 l 1
 239 320 l 1
 295 263 l 1
 295 241 l 1
 239 185 l 1
 217 185 l 1
 160 241 l 1
 103 185 l 1
 81 185 l 1
 25 241 l 1
 25 263 l 1
 81 320 l 1
 25 377 l 1
 25 399 l 1
 81 455 l 1
 103 455 l 1
 160 399 l 1
 217 455 l 1
 239 455 l 1
EndSplineSet
Validated: 1
EndChar

StartChar: Thorn
Encoding: 222 222 176
Width: 384
VWidth: 0
Flags: W
HStem: -16 21G<-16 80> 174 98<80 224.009> 432 96<80 223.496> 636 20G<-16 80>
VStem: -16 96<0 175 272 432 528 640> 248 96<296.227 406.984>
LayerCount: 2
Fore
SplineSet
-0 656 m 1
 64 656 l 1
 80 640 l 1
 80 528 l 1
 128 528 l 0
 200 528 344 511 344 352 c 0
 344 287 323 174 110 174 c 0
 100 174 89 174 80 175 c 1
 80 0 l 1
 64 -16 l 1
 0 -16 l 1
 -16 0 l 1
 -16 640 l 1
 -0 656 l 1
100 432 m 2
 80 432 l 1
 80 272 l 1
 103 272 l 0
 189 272 248 278 248 352 c 0
 248 427 187 432 100 432 c 2
EndSplineSet
Validated: 1
EndChar

StartChar: germandbls
Encoding: 223 223 177
Width: 384
VWidth: 0
Flags: W
HStem: -16 96<128 220.976> 560 96<106.392 199.993>
VStem: -16 96<0 531.257> 208 104<445.254 553.187> 240 104<100.336 198.747>
LayerCount: 2
Fore
SplineSet
160 656 m 0xf0
 276 656 312 556 312 496 c 0xf0
 312 347 217 354 216 337 c 1
 222 323 344 266 344 160 c 0
 344 56 294 -16 128 -16 c 1
 112 0 l 1
 112 64 l 1
 128 80 l 1
 220 80 240 106 240 160 c 0xe8
 240 214 112 247 112 336 c 0
 112 466 208 402 208 496 c 0
 208 514 208 560 160 560 c 0
 108 560 80 524 80 448 c 0
 80 0 l 1
 64 -16 l 1
 0 -16 l 1
 -16 0 l 1
 -16 448 l 0
 -16 547 20 656 160 656 c 0xf0
EndSplineSet
Validated: 1
EndChar

StartChar: ae
Encoding: 230 230 178
Width: 384
VWidth: 0
Flags: W
HStem: -24 104<82.215 109.943 209.254 236.863> 368 104<83.137 110.746 210.057 237.785>
VStem: -24 104<80.1795 173.697> 112 96<80.0009 168 280 367.995> 240 104<274.303 367.82>
CounterMasks: 1 38
LayerCount: 2
Fore
SplineSet
96 472 m 0
 123 472 146 466 162 455 c 1
 179 466 201 472 224 472 c 0
 298 472 344 421 344 320 c 0
 344 191 270 168 224 168 c 0
 208 168 l 1
 208 166 l 0
 208 86 209 80 219 80 c 0
 220 80 222 80 224 80 c 0
 236 80 234 77 237 93 c 1
 261 104 l 1
 325 67 l 1
 332 48 l 1
 317 -2 283 -24 224 -24 c 0
 197 -24 174 -18 158 -7 c 1
 141 -18 119 -24 96 -24 c 0
 22 -24 -24 27 -24 128 c 0
 -24 257 50 280 96 280 c 0
 112 280 l 1
 112 282 l 0
 112 362 111 368 101 368 c 0
 100 368 98 368 96 368 c 0
 84 368 86 371 83 355 c 1
 59 344 l 1
 -5 381 l 1
 -12 400 l 1
 3 450 37 472 96 472 c 0
224 368 m 0
 222 368 208 367 208 320 c 0
 208 280 l 0
 208 275 209 273 209 273 c 1
 210 273 215 272 224 272 c 0
 227 272 229 272 231 272 c 0
 238 272 240 276 240 320 c 0
 240 367 226 368 224 368 c 0
96 176 m 0
 93 176 91 176 89 176 c 0
 82 176 80 172 80 128 c 0
 80 81 94 80 96 80 c 0
 98 80 112 81 112 128 c 0
 112 168 l 0
 112 173 111 175 111 175 c 1
 110 175 105 176 96 176 c 0
EndSplineSet
Validated: 1
EndChar

StartChar: Eth
Encoding: 208 208 179
Width: 384
VWidth: 0
Flags: W
HStem: -16 21G<48 196.5> 272 96<0 48 144 192> 636 20G<48 196.5>
VStem: 48 96<80 272 368 560> 240 104<125.157 515.031>
LayerCount: 2
Fore
SplineSet
64 656 m 1
 128 656 l 0
 265 656 344 612 344 320 c 0
 344 28 265 -16 128 -16 c 0
 64 -16 l 1
 48 0 l 1
 48 272 l 1
 0 272 l 1
 -16 288 l 1
 -16 352 l 1
 0 368 l 1
 48 368 l 1
 48 640 l 1
 64 656 l 1
144 560 m 1
 144 368 l 1
 192 368 l 1
 208 352 l 1
 208 288 l 1
 192 272 l 1
 144 272 l 1
 144 80 l 1
 214 84 240 109 240 320 c 0
 240 532 214 556 144 560 c 1
EndSplineSet
Validated: 1
EndChar

StartChar: AE
Encoding: 198 198 180
Width: 384
VWidth: 0
Flags: W
HStem: -16 96<208 320> 176 96<63 112> 304 96<208 320> 560 96<208 320>
VStem: -48 96<0 163.011> 112 224<0 64 320 384> 112 96<80 176 272 304 400 490>
LayerCount: 2
Fore
SplineSet
128 656 m 2xfa
 320 656 l 1
 336 640 l 1
 336 576 l 1xfc
 320 560 l 1
 208 560 l 1
 208 400 l 1xfa
 320 400 l 1
 336 384 l 1
 336 320 l 1xfc
 320 304 l 1
 208 304 l 1
 208 80 l 1xfa
 320 80 l 1
 336 64 l 1
 336 0 l 1
 320 -16 l 1
 128 -16 l 1
 112 0 l 1xfc
 112 176 l 1
 54 176 l 1
 51 124 48 65 48 0 c 1
 32 -16 l 1
 -32 -16 l 1
 -48 0 l 1
 -48 410 41 656 128 656 c 2xfa
112 490 m 1xfa
 95 449 76 380 63 272 c 1
 112 272 l 1
 112 490 l 1xfa
EndSplineSet
Validated: 1
EndChar

StartChar: guillemotright
Encoding: 187 187 181
Width: 384
VWidth: 0
Flags: W
HStem: 173 294
LayerCount: 2
Fore
SplineSet
203 467 m 1
 339 331 l 1
 339 309 l 1
 203 173 l 1
 181 173 l 1
 136 219 l 1
 136 241 l 1
 214 320 l 1
 136 399 l 1
 136 421 l 1
 181 467 l 1
 203 467 l 1
43 467 m 1
 179 331 l 1
 179 309 l 1
 43 173 l 1
 21 173 l 1
 -24 219 l 1
 -24 241 l 1
 54 320 l 1
 -24 399 l 1
 -24 421 l 1
 21 467 l 1
 43 467 l 1
EndSplineSet
Validated: 1
EndChar

StartChar: uni00B9
Encoding: 185 185 182
Width: 384
VWidth: 0
Flags: W
HStem: 240 96<64 112 208 256> 636 20G<114 208>
VStem: 112 96<336 483>
LayerCount: 2
Fore
SplineSet
128 656 m 1
 192 656 l 1
 208 640 l 1
 208 336 l 1
 256 336 l 1
 272 320 l 1
 272 256 l 1
 256 240 l 1
 64 240 l 1
 48 256 l 1
 48 320 l 1
 64 336 l 1
 112 336 l 1
 112 483 l 1
 111 483 112 483 111 483 c 1
 56 515 l 1
 50 537 l 1
 114 648 l 1
 128 656 l 1
EndSplineSet
Validated: 1
EndChar

StartChar: periodcentered
Encoding: 183 183 183
Width: 384
VWidth: 0
Flags: W
HStem: 248 144<107.796 212.204>
VStem: 88 144<267.796 372.204>
LayerCount: 2
Fore
SplineSet
232 320 m 0
 232 280 200 248 160 248 c 0
 120 248 88 280 88 320 c 0
 88 360 120 392 160 392 c 0
 200 392 232 360 232 320 c 0
EndSplineSet
Validated: 1
EndChar

StartChar: paragraph
Encoding: 182 182 184
Width: 384
VWidth: 0
Flags: W
HStem: -16 21G<112 208 240 336> 560 96<208 240 336 384>
VStem: -24 232<326.191 559.143> 112 96<0 244.093> 240 96<0 560>
LayerCount: 2
Fore
SplineSet
128 656 m 2xe8
 384 656 l 1
 400 640 l 1
 400 576 l 1
 384 560 l 1
 336 560 l 1
 336 0 l 1
 320 -16 l 1
 256 -16 l 1
 240 0 l 1
 240 560 l 1
 208 560 l 1
 208 0 l 1
 192 -16 l 1
 128 -16 l 1
 112 0 l 1
 112 241 l 1xd8
 22 249 -24 324 -24 448 c 0
 -24 580 28 656 128 656 c 2xe8
EndSplineSet
Validated: 1
EndChar

StartChar: uni00B5
Encoding: 181 181 185
Width: 384
VWidth: 0
Flags: W
HStem: -24 104<111.639 206.637> -16 21G<240 336>
VStem: -16 96<-200 -7 116.375 320> 240 96<118.867 320>
LayerCount: 2
Fore
SplineSet
-0 336 m 1xb0
 64 336 l 1
 80 320 l 1
 80 224 l 0
 80 129 111 80 160 80 c 0xb0
 222 80 240 163 240 224 c 0
 240 320 l 1
 256 336 l 1
 320 336 l 1
 336 320 l 1
 336 0 l 1
 320 -16 l 1
 256 -16 l 1x70
 240 0 l 1
 240 0 170 -24 160 -24 c 0
 133 -24 105 -19 80 -7 c 1
 80 -200 l 1
 64 -216 l 1
 0 -216 l 1
 -16 -200 l 1
 -16 320 l 1
 -0 336 l 1xb0
EndSplineSet
Validated: 1
EndChar

StartChar: copyright
Encoding: 169 169 186
Width: 384
VWidth: 0
Flags: W
HStem: 160 104<113.554 254.446> 288 256<126.248 213> 568 104<113.554 254.446>
VStem: -32 104<306.309 525.691> 96 88<375 457> 296 104<306.309 525.691>
CounterMasks: 1 e0
LayerCount: 2
Fore
SplineSet
184 672 m 0
 283 672 400 618 400 448 c 0
 400 384 l 0
 400 214 283 160 184 160 c 0
 85 160 -32 214 -32 384 c 0
 -32 448 l 0
 -32 618 85 672 184 672 c 0
184 568 m 0
 120 568 72 528 72 448 c 0
 72 384 l 0
 72 304 120 264 184 264 c 0
 248 264 296 304 296 384 c 0
 296 448 l 0
 296 528 248 568 184 568 c 0
184 544 m 0
 213 544 240 529 256 506 c 1
 251 483 l 1
 201 455 l 1
 184 457 l 1
 184 375 l 1
 201 377 l 1
 251 349 l 1
 256 326 l 1
 240 303 213 288 184 288 c 0
 135 288 96 327 96 376 c 0
 96 456 l 0
 96 505 135 544 184 544 c 0
EndSplineSet
Validated: 1
EndChar

StartChar: guillemotleft
Encoding: 171 171 187
Width: 384
VWidth: 0
Flags: W
HStem: 173 294
LayerCount: 2
Fore
SplineSet
139 467 m 1
 184 421 l 1
 184 399 l 1
 106 320 l 1
 184 241 l 1
 184 219 l 1
 139 173 l 1
 117 173 l 1
 -19 309 l 1
 -19 331 l 1
 117 467 l 1
 139 467 l 1
299 467 m 1
 344 421 l 1
 344 399 l 1
 266 320 l 1
 344 241 l 1
 344 219 l 1
 299 173 l 1
 277 173 l 1
 141 309 l 1
 141 331 l 1
 277 467 l 1
 299 467 l 1
EndSplineSet
Validated: 1
EndChar

StartChar: registered
Encoding: 174 174 188
Width: 384
VWidth: 0
Flags: W
HStem: 160 104<113.554 255.019> 568 104<113.554 254.446>
VStem: -32 104<306.309 525.691> 96 176<408.612 513.752> 96 88<304 355> 192 88<315 353.753> 296 104<318.991 525.691>
LayerCount: 2
Fore
SplineSet
112 544 m 1xee
 184 544 l 2xee
 233 544 272 505 272 456 c 0xf2
 272 438 266 421 257 408 c 1
 273 386 279 353 280 315 c 1
 290 333 296 356 296 384 c 2
 296 448 l 2
 296 528 248 568 184 568 c 0
 120 568 72 528 72 448 c 2
 72 384 l 2
 72 304 120 264 184 264 c 0
 213 264 238 272 257 288 c 1
 208 288 l 1
 192 304 l 1
 192 329 188 346 184 355 c 1
 184 304 l 1
 168 288 l 1
 112 288 l 1
 96 304 l 1
 96 528 l 1
 112 544 l 1xee
184 672 m 0
 283 672 400 618 400 448 c 2
 400 384 l 2
 400 214 283 160 184 160 c 0
 85 160 -32 214 -32 384 c 2
 -32 448 l 2
 -32 618 85 672 184 672 c 0
EndSplineSet
Validated: 1
EndChar

StartChar: uni2070
Encoding: 259 8304 189
Width: 384
VWidth: 0
Flags: W
HStem: 232 96<142.452 177.548> 568 96<142.452 177.548>
VStem: 40 96<329.689 566.312> 184 96<329.689 566.312>
LayerCount: 2
Fore
SplineSet
160 664 m 0
 237 664 280 609 280 448 c 0
 280 287 237 232 160 232 c 0
 83 232 40 287 40 448 c 0
 40 609 83 664 160 664 c 0
160 568 m 0
 147 568 136 558 136 448 c 0
 136 338 147 328 160 328 c 0
 173 328 184 338 184 448 c 0
 184 558 173 568 160 568 c 0
EndSplineSet
Validated: 1
EndChar

StartChar: uni2074
Encoding: 260 8308 190
Width: 384
VWidth: 0
Flags: W
HStem: 636 20G<179 272>
VStem: 176 96<256 368 464 472>
LayerCount: 2
Fore
SplineSet
192 656 m 1
 256 656 l 1
 272 640 l 1
 272 464 l 1
 296 464 l 1
 312 448 l 1
 312 384 l 1
 296 368 l 1
 272 368 l 1
 272 256 l 1
 256 240 l 1
 192 240 l 1
 176 256 l 1
 176 368 l 1
 64 368 l 1
 48 384 l 1
 48 448 l 1
 51 457 l 1
 179 649 l 1
 192 656 l 1
176 472 m 1
 171 464 l 1
 176 464 l 1
 176 472 l 1
EndSplineSet
Validated: 1
EndChar

StartChar: uni2075
Encoding: 261 8309 191
Width: 384
VWidth: 0
Flags: W
HStem: 232 104<119.595 173.353> 560 96<144 256>
VStem: 176 104<337.472 431.81>
LayerCount: 2
Fore
SplineSet
64 656 m 1
 256 656 l 1
 272 640 l 1
 272 576 l 1
 256 560 l 1
 144 560 l 1
 144 528 l 1
 160 528 l 0
 253 528 280 451 280 384 c 0
 280 318 254 232 160 232 c 0
 97 232 62 274 49 321 c 1
 60 340 l 1
 129 358 l 1
 148 348 l 1
 151 339 155 336 160 336 c 0
 172 336 176 361 176 384 c 0
 176 407 172 432 160 432 c 0
 64 432 l 1
 48 448 l 1
 48 640 l 1
 64 656 l 1
EndSplineSet
Validated: 1
EndChar

StartChar: uni2076
Encoding: 262 8310 192
Width: 384
VWidth: 0
Flags: W
HStem: 232 96<139.621 180.587> 440 96<138.861 180.587> 568 96<139.991 181.955>
VStem: 40 96<331.461 439.959 535 566.576> 184 96<328.733 439.267 567.41 567.997>
LayerCount: 2
Fore
SplineSet
160 328 m 0
 176 328 184 342 184 384 c 0
 184 426 176 440 160 440 c 0
 144 440 136 426 136 384 c 0
 136 342 144 328 160 328 c 0
160 232 m 0
 72 232 41 282 40 376 c 1
 40 512 l 0
 40 611 70 664 160 664 c 0
 227 664 264 635 275 575 c 1
 263 557 l 1
 202 541 l 1
 182 554 l 1
 181 567 183 568 160 568 c 0
 157 568 155 568 153 568 c 0
 135 568 137 566 136 535 c 1
 145 536 152 536 160 536 c 0
 250 536 280 483 280 384 c 0
 280 285 250 232 160 232 c 0
EndSplineSet
Validated: 1
EndChar

StartChar: uni2077
Encoding: 263 8311 193
Width: 384
VWidth: 0
Flags: W
HStem: 560 96<64 171>
VStem: 48 224<576 640>
LayerCount: 2
Fore
SplineSet
64 656 m 1
 256 656 l 1
 272 640 l 1
 272 576 l 1
 272 573 l 1
 209 285 l 1
 193 272 l 1
 128 272 l 1
 112 291 l 1
 171 560 l 1
 64 560 l 1
 48 576 l 1
 48 640 l 1
 64 656 l 1
EndSplineSet
Validated: 1
EndChar

StartChar: uni2078
Encoding: 264 8312 194
Width: 384
VWidth: 0
Flags: W
HStem: 644 20G<124 196>
VStem: 40 104<336.309 431.44 528.449 558.603> 176 104<336.309 431.066 528.198 558.603>
LayerCount: 2
Fore
SplineSet
160 664 m 0
 232 664 280 616 280 544 c 0
 280 513 275 486 259 467 c 1
 273 446 280 426 280 384 c 0
 280 302 252 232 160 232 c 0
 68 232 40 302 40 384 c 0
 40 427 48 447 61 467 c 1
 44 488 40 514 40 544 c 0
 40 616 88 664 160 664 c 0
160 560 m 0
 153 560 144 551 144 544 c 0
 144 537 153 528 160 528 c 0
 167 528 176 537 176 544 c 0
 176 551 167 560 160 560 c 0
160 432 m 0
 159 432 158 432 157 432 c 0
 152 432 144 428 144 384 c 0
 144 337 150 336 159 336 c 0
 160 336 l 0
 161 336 l 0
 170 336 176 337 176 384 c 0
 176 428 168 432 163 432 c 0
 162 432 161 432 160 432 c 0
EndSplineSet
Validated: 1
EndChar

StartChar: uni2079
Encoding: 265 8313 195
Width: 384
VWidth: 0
Flags: W
HStem: 232 96<138.045 180.009> 360 96<139.413 181.139> 568 96<139.413 180.379>
VStem: 40 96<328.003 328.59 456.733 567.267> 184 96<329.424 361 456.041 564.539>
LayerCount: 2
Fore
SplineSet
160 568 m 0
 144 568 136 554 136 512 c 0
 136 470 144 456 160 456 c 0
 176 456 184 470 184 512 c 0
 184 554 176 568 160 568 c 0
160 664 m 0
 248 664 279 614 280 520 c 1
 280 384 l 0
 280 285 250 232 160 232 c 0
 93 232 56 261 45 321 c 1
 57 339 l 1
 118 355 l 1
 138 342 l 1
 139 329 137 328 160 328 c 0
 163 328 165 328 167 328 c 0
 185 328 183 330 184 361 c 1
 175 360 168 360 160 360 c 0
 70 360 40 413 40 512 c 0
 40 611 70 664 160 664 c 0
EndSplineSet
Validated: 1
EndChar

StartChar: uni2080
Encoding: 266 8320 196
Width: 384
VWidth: 0
Flags: W
HStem: -24 96<142.452 177.548> 312 96<142.452 177.548>
VStem: 40 96<73.6885 310.311> 184 96<73.6885 310.311>
LayerCount: 2
Fore
SplineSet
160 408 m 0
 237 408 280 353 280 192 c 0
 280 31 237 -24 160 -24 c 0
 83 -24 40 31 40 192 c 0
 40 353 83 408 160 408 c 0
160 312 m 0
 147 312 136 302 136 192 c 0
 136 82 147 72 160 72 c 0
 173 72 184 82 184 192 c 0
 184 302 173 312 160 312 c 0
EndSplineSet
Validated: 1
EndChar

StartChar: uni2081
Encoding: 267 8321 197
Width: 384
VWidth: 0
Flags: W
HStem: -24 96<64 112 208 256>
VStem: 112 96<72 219>
LayerCount: 2
Fore
SplineSet
128 392 m 1
 192 392 l 1
 208 376 l 1
 208 72 l 1
 256 72 l 1
 272 56 l 1
 272 -8 l 1
 256 -24 l 1
 64 -24 l 1
 48 -8 l 1
 48 56 l 1
 64 72 l 1
 112 72 l 1
 112 219 l 1
 111 219 112 219 111 219 c 1
 56 251 l 1
 50 273 l 1
 114 384 l 1
 128 392 l 1
EndSplineSet
Validated: 1
EndChar

StartChar: uni2082
Encoding: 268 8322 198
Width: 384
VWidth: 0
Flags: W
HStem: -16 96<153 256>
VStem: 40 104<256 303.642> 176 104<231.017 303.82>
LayerCount: 2
Fore
SplineSet
160 408 m 0
 234 408 280 357 280 256 c 0
 280 121 162 161 153 80 c 1
 256 80 l 1
 272 64 l 1
 272 0 l 1
 256 -16 l 1
 64 -16 l 1
 48 0 l 1
 48 64 l 0
 48 235 176 210 176 256 c 0
 176 303 162 304 160 304 c 0
 158 304 144 303 144 256 c 1
 128 240 l 1
 56 240 l 1
 40 256 l 1
 40 357 86 408 160 408 c 0
EndSplineSet
Validated: 1
EndChar

StartChar: uni2083
Encoding: 269 8323 199
Width: 384
VWidth: 0
Flags: W
HStem: -24 21G<127.5 206> 176 96<136 174.658> 304 104<115.257 174.603>
VStem: 176 104<80.1956 175.463 272.198 302.603>
LayerCount: 2
Fore
SplineSet
160 408 m 0
 232 408 280 360 280 288 c 0
 280 257 275 230 259 211 c 1
 273 190 280 170 280 128 c 0
 280 46 252 -24 160 -24 c 0
 95 -24 58 12 46 65 c 1
 58 84 l 1
 128 102 l 1
 148 91 l 1
 151 80 151 80 160 80 c 0
 161 80 l 0
 170 80 176 81 176 128 c 0
 176 172 168 176 163 176 c 0
 162 176 161 176 160 176 c 0
 136 176 l 1
 120 192 l 1
 120 256 l 1
 136 272 l 1
 160 272 l 0
 167 272 176 281 176 288 c 0
 176 295 167 304 160 304 c 0
 155 304 147 298 145 292 c 1
 126 282 l 1
 55 301 l 1
 43 319 l 1
 55 375 100 408 160 408 c 0
EndSplineSet
Validated: 1
EndChar

StartChar: uni2084
Encoding: 270 8324 200
Width: 384
VWidth: 0
Flags: W
HStem: -16 21G<176 272>
VStem: 176 96<0 112 208 216>
LayerCount: 2
Fore
SplineSet
192 400 m 1
 256 400 l 1
 272 384 l 1
 272 208 l 1
 296 208 l 1
 312 192 l 1
 312 128 l 1
 296 112 l 1
 272 112 l 1
 272 0 l 1
 256 -16 l 1
 192 -16 l 1
 176 0 l 1
 176 112 l 1
 64 112 l 1
 48 128 l 1
 48 192 l 1
 51 201 l 1
 179 393 l 1
 192 400 l 1
176 216 m 1
 171 208 l 1
 176 208 l 1
 176 216 l 1
EndSplineSet
Validated: 1
EndChar

StartChar: uni2085
Encoding: 271 8325 201
Width: 384
VWidth: 0
Flags: W
HStem: -24 104<119.595 173.353> 304 96<144 256>
VStem: 176 104<81.4721 175.81>
LayerCount: 2
Fore
SplineSet
64 400 m 1
 256 400 l 1
 272 384 l 1
 272 320 l 1
 256 304 l 1
 144 304 l 1
 144 272 l 1
 160 272 l 0
 253 272 280 195 280 128 c 0
 280 62 254 -24 160 -24 c 0
 97 -24 62 18 49 65 c 1
 60 84 l 1
 129 102 l 1
 148 92 l 1
 151 83 155 80 160 80 c 0
 172 80 176 105 176 128 c 0
 176 151 172 176 160 176 c 0
 64 176 l 1
 48 192 l 1
 48 384 l 1
 64 400 l 1
EndSplineSet
Validated: 1
EndChar

StartChar: uni2086
Encoding: 272 8326 202
Width: 384
VWidth: 0
Flags: W
HStem: -24 96<139.621 180.587> 184 96<138.861 180.587> 312 96<139.991 181.955>
VStem: 40 96<75.4611 183.959 279 310.576> 184 96<72.7329 183.267 311.41 311.997>
LayerCount: 2
Fore
SplineSet
160 72 m 0
 176 72 184 86 184 128 c 0
 184 170 176 184 160 184 c 0
 144 184 136 170 136 128 c 0
 136 86 144 72 160 72 c 0
160 -24 m 0
 72 -24 41 26 40 120 c 1
 40 256 l 0
 40 355 70 408 160 408 c 0
 227 408 264 379 275 319 c 1
 263 301 l 1
 202 285 l 1
 182 298 l 1
 181 311 183 312 160 312 c 0
 157 312 155 312 153 312 c 0
 135 312 137 310 136 279 c 1
 145 280 152 280 160 280 c 0
 250 280 280 227 280 128 c 0
 280 29 250 -24 160 -24 c 0
EndSplineSet
Validated: 1
EndChar

StartChar: uni2087
Encoding: 273 8327 203
Width: 384
VWidth: 0
Flags: W
HStem: -16 21G<112 209> 272 96<64 171>
VStem: 48 224<288 352>
LayerCount: 2
Fore
SplineSet
64 368 m 1
 256 368 l 1
 272 352 l 1
 272 288 l 1
 272 285 l 1
 209 -3 l 1
 193 -16 l 1
 128 -16 l 1
 112 3 l 1
 171 272 l 1
 64 272 l 1
 48 288 l 1
 48 352 l 1
 64 368 l 1
EndSplineSet
Validated: 1
EndChar

StartChar: uni2088
Encoding: 274 8328 204
Width: 384
VWidth: 0
Flags: W
HStem: -24 21G<114 206>
VStem: 40 104<80.3086 175.44 272.449 302.603> 176 104<80.3086 175.066 272.198 302.603>
LayerCount: 2
Fore
SplineSet
160 408 m 0
 232 408 280 360 280 288 c 0
 280 257 275 230 259 211 c 1
 273 190 280 170 280 128 c 0
 280 46 252 -24 160 -24 c 0
 68 -24 40 46 40 128 c 0
 40 171 48 191 61 211 c 1
 44 232 40 258 40 288 c 0
 40 360 88 408 160 408 c 0
160 304 m 0
 153 304 144 295 144 288 c 0
 144 281 153 272 160 272 c 0
 167 272 176 281 176 288 c 0
 176 295 167 304 160 304 c 0
160 176 m 0
 159 176 158 176 157 176 c 0
 152 176 144 172 144 128 c 0
 144 81 150 80 159 80 c 0
 160 80 l 0
 161 80 l 0
 170 80 176 81 176 128 c 0
 176 172 168 176 163 176 c 0
 162 176 161 176 160 176 c 0
EndSplineSet
Validated: 1
EndChar

StartChar: uni2089
Encoding: 275 8329 205
Width: 384
VWidth: 0
Flags: W
HStem: -24 96<138.045 180.009> 104 96<139.413 181.139> 312 96<139.413 180.379>
VStem: 40 96<72.0033 72.5896 200.733 311.267> 184 96<73.4244 105 200.041 308.539>
LayerCount: 2
Fore
SplineSet
160 312 m 0
 144 312 136 298 136 256 c 0
 136 214 144 200 160 200 c 0
 176 200 184 214 184 256 c 0
 184 298 176 312 160 312 c 0
160 408 m 0
 248 408 279 358 280 264 c 1
 280 128 l 0
 280 29 250 -24 160 -24 c 0
 93 -24 56 5 45 65 c 1
 57 83 l 1
 118 99 l 1
 138 86 l 1
 139 73 137 72 160 72 c 0
 163 72 165 72 167 72 c 0
 185 72 183 74 184 105 c 1
 175 104 168 104 160 104 c 0
 70 104 40 157 40 256 c 0
 40 355 70 408 160 408 c 0
EndSplineSet
Validated: 1
EndChar

StartChar: uni00B2
Encoding: 178 178 206
Width: 384
VWidth: 0
Flags: W
HStem: 240 96<153 256> 644 20G<123 197>
VStem: 40 104<512 559.642> 176 104<487.017 559.82>
LayerCount: 2
Fore
SplineSet
160 664 m 0
 234 664 280 613 280 512 c 0
 280 377 162 417 153 336 c 1
 256 336 l 1
 272 320 l 1
 272 256 l 1
 256 240 l 1
 64 240 l 1
 48 256 l 1
 48 320 l 0
 48 491 176 466 176 512 c 0
 176 559 162 560 160 560 c 0
 158 560 144 559 144 512 c 1
 128 496 l 1
 56 496 l 1
 40 512 l 1
 40 613 86 664 160 664 c 0
EndSplineSet
Validated: 1
EndChar

StartChar: uni00B3
Encoding: 179 179 207
Width: 384
VWidth: 0
Flags: W
HStem: 432 96<136 174.658> 560 104<115.257 174.603>
VStem: 176 104<336.169 431.463 528.235 558.603>
LayerCount: 2
Fore
SplineSet
160 664 m 0
 232 664 280 616 280 544 c 0
 280 513 274 487 259 467 c 1
 272 446 280 426 280 384 c 0
 280 302 252 232 160 232 c 0
 95 232 59 268 46 321 c 1
 58 340 l 1
 128 359 l 1
 147 347 l 1
 150 336 151 336 160 336 c 0
 161 336 l 0
 170 336 176 337 176 384 c 0
 176 428 168 432 163 432 c 0
 162 432 161 432 160 432 c 0
 136 432 l 1
 120 448 l 1
 120 512 l 1
 136 528 l 1
 160 528 l 0
 167 528 176 537 176 544 c 0
 176 551 167 560 160 560 c 0
 155 560 147 555 145 548 c 1
 126 538 l 1
 55 557 l 1
 43 576 l 1
 55 631 100 664 160 664 c 0
EndSplineSet
Validated: 1
EndChar
